SplineFontDB: 3.0
FontName: TheanoOldStyle-Bold
FullName: Theano Old Style Bold
FamilyName: Theano Old Style
Weight: Bold
Copyright: Copyright (c) Alexey Kryukov, 2007-2010. All rights reserved.
UComments: "+BBcEMAQzBDsACgQoBDgEQAAA 184 : 272 +AD0A 1.48+AAoEIwQ3BDoA 64  : 78  +AD0A 1.22+AAoEIQRCBEAACgQoBDgEQAAA 140 : 208 +AD0A 1.48+AAoEIwQ3BDoA 58  : 68  +AD0A 1.17+AAoEIQRDBD8ACgQoBDgEQAAA 108 : 144 +AD0A 1.33+AAoEIwQ3BDoA 44  : 48  +AD0A 1.1"
Version: 2.10
ItalicAngle: 0
UnderlinePosition: -352
UnderlineWidth: 96
Ascent: 1580
Descent: 468
InvalidEm: 0
LayerCount: 3
Layer: 0 0 "Back" 1
Layer: 1 0 "Fore" 0
Layer: 2 1 "TTF" 0
XUID: [1021 675 718133685 3451480]
UniqueID: 4174309
FSType: 0
OS2Version: 0
OS2_WeightWidthSlopeOnly: 0
OS2_UseTypoMetrics: 1
CreationTime: 1298973684
ModificationTime: 1571827685
PfmFamily: 17
TTFWeight: 600
TTFWidth: 5
LineGap: 560
VLineGap: 0
Panose: 2 4 7 3 6 5 5 2 2 3
OS2TypoAscent: 0
OS2TypoAOffset: 1
OS2TypoDescent: 0
OS2TypoDOffset: 1
OS2TypoLinegap: 560
OS2WinAscent: 0
OS2WinAOffset: 1
OS2WinDescent: 0
OS2WinDOffset: 1
HheadAscent: 0
HheadAOffset: 1
HheadDescent: 0
HheadDOffset: 1
OS2SubXSize: 1400
OS2SubYSize: 1300
OS2SubXOff: 0
OS2SubYOff: 280
OS2SupXSize: 1400
OS2SupYSize: 1300
OS2SupXOff: 0
OS2SupYOff: 954
OS2StrikeYSize: 100
OS2StrikeYPos: 500
OS2FamilyClass: 256
OS2Vendor: '    '
Lookup: 4 0 0 "'ccmp' Simple Glyph Composition" { "'ccmp' Simple Glyph Composition-1"  } ['ccmp' ('cyrl' <'dflt' > 'grek' <'dflt' > 'latn' <'AZE ' 'CRT ' 'DEU ' 'MOL ' 'ROM ' 'TRK ' 'dflt' > ) ]
Lookup: 5 0 0 "'ccmp' Dotless Variants" { "'ccmp' Dotless Variants-1"  } ['ccmp' ('cyrl' <'dflt' > 'grek' <'dflt' > 'latn' <'AZE ' 'CRT ' 'DEU ' 'MOL ' 'ROM ' 'TRK ' 'dflt' > ) ]
Lookup: 5 0 0 "'ccmp' Cyrillic Accents" { "'ccmp' Cyrillic Accents-1"  } ['ccmp' ('cyrl' <'dflt' > 'grek' <'dflt' > 'latn' <'AZE ' 'CRT ' 'DEU ' 'MOL ' 'ROM ' 'TRK ' 'dflt' > ) ]

StartChar: exclam
Encoding: 33 33 1
Width: 584
VWidth: 2078
Flags: W
HStem: -24 370<170.188 413.812> 1468 20G<221.5 362.5>
VStem: 107 370<39.1884 282.812 1135.27 1424.04> 245 93<484 641.274>
LayerCount: 3
Fore
SplineSet
107 161 m 0xe0
 107 265 188 346 292 346 c 0
 396 346 477 265 477 161 c 0
 477 57 396 -24 292 -24 c 0
 188 -24 107 57 107 161 c 0xe0
121 1323 m 0
 121 1381 151 1488 292 1488 c 0
 433 1488 463 1381 463 1323 c 0
 463 1271 442 1166 421 1090 c 0
 396 1001 386 945 372 857 c 1
 338 484 l 1
 245 484 l 1xd0
 212 857 l 1
 198 945 187 1002 162 1091 c 0
 141 1167 121 1271 121 1323 c 0
EndSplineSet
Validated: 19457
Layer: 2
SplineSet
107 161 m 128,-1,1
 107 239 107 239 160.5 292.5 c 128,-1,2
 214 346 214 346 292 346 c 128,-1,3
 370 346 370 346 423.5 292.5 c 128,-1,4
 477 239 477 239 477 161 c 128,-1,5
 477 83 477 83 423.5 29.5 c 128,-1,6
 370 -24 370 -24 292 -24 c 128,-1,7
 214 -24 214 -24 160.5 29.5 c 128,-1,0
 107 83 107 83 107 161 c 128,-1,1
121 1323 m 0,8,9
 121 1348 121 1348 128.5 1373.5 c 128,-1,10
 136 1399 136 1399 153 1426.5 c 128,-1,11
 170 1454 170 1454 206 1471 c 128,-1,12
 242 1488 242 1488 292 1488 c 128,-1,13
 342 1488 342 1488 378 1471 c 128,-1,14
 414 1454 414 1454 431 1426.5 c 128,-1,15
 448 1399 448 1399 455.5 1373.5 c 128,-1,16
 463 1348 463 1348 463 1323 c 0,17,18
 463 1242 463 1242 421 1090 c 0,19,20
 393 992 393 992 372 857 c 1,21,-1
 338 484 l 1,22,-1
 245 484 l 1,23,-1
 212 857 l 1,24,25
 191 986 191 986 162 1091 c 0,26,27
 121 1239 121 1239 121 1323 c 0,8,9
EndSplineSet
EndChar

StartChar: numbersign
Encoding: 35 35 3
Width: 1180
VWidth: 2078
Flags: W
HStem: 0 21G<186 330.906 630 787.857> 406 144<44 243 409 695 866 1136> 910 144<44 315 484 771 937 1136> 1465 19G<404.659 561 860.651 1005>
DStem2: 186 0 328 0 0.147852 0.98901<20.995 409.965 576.926 919.072 1086.48 1501.5> 630 1 785 0 0.15586 0.987779<23.1705 410.181 579.074 919.868 1087.98 1501.35>
LayerCount: 3
Fore
SplineSet
44 406 m 1
 44 550 l 1
 263 550 l 1
 315 910 l 1
 44 910 l 1
 44 1054 l 1
 336 1054 l 1
 408 1485 l 1
 561 1484 l 1
 484 1054 l 1
 792 1054 l 1
 864 1484 l 1
 1005 1484 l 1
 937 1054 l 1
 1136 1054 l 1
 1136 910 l 1
 918 910 l 1
 866 550 l 1
 1136 549 l 1
 1136 406 l 1
 843 406 l 1
 785 0 l 1
 630 1 l 1
 695 406 l 1
 387 406 l 1
 328 0 l 1
 186 0 l 1
 243 406 l 1
 44 406 l 1
463 910 m 1
 409 550 l 1
 717 550 l 1
 771 910 l 1
 463 910 l 1
EndSplineSet
Validated: 19457
Layer: 2
SplineSet
44 406 m 1,0,-1
 44 550 l 1,1,-1
 263 550 l 1,2,-1
 315 910 l 1,3,-1
 44 910 l 1,4,-1
 44 1054 l 1,5,-1
 336 1054 l 1,6,-1
 408 1485 l 1,7,-1
 561 1484 l 1,8,-1
 484 1054 l 1,9,-1
 792 1054 l 1,10,-1
 864 1484 l 1,11,-1
 1005 1484 l 1,12,-1
 937 1054 l 1,13,-1
 1136 1054 l 1,14,-1
 1136 910 l 1,15,-1
 918 910 l 1,16,-1
 866 550 l 1,17,-1
 1136 549 l 1,18,-1
 1136 406 l 1,19,-1
 843 406 l 1,20,-1
 785 0 l 1,21,-1
 630 1 l 1,22,-1
 695 406 l 1,23,-1
 387 406 l 1,24,-1
 328 0 l 1,25,-1
 186 0 l 1,26,-1
 243 406 l 1,27,-1
 44 406 l 1,0,-1
463 910 m 1,28,-1
 409 550 l 1,29,-1
 717 550 l 1,30,-1
 771 910 l 1,31,-1
 463 910 l 1,28,-1
EndSplineSet
EndChar

StartChar: dollar
Encoding: 36 36 4
Width: 1180
VWidth: 2078
Flags: W
HStem: -28 76<405.518 560 644 795.664> 1412 76<451.122 560 644 747.332>
VStem: 110 191<144.322 281.821> 132 183<1022.14 1253.4> 560 84<-200 -28 48 615 878 1412 1488 1612> 836 208<1153.57 1307.05> 932 160<196.367 447.214>
LayerCount: 3
Fore
SplineSet
110 276 m 0xea
 110 375 191 441 271 441 c 0
 328 441 383 411 383 360 c 0
 383 318 361 295 334 274 c 0
 313 258 301 236 301 212 c 0xea
 301 119 435 50 560 48 c 1
 560 649 l 1
 338 733 132 855 132 1085 c 0
 132 1336 397 1484 560 1488 c 1
 560 1612 l 1
 644 1612 l 1
 644 1487 l 1
 875 1484 1044 1331 1044 1166 c 0
 1044 1076 975 1007 889 1007 c 0
 833 1007 775 1038 775 1094 c 0
 775 1132 799 1169 814 1194 c 0
 829 1218 836 1241 836 1259 c 0xdc
 836 1327 735 1409 644 1412 c 1
 644 847 l 1
 936 751 1092 601 1092 375 c 0
 1092 141 890 -25 644 -28 c 1
 644 -200 l 1
 560 -200 l 1
 560 -28 l 1
 337 -25 110 93 110 276 c 0xea
315 1157 m 0xd8
 315 1014 426 936 560 878 c 1
 560 1412 l 1
 466 1408 315 1321 315 1157 c 0xd8
644 48 m 1
 795 51 932 138 932 310 c 0xca
 932 458 807 545 644 615 c 1
 644 48 l 1
EndSplineSet
Validated: 19457
Layer: 2
SplineSet
110 276 m 0,0,1
 110 347 110 347 159 394 c 128,-1,2
 208 441 208 441 271 441 c 0,3,4
 316 441 316 441 349.5 419 c 128,-1,5
 383 397 383 397 383 360 c 0,6,7
 383 312 383 312 334 274 c 0,8,9
 301 249 301 249 301 212 c 0,10,11
 301 145 301 145 381.5 97.5 c 128,-1,12
 462 50 462 50 560 48 c 1,13,-1
 560 649 l 1,14,15
 488 676 488 676 430 704.5 c 128,-1,16
 372 733 372 733 314.5 772.5 c 128,-1,17
 257 812 257 812 218.5 856.5 c 128,-1,18
 180 901 180 901 156 959.5 c 128,-1,19
 132 1018 132 1018 132 1085 c 0,20,21
 132 1157 132 1157 161 1222.5 c 128,-1,22
 190 1288 190 1288 236 1334.5 c 128,-1,23
 282 1381 282 1381 339 1416 c 128,-1,24
 396 1451 396 1451 453 1469 c 128,-1,25
 510 1487 510 1487 560 1488 c 1,26,-1
 560 1612 l 1,27,-1
 644 1612 l 1,28,-1
 644 1487 l 1,29,30
 814 1485 814 1485 929 1389 c 128,-1,31
 1044 1293 1044 1293 1044 1166 c 0,32,33
 1044 1099 1044 1099 999 1053 c 128,-1,34
 954 1007 954 1007 889 1007 c 0,35,36
 844 1007 844 1007 809.5 1030.5 c 128,-1,37
 775 1054 775 1054 775 1094 c 0,38,39
 775 1129 775 1129 814 1194 c 0,40,41
 836 1229 836 1229 836 1259 c 0,42,43
 836 1310 836 1310 774 1360 c 128,-1,44
 712 1410 712 1410 644 1412 c 1,45,-1
 644 847 l 1,46,47
 867 774 867 774 979.5 658 c 128,-1,48
 1092 542 1092 542 1092 375 c 0,49,50
 1092 261 1092 261 1031.5 168.5 c 128,-1,51
 971 76 971 76 868.5 24.5 c 128,-1,52
 766 -27 766 -27 644 -28 c 1,53,-1
 644 -200 l 1,54,-1
 560 -200 l 1,55,-1
 560 -28 l 1,56,57
 447 -26 447 -26 345 10.5 c 128,-1,58
 243 47 243 47 176.5 117.5 c 128,-1,59
 110 188 110 188 110 276 c 0,0,1
315 1157 m 0,60,61
 315 1058 315 1058 380 993 c 128,-1,62
 445 928 445 928 560 878 c 1,63,-1
 560 1412 l 1,64,65
 523 1410 523 1410 481.5 1393 c 128,-1,66
 440 1376 440 1376 402.5 1345.5 c 128,-1,67
 365 1315 365 1315 340 1265 c 128,-1,68
 315 1215 315 1215 315 1157 c 0,60,61
644 48 m 1,69,70
 765 50 765 50 848.5 118.5 c 128,-1,71
 932 187 932 187 932 310 c 0,72,73
 932 413 932 413 856.5 484.5 c 128,-1,74
 781 556 781 556 644 615 c 1,75,-1
 644 48 l 1,69,70
EndSplineSet
EndChar

StartChar: percent
Encoding: 37 37 5
Width: 1590
VWidth: 2078
Flags: W
HStem: -28 56<1158.46 1265.54> 638 57<1158.46 1265.54> 764 57<325.46 432.54> 1432 56<325.46 432.54>
VStem: 61 200<944.122 1308.09> 497 200<944.122 1308.09> 894 200<151.826 515.038> 1330 200<151.826 515.038>
DStem2: 281 -16 402 -16 0.515678 0.856783<62.397 1740.37>
LayerCount: 3
Fore
SplineSet
281 -16 m 25
 1177 1476 l 25
 1300 1476 l 25
 402 -16 l 25
 281 -16 l 25
61 1126 m 0
 61 1309 190 1488 379 1488 c 0
 568 1488 697 1309 697 1126 c 0
 697 943 568 764 379 764 c 0
 190 764 61 943 61 1126 c 0
261 1126 m 0
 261 997 284 821 379 821 c 0
 474 821 497 997 497 1126 c 0
 497 1255 474 1432 379 1432 c 0
 284 1432 261 1255 261 1126 c 0
894 334 m 0
 894 517 1023 695 1212 695 c 0
 1401 695 1530 517 1530 334 c 0
 1530 151 1401 -28 1212 -28 c 0
 1023 -28 894 151 894 334 c 0
1094 333 m 0
 1094 205 1117 28 1212 28 c 0
 1307 28 1330 205 1330 333 c 0
 1330 461 1307 638 1212 638 c 0
 1117 638 1094 461 1094 333 c 0
EndSplineSet
Validated: 19457
Layer: 2
SplineSet
281 -16 m 25,0,-1
 1177 1476 l 1,1,-1
 1300 1476 l 1,2,-1
 402 -16 l 1,3,-1
 281 -16 l 25,0,-1
61 1126 m 128,-1,5
 61 1218 61 1218 100.5 1300.5 c 128,-1,6
 140 1383 140 1383 214 1435.5 c 128,-1,7
 288 1488 288 1488 379 1488 c 128,-1,8
 470 1488 470 1488 544 1435.5 c 128,-1,9
 618 1383 618 1383 657.5 1300.5 c 128,-1,10
 697 1218 697 1218 697 1126 c 128,-1,11
 697 1034 697 1034 657.5 951.5 c 128,-1,12
 618 869 618 869 544 816.5 c 128,-1,13
 470 764 470 764 379 764 c 128,-1,14
 288 764 288 764 214 816.5 c 128,-1,15
 140 869 140 869 100.5 951.5 c 128,-1,4
 61 1034 61 1034 61 1126 c 128,-1,5
261 1126 m 128,-1,17
 261 1072 261 1072 266.5 1023 c 128,-1,18
 272 974 272 974 284 926 c 128,-1,19
 296 878 296 878 320.5 849.5 c 128,-1,20
 345 821 345 821 379 821 c 128,-1,21
 413 821 413 821 437.5 849.5 c 128,-1,22
 462 878 462 878 474 926 c 128,-1,23
 486 974 486 974 491.5 1023 c 128,-1,24
 497 1072 497 1072 497 1126 c 128,-1,25
 497 1180 497 1180 491.5 1229 c 128,-1,26
 486 1278 486 1278 474 1326 c 128,-1,27
 462 1374 462 1374 437.5 1403 c 128,-1,28
 413 1432 413 1432 379 1432 c 128,-1,29
 345 1432 345 1432 320.5 1403 c 128,-1,30
 296 1374 296 1374 284 1326 c 128,-1,31
 272 1278 272 1278 266.5 1229 c 128,-1,16
 261 1180 261 1180 261 1126 c 128,-1,17
894 334 m 0,32,33
 894 477 894 477 984.5 586 c 128,-1,34
 1075 695 1075 695 1212 695 c 128,-1,35
 1349 695 1349 695 1439.5 586 c 128,-1,36
 1530 477 1530 477 1530 334 c 0,37,38
 1530 242 1530 242 1490.5 159.5 c 128,-1,39
 1451 77 1451 77 1377 24.5 c 128,-1,40
 1303 -28 1303 -28 1212 -28 c 128,-1,41
 1121 -28 1121 -28 1047 24.5 c 128,-1,42
 973 77 973 77 933.5 159.5 c 128,-1,43
 894 242 894 242 894 334 c 0,32,33
1094 333 m 128,-1,45
 1094 280 1094 280 1099.5 230.5 c 128,-1,46
 1105 181 1105 181 1117 133.5 c 128,-1,47
 1129 86 1129 86 1153.5 57 c 128,-1,48
 1178 28 1178 28 1212 28 c 128,-1,49
 1246 28 1246 28 1270.5 57 c 128,-1,50
 1295 86 1295 86 1307 133.5 c 128,-1,51
 1319 181 1319 181 1324.5 230.5 c 128,-1,52
 1330 280 1330 280 1330 333 c 128,-1,53
 1330 386 1330 386 1324.5 435.5 c 128,-1,54
 1319 485 1319 485 1307 532.5 c 128,-1,55
 1295 580 1295 580 1270.5 609 c 128,-1,56
 1246 638 1246 638 1212 638 c 128,-1,57
 1178 638 1178 638 1153.5 609 c 128,-1,58
 1129 580 1129 580 1117 532.5 c 128,-1,59
 1105 485 1105 485 1099.5 435.5 c 128,-1,44
 1094 386 1094 386 1094 333 c 128,-1,45
EndSplineSet
EndChar

StartChar: ampersand
Encoding: 38 38 6
Width: 1636
VWidth: 2078
Flags: W
HStem: -28 106<473.22 754.355 1295.13 1453.46> 756 68<1074 1200.31 1492.1 1580> 1412 76<762.657 916.389>
VStem: 66 289<204.792 487.086> 488 214<1021.45 1292.1> 950 177<1110.12 1387.31>
LayerCount: 3
Fore
SplineSet
66 331 m 0
 66 572 345 716 569 827 c 1
 522 915 488 1004 488 1112 c 0
 488 1337 664 1488 866 1488 c 0
 1054 1488 1127 1362 1127 1265 c 0
 1127 1090 992 1000 800 885 c 1
 891 696 978 533 1091 368 c 1
 1180 483 1239 545 1239 636 c 0
 1239 729 1162 756 1074 756 c 1
 1074 824 l 1
 1580 824 l 1
 1580 756 l 1
 1425 726 1335 572 1132 309 c 1
 1206 203 1323 76 1376 76 c 0
 1438 76 1509 136 1551 178 c 1
 1584 135 l 1
 1515 66 1445 -28 1300 -28 c 0
 1199 -28 1062 58 973 156 c 1
 843 46 713 -28 520 -28 c 0
 261 -28 66 109 66 331 c 0
355 399 m 0
 355 140 503 78 648 78 c 0
 734 78 845 134 925 210 c 1
 775 405 719 510 600 753 c 1
 470 676 355 553 355 399 c 0
702 1200 m 0
 702 1123 735 1049 776 946 c 1
 892 1038 950 1093 950 1254 c 0
 950 1334 922 1412 840 1412 c 0
 752 1412 702 1310 702 1200 c 0
EndSplineSet
Validated: 19457
Layer: 2
SplineSet
66 331 m 0,0,1
 66 381 66 381 83 429 c 128,-1,2
 100 477 100 477 125.5 515 c 128,-1,3
 151 553 151 553 194.5 593 c 128,-1,4
 238 633 238 633 276 661 c 128,-1,5
 314 689 314 689 372.5 723 c 128,-1,6
 431 757 431 757 469.5 777 c 128,-1,7
 508 797 508 797 569 827 c 1,8,9
 488 979 488 979 488 1112 c 0,10,11
 488 1277 488 1277 599 1382.5 c 128,-1,12
 710 1488 710 1488 866 1488 c 0,13,14
 933 1488 933 1488 985.5 1467 c 128,-1,15
 1038 1446 1038 1446 1067.5 1412.5 c 128,-1,16
 1097 1379 1097 1379 1112 1341 c 128,-1,17
 1127 1303 1127 1303 1127 1265 c 0,18,19
 1127 1214 1127 1214 1110 1168.5 c 128,-1,20
 1093 1123 1093 1123 1068.5 1089.5 c 128,-1,21
 1044 1056 1044 1056 997 1017.5 c 128,-1,22
 950 979 950 979 909 952.5 c 128,-1,23
 868 926 868 926 800 885 c 1,24,25
 949 575 949 575 1091 368 c 1,26,27
 1102 382 1102 382 1126.5 413.5 c 128,-1,28
 1151 445 1151 445 1160 456.5 c 128,-1,29
 1169 468 1169 468 1186 492.5 c 128,-1,30
 1203 517 1203 517 1209.5 529.5 c 128,-1,31
 1216 542 1216 542 1224.5 562 c 128,-1,32
 1233 582 1233 582 1236 599.5 c 128,-1,33
 1239 617 1239 617 1239 636 c 0,34,35
 1239 756 1239 756 1074 756 c 1,36,-1
 1074 824 l 1,37,-1
 1580 824 l 1,38,-1
 1580 756 l 1,39,40
 1547 750 1547 750 1518 737 c 128,-1,41
 1489 724 1489 724 1458 699 c 128,-1,42
 1427 674 1427 674 1403.5 651.5 c 128,-1,43
 1380 629 1380 629 1344 584.5 c 128,-1,44
 1308 540 1308 540 1283.5 508.5 c 128,-1,45
 1259 477 1259 477 1211.5 414 c 128,-1,46
 1164 351 1164 351 1132 309 c 1,47,48
 1193 221 1193 221 1266 148.5 c 128,-1,49
 1339 76 1339 76 1376 76 c 0,50,51
 1449 76 1449 76 1551 178 c 1,52,-1
 1584 135 l 1,53,54
 1579 130 1579 130 1550 100 c 128,-1,55
 1521 70 1521 70 1510.5 60.5 c 128,-1,56
 1500 51 1500 51 1471.5 28.5 c 128,-1,57
 1443 6 1443 6 1421.5 -2.5 c 128,-1,58
 1400 -11 1400 -11 1367.5 -19.5 c 128,-1,59
 1335 -28 1335 -28 1300 -28 c 0,60,61
 1227 -28 1227 -28 1135 25.5 c 128,-1,62
 1043 79 1043 79 973 156 c 1,63,64
 865 65 865 65 760 18.5 c 128,-1,65
 655 -28 655 -28 520 -28 c 0,66,67
 322 -28 322 -28 194 70 c 128,-1,68
 66 168 66 168 66 331 c 0,0,1
355 399 m 0,69,70
 355 324 355 324 372 266.5 c 128,-1,71
 389 209 389 209 416 174 c 128,-1,72
 443 139 443 139 482.5 117 c 128,-1,73
 522 95 522 95 561.5 86.5 c 128,-1,74
 601 78 601 78 648 78 c 0,75,76
 711 78 711 78 787.5 115 c 128,-1,77
 864 152 864 152 925 210 c 1,78,79
 819 348 819 348 757.5 452 c 128,-1,80
 696 556 696 556 600 753 c 1,81,82
 492 689 492 689 423.5 598 c 128,-1,83
 355 507 355 507 355 399 c 0,69,70
702 1200 m 0,84,85
 702 1186 702 1186 704 1170.5 c 128,-1,86
 706 1155 706 1155 707.5 1143 c 128,-1,87
 709 1131 709 1131 715 1112 c 128,-1,88
 721 1093 721 1093 723.5 1083.5 c 128,-1,89
 726 1074 726 1074 735 1050.5 c 128,-1,90
 744 1027 744 1027 747 1019.5 c 128,-1,91
 750 1012 750 1012 761.5 982.5 c 128,-1,92
 773 953 773 953 776 946 c 1,93,94
 827 986 827 986 853.5 1011.5 c 128,-1,95
 880 1037 880 1037 905.5 1073 c 128,-1,96
 931 1109 931 1109 940.5 1152 c 128,-1,97
 950 1195 950 1195 950 1254 c 0,98,99
 950 1322 950 1322 923.5 1367 c 128,-1,100
 897 1412 897 1412 840 1412 c 0,101,102
 777 1412 777 1412 739.5 1349.5 c 128,-1,103
 702 1287 702 1287 702 1200 c 0,84,85
EndSplineSet
EndChar

StartChar: quotesingle
Encoding: 39 39 7
Width: 584
VWidth: 2078
Flags: W
HStem: 1468 20G<248 336>
VStem: 154 276<986.672 1450.24> 246 92<696 783.67>
LayerCount: 3
Fore
SplineSet
154 1332 m 0xc0
 154 1419 204 1488 292 1488 c 0
 380 1488 430 1419 430 1332 c 0xc0
 430 1309 427 1242 416 1173 c 2
 338 696 l 1
 246 696 l 1xa0
 168 1173 l 2
 157 1243 154 1309 154 1332 c 0xc0
EndSplineSet
Validated: 19457
Layer: 2
SplineSet
154 1332 m 0,0,1
 154 1400 154 1400 191 1444 c 128,-1,2
 228 1488 228 1488 292 1488 c 128,-1,3
 356 1488 356 1488 393 1444 c 128,-1,4
 430 1400 430 1400 430 1332 c 0,5,6
 430 1261 430 1261 416 1173 c 2,7,-1
 338 696 l 1,8,-1
 246 696 l 1,9,-1
 168 1173 l 2,10,11
 154 1262 154 1262 154 1332 c 0,0,1
EndSplineSet
EndChar

StartChar: parenleft
Encoding: 40 40 8
Width: 722
VWidth: 2078
Flags: W
HStem: -558 21G<452.558 616.333> 1466 20G<452.558 616.333>
VStem: 112 250<145.769 782.231>
LayerCount: 3
Fore
SplineSet
112 464 m 0
 112 858.022460938 312.115234375 1205.11523438 593 1486 c 1
 642 1444 l 1
 468.483398438 1212.64453125 362 884.772460938 362 464 c 0
 362 43.2275390625 468.483398438 -284.64453125 642 -516 c 1
 593 -558 l 1
 312.115234375 -277.115234375 112 69.9775390625 112 464 c 0
EndSplineSet
Validated: 19457
Layer: 2
SplineSet
112 464 m 128,-1,1
 112 746 112 746 240.5 1004 c 128,-1,2
 369 1262 369 1262 593 1486 c 1,3,-1
 642 1444 l 1,4,5
 362 1071 362 1071 362 464 c 128,-1,6
 362 -143 362 -143 642 -516 c 1,7,-1
 593 -558 l 1,8,9
 369 -334 369 -334 240.5 -76 c 128,-1,0
 112 182 112 182 112 464 c 128,-1,1
EndSplineSet
EndChar

StartChar: parenright
Encoding: 41 41 9
Width: 722
VWidth: 2078
Flags: W
HStem: -558 21G<105.667 269.442> 1466 20G<105.667 269.442>
VStem: 360 250<145.769 782.231>
LayerCount: 3
Fore
SplineSet
610 464 m 0
 610 69.9775390625 409.884765625 -277.115234375 129 -558 c 1
 80 -516 l 1
 253.516601562 -284.64453125 360 43.2275390625 360 464 c 0
 360 884.772460938 253.516601562 1212.64453125 80 1444 c 1
 129 1486 l 1
 409.884765625 1205.11523438 610 858.022460938 610 464 c 0
EndSplineSet
Validated: 19457
Layer: 2
SplineSet
610 464 m 128,-1,1
 610 182 610 182 481.5 -76 c 128,-1,2
 353 -334 353 -334 129 -558 c 1,3,-1
 80 -516 l 1,4,5
 360 -143 360 -143 360 464 c 128,-1,6
 360 1071 360 1071 80 1444 c 1,7,-1
 129 1486 l 1,8,9
 353 1262 353 1262 481.5 1004 c 128,-1,0
 610 746 610 746 610 464 c 128,-1,1
EndSplineSet
EndChar

StartChar: asterisk
Encoding: 42 42 10
Width: 1180
VWidth: 1606
Flags: W
HStem: 771 223.16<176.373 341.637 838.363 1003.63> 1103.84 223.16<176.37 341.637 838.363 1003.63> 1468 20G<551.015 628.984>
VStem: 467.777 244.445<610.705 839.646 1258.35 1466.5> 533.415 113.17<782.787 975.112 1122.89 1313.11>
DStem2: 533.297 1122.89 472.548 1051.96 0.912375 -0.409356<-188.785 -19.7774 183.739 353.493>
LayerCount: 3
Fore
SplineSet
244 771 m 0xe8
 175.669921875 771 138 825.654296875 138 871.655273438 c 0
 138 957.606445312 226.19140625 983.787109375 306.852539062 994.16015625 c 0
 349.467773438 999.48828125 413.016601562 1017.61328125 473.052734375 1046.27636719 c 0
 474.125976562 1046.73925781 476.885742188 1048.09570312 478.46875 1049 c 1
 475.987304688 1050.41796875 473.783203125 1051.40625 473.654296875 1051.46386719 c 0
 472.646484375 1051.8984375 473.534179688 1051.49414062 472.547851562 1051.96484375 c 0
 413.61328125 1080.1015625 349.20703125 1098.54394531 306.852539062 1103.83984375 c 0
 226.182617188 1114.21386719 138 1140.38378906 138 1226.34472656 c 0
 138 1272.3515625 175.662109375 1327 244 1327 c 0
 304.723632812 1327 346.034179688 1284.62011719 386.322265625 1231.6328125 c 0
 416.393554688 1197.73144531 461.870117188 1162.06933594 519.479492188 1130.37304688 c 2
 520.209960938 1129.97167969 l 1
 520.91015625 1129.52929688 l 2
 523.3515625 1127.98828125 530.013671875 1124.3828125 533.296875 1122.88769531 c 1
 533.415039062 1126.12402344 533.415039062 1126.70800781 533.415039062 1129 c 0xe8
 533.415039062 1187.24023438 517.756835938 1249.81152344 500.354492188 1289.90234375 c 0
 480.64453125 1327.12792969 467.77734375 1361.75390625 467.77734375 1384.4375 c 0
 467.77734375 1438.484375 512.029296875 1488 590 1488 c 0
 667.96875 1488 712.22265625 1438.48339844 712.22265625 1384.4375 c 0xf0
 712.22265625 1362.07128906 698.317382812 1325.16796875 679.645507812 1289.90234375 c 0
 661.600585938 1248.33203125 646.584960938 1187.25 646.584960938 1129 c 0
 646.584960938 1126.75488281 646.66015625 1124.04882812 646.703125 1122.88769531 c 1
 651.734375 1125.17773438 656.337890625 1127.79296875 659.08984375 1129.52929688 c 2
 659.790039062 1129.97167969 l 1
 660.520507812 1130.37304688 l 2
 718.1328125 1162.0703125 763.604492188 1197.72949219 793.677734375 1231.6328125 c 0
 833.966796875 1284.62207031 875.272460938 1327 936 1327 c 0
 1004.33007812 1327 1042 1272.34570312 1042 1226.34472656 c 0
 1042 1140.39355469 953.80859375 1114.21289062 873.147460938 1103.83984375 c 0
 830.532226562 1098.51171875 766.983398438 1080.38671875 706.947265625 1051.72363281 c 0
 705.874023438 1051.26074219 703.114257812 1049.90429688 701.53125 1049 c 1
 704.012695312 1047.58203125 706.216796875 1046.59375 706.345703125 1046.53613281 c 0
 707.353515625 1046.1015625 706.465820312 1046.50585938 707.452148438 1046.03515625 c 0
 766.38671875 1017.8984375 830.79296875 999.456054688 873.147460938 994.16015625 c 0
 953.817382812 983.786132812 1042 957.616210938 1042 871.655273438 c 0
 1042 825.6484375 1004.33789062 771 936 771 c 0
 875.276367188 771 833.965820312 813.379882812 793.677734375 866.3671875 c 0
 763.606445312 900.268554688 718.129882812 935.930664062 660.520507812 967.626953125 c 2
 659.790039062 968.028320312 l 1
 659.08984375 968.470703125 l 2
 656.6484375 970.01171875 649.986328125 973.6171875 646.703125 975.112304688 c 1
 646.584960938 971.875976562 646.584960938 971.291992188 646.584960938 969 c 0xe8
 646.584960938 910.759765625 662.243164062 848.188476562 679.645507812 808.09765625 c 0
 699.35546875 767.500976562 712.22265625 729.739257812 712.22265625 705 c 0
 712.22265625 642.897460938 667.970703125 586 590 586 c 0
 512.03125 586 467.77734375 642.897460938 467.77734375 705 c 0xf0
 467.77734375 729.392578125 481.682617188 769.638671875 500.354492188 808.09765625 c 0
 518.399414062 849.66796875 533.415039062 910.75 533.415039062 969 c 0
 533.415039062 971.245117188 533.33984375 973.951171875 533.296875 975.112304688 c 1
 528.265625 972.822265625 523.662109375 970.20703125 520.91015625 968.470703125 c 2
 520.209960938 968.028320312 l 1
 519.479492188 967.626953125 l 2
 461.8671875 935.9296875 416.395507812 900.270507812 386.322265625 866.3671875 c 0
 346.033203125 813.377929688 304.727539062 771 244 771 c 0xe8
EndSplineSet
Validated: 19457
Layer: 2
SplineSet
244 771 m 0,0,1
 195.974520989 771 195.974520989 771 166.987260494 802.335709752 c 128,-1,2
 138 833.671419504 138 833.671419504 138 871.655273438 c 0,3,4
 138 972.445666984 138 972.445666984 306.852539062 994.16015625 c 0,5,6
 384.130335583 1003.82209442 384.130335583 1003.82209442 473.052734375 1046.27636719 c 0,7,8
 473.934427763 1046.65664259 473.934427763 1046.65664259 475.643968728 1047.50977949 c 128,-1,9
 477.353509693 1048.36291639 477.353509693 1048.36291639 478.46875 1049 c 2,10,-1
 473.654296875 1051.46386719 l 1,11,-1
 473.115232831 1051.69169815 l 1,12,-1
 472.547851562 1051.96484375 l 2,13,14
 384.130831583 1094.17716176 384.130831583 1094.17716176 306.852539062 1103.83984375 c 0,15,16
 138 1125.55401128 138 1125.55401128 138 1226.34472656 c 0,17,18
 138 1264.33345205 138 1264.33345205 166.984524615 1295.66672603 c 128,-1,19
 195.96904923 1327 195.96904923 1327 244 1327 c 0,20,21
 285.746037202 1327 285.746037202 1327 318.406175276 1302.50090164 c 128,-1,22
 351.066313349 1278.00180328 351.066313349 1278.00180328 386.322265625 1231.6328125 c 1,23,24
 434.830323419 1176.94644786 434.830323419 1176.94644786 519.479492188 1130.37304688 c 2,25,-1
 520.209960938 1129.97167969 l 1,26,-1
 520.91015625 1129.52929688 l 2,27,28
 526.602983006 1125.93598462 526.602983006 1125.93598462 533.296875 1122.88769531 c 1,29,30
 533.415039062 1126.12402344 533.415039062 1126.12402344 533.415039062 1129 c 0,31,32
 533.415039062 1213.73878423 533.415039062 1213.73878423 500.354492188 1289.90234375 c 1,33,34
 467.77734375 1351.42978374 467.77734375 1351.42978374 467.77734375 1384.4375 c 0,35,36
 467.77734375 1427.178831 467.77734375 1427.178831 500.849281204 1457.5894155 c 128,-1,37
 533.921218659 1488 533.921218659 1488 590 1488 c 128,-1,38
 646.077467212 1488 646.077467212 1488 679.150061731 1457.58897409 c 128,-1,39
 712.22265625 1427.17794818 712.22265625 1427.17794818 712.22265625 1384.4375 c 0,40,41
 712.22265625 1351.43089942 712.22265625 1351.43089942 679.645507812 1289.90234375 c 1,42,43
 646.584960938 1213.74034789 646.584960938 1213.74034789 646.584960938 1129 c 2,44,-1
 646.703125 1122.88769531 l 2,45,46
 650.177999142 1124.46932961 650.177999142 1124.46932961 653.446488357 1126.25010954 c 128,-1,47
 656.714977572 1128.03088947 656.714977572 1128.03088947 659.08984375 1129.52929688 c 2,48,-1
 659.790039062 1129.97167969 l 1,49,-1
 660.520507812 1130.37304688 l 2,50,51
 745.167364028 1176.94424204 745.167364028 1176.94424204 793.677734375 1231.6328125 c 0,52,53
 816.624483307 1261.81299341 816.624483307 1261.81299341 835.391499594 1280.68274054 c 128,-1,54
 854.158515881 1299.55248767 854.158515881 1299.55248767 880.660583739 1313.27624383 c 128,-1,55
 907.162651597 1327 907.162651597 1327 936 1327 c 0,56,57
 984.025479007 1327 984.025479007 1327 1013.0127395 1295.66429025 c 128,-1,58
 1042 1264.32858049 1042 1264.32858049 1042 1226.34472656 c 0,59,60
 1042 1201.51203201 1042 1201.51203201 1031.90838905 1181.65043708 c 128,-1,61
 1021.81677811 1161.78884214 1021.81677811 1161.78884214 1006.06872813 1149.02388324 c 128,-1,62
 990.320678156 1136.25892433 990.320678156 1136.25892433 967.15474843 1126.74443707 c 128,-1,63
 943.988818704 1117.22994982 943.988818704 1117.22994982 921.956415633 1112.25663323 c 128,-1,64
 899.924012562 1107.28331665 899.924012562 1107.28331665 873.147460938 1103.83984375 c 0,65,66
 860.226220438 1102.22431856 860.226220438 1102.22431856 845.307876972 1099.14869832 c 128,-1,67
 830.389533505 1096.07307807 830.389533505 1096.07307807 813.479599591 1091.424872 c 128,-1,68
 796.569665677 1086.77666592 796.569665677 1086.77666592 779.158173847 1080.93977644 c 128,-1,69
 761.746682016 1075.10288696 761.746682016 1075.10288696 743.148880841 1067.61555949 c 128,-1,70
 724.551079666 1060.12823203 724.551079666 1060.12823203 706.947265625 1051.72363281 c 2,71,-1
 701.53125 1049 l 1,72,-1
 706.345703125 1046.53613281 l 2,73,74
 706.742872752 1046.36487265 706.742872752 1046.36487265 706.884767169 1046.30830185 c 128,-1,75
 707.093291587 1046.20641269 707.093291587 1046.20641269 707.452148438 1046.03515625 c 0,76,77
 795.869168428 1003.82283823 795.869168428 1003.82283823 873.147460938 994.16015625 c 0,78,79
 1042 972.445988725 1042 972.445988725 1042 871.655273438 c 0,80,81
 1042 833.666547946 1042 833.666547946 1013.01547538 802.333273973 c 128,-1,82
 984.030950767 771 984.030950767 771 936 771 c 0,83,84
 894.253962798 771 894.253962798 771 861.593824725 795.49909836 c 128,-1,85
 828.933686652 819.99819672 828.933686652 819.99819672 793.677734375 866.3671875 c 1,86,87
 745.169676575 921.053552146 745.169676575 921.053552146 660.520507812 967.626953125 c 2,88,-1
 659.790039062 968.028320312 l 1,89,-1
 659.08984375 968.470703125 l 2,90,91
 653.397016944 972.064015405 653.397016944 972.064015405 646.703125 975.112304688 c 1,92,93
 646.584960938 971.875976562 646.584960938 971.875976562 646.584960938 969 c 0,94,95
 646.584960938 884.261215779 646.584960938 884.261215779 679.645507812 808.09765625 c 0,96,97
 712.22265625 740.998382718 712.22265625 740.998382718 712.22265625 705 c 0,98,99
 712.22265625 655.887909716 712.22265625 655.887909716 679.150653937 620.943954858 c 128,-1,100
 646.078651624 586 646.078651624 586 590 586 c 128,-1,101
 533.922482883 586 533.922482883 586 500.849913316 620.944144245 c 128,-1,102
 467.77734375 655.88828849 467.77734375 655.88828849 467.77734375 705 c 0,103,104
 467.77734375 740.997590362 467.77734375 740.997590362 500.354492188 808.09765625 c 0,105,106
 533.415039062 884.259652105 533.415039062 884.259652105 533.415039062 969 c 0,107,108
 533.415039062 971.919189466 533.415039062 971.919189466 533.296875 975.112304688 c 1,109,110
 526.619678864 972.073091772 526.619678864 972.073091772 520.91015625 968.470703125 c 2,111,-1
 520.209960938 968.028320312 l 1,112,-1
 519.479492188 967.626953125 l 2,113,114
 434.832635963 921.05575795 434.832635963 921.05575795 386.322265625 866.3671875 c 1,115,116
 351.065059734 819.995962736 351.065059734 819.995962736 318.406816073 795.497981368 c 128,-1,117
 285.748572413 771 285.748572413 771 244 771 c 0,0,1
EndSplineSet
EndChar

StartChar: plus
Encoding: 43 43 11
Width: 1180
VWidth: 2078
Flags: W
HStem: 0 21G<518 662> 442 144<76 518 662 1104>
VStem: 518 144<0 442 586 1028>
LayerCount: 3
Fore
SplineSet
76 586 m 1
 518 586 l 1
 518 1028 l 1
 662 1028 l 1
 662 586 l 1
 1104 586 l 1
 1104 442 l 1
 662 442 l 1
 662 0 l 1
 518 0 l 1
 518 442 l 1
 76 442 l 1
 76 586 l 1
EndSplineSet
Validated: 19457
Layer: 2
SplineSet
76 586 m 1,0,-1
 518 586 l 1,1,-1
 518 1028 l 1,2,-1
 662 1028 l 1,3,-1
 662 586 l 1,4,-1
 1104 586 l 1,5,-1
 1104 442 l 1,6,-1
 662 442 l 1,7,-1
 662 0 l 1,8,-1
 518 0 l 1,9,-1
 518 442 l 1,10,-1
 76 442 l 1,11,-1
 76 586 l 1,0,-1
EndSplineSet
EndChar

StartChar: comma
Encoding: 44 44 12
Width: 584
VWidth: 2078
Flags: W
HStem: -50 260<172.861 346.284>
VStem: 357 136<-195.337 33>
LayerCount: 3
Fore
SplineSet
133 -362 m 1
 226 -315 357 -235 357 -126 c 0
 357 -79 307 -54 251 -50 c 0
 190 -46 132 5 132 71 c 0
 132 152 206 210 277 210 c 0
 425 210 493 105 493 -39 c 0
 493 -226 312 -368 173 -435 c 1
 133 -362 l 1
EndSplineSet
Validated: 19457
Layer: 2
SplineSet
133 -362 m 1,0,1
 357 -249 357 -249 357 -126 c 0,2,3
 357 -93 357 -93 326.5 -73 c 128,-1,4
 296 -53 296 -53 251 -50 c 0,5,6
 204 -47 204 -47 168 -12 c 128,-1,7
 132 23 132 23 132 71 c 0,8,9
 132 130 132 130 176.5 170 c 128,-1,10
 221 210 221 210 277 210 c 0,11,12
 384 210 384 210 438.5 142 c 128,-1,13
 493 74 493 74 493 -39 c 0,14,15
 493 -106 493 -106 463.5 -169.5 c 128,-1,16
 434 -233 434 -233 384.5 -283 c 128,-1,17
 335 -333 335 -333 282.5 -370.5 c 128,-1,18
 230 -408 230 -408 173 -435 c 1,19,-1
 133 -362 l 1,0,1
EndSplineSet
EndChar

StartChar: hyphen
Encoding: 45 45 13
Width: 900
VWidth: 2078
Flags: W
HStem: 336 176<106 794>
LayerCount: 3
Fore
SplineSet
106 512 m 1
 794 512 l 1
 794 336 l 1
 106 336 l 1
 106 512 l 1
EndSplineSet
Validated: 19457
Layer: 2
SplineSet
106 512 m 1,0,-1
 794 512 l 1,1,-1
 794 336 l 1,2,-1
 106 336 l 1,3,-1
 106 512 l 1,0,-1
EndSplineSet
EndChar

StartChar: period
Encoding: 46 46 14
Width: 584
VWidth: 2078
Flags: W
HStem: -24 356<174.824 409.176>
VStem: 114 356<36.8238 271.176>
LayerCount: 3
Fore
SplineSet
114 154 m 0
 114 254 192 332 292 332 c 0
 392 332 470 254 470 154 c 0
 470 54 392 -24 292 -24 c 0
 192 -24 114 54 114 154 c 0
EndSplineSet
Validated: 19457
Layer: 2
SplineSet
114 154 m 128,-1,1
 114 229 114 229 165.5 280.5 c 128,-1,2
 217 332 217 332 292 332 c 128,-1,3
 367 332 367 332 418.5 280.5 c 128,-1,4
 470 229 470 229 470 154 c 128,-1,5
 470 79 470 79 418.5 27.5 c 128,-1,6
 367 -24 367 -24 292 -24 c 128,-1,7
 217 -24 217 -24 165.5 27.5 c 128,-1,0
 114 79 114 79 114 154 c 128,-1,1
EndSplineSet
EndChar

StartChar: slash
Encoding: 47 47 15
Width: 742
VWidth: 2078
Flags: W
HStem: -468 21G<72 227.637> 1440 20G<514.363 670>
VStem: 72 598
DStem2: 72 -468 223 -468 0.225856 0.974161<34.1042 1979.14>
LayerCount: 3
Fore
SplineSet
72 -468 m 1
 519 1460 l 1
 670 1460 l 1
 223 -468 l 1
 72 -468 l 1
EndSplineSet
Validated: 19457
Layer: 2
SplineSet
72 -468 m 1,0,-1
 519 1460 l 1,1,-1
 670 1460 l 1,2,-1
 223 -468 l 1,3,-1
 72 -468 l 1,0,-1
EndSplineSet
Substitution2: "'frac' Diagonal Fractions-1" fraction
EndChar

StartChar: zero
Encoding: 48 48 16
Width: 1180
VWidth: 2078
Flags: W
HStem: -35 77<486.637 693.437> 1417 77<486.637 693.437>
VStem: 35 302<434.934 1024.89> 844 302<434.934 1024.89>
LayerCount: 3
Fore
SplineSet
35 730 m 0
 35 1073 213 1494 590 1494 c 0
 967 1494 1146 1073 1146 730 c 0
 1146 387 967 -35 590 -35 c 0
 213 -35 35 387 35 730 c 0
337 730 m 0
 337 290 403 42 590 42 c 0
 777 42 844 290 844 730 c 0
 844 1170 777 1417 590 1417 c 0
 403 1417 337 1170 337 730 c 0
EndSplineSet
Validated: 19457
Layer: 2
SplineSet
35 730 m 128,-1,1
 35 835 35 835 56 941 c 128,-1,2
 77 1047 77 1047 122.5 1147 c 128,-1,3
 168 1247 168 1247 231.5 1324 c 128,-1,4
 295 1401 295 1401 388 1447.5 c 128,-1,5
 481 1494 481 1494 590 1494 c 128,-1,6
 699 1494 699 1494 792 1447.5 c 128,-1,7
 885 1401 885 1401 949 1324 c 128,-1,8
 1013 1247 1013 1247 1058.5 1147 c 128,-1,9
 1104 1047 1104 1047 1125 941 c 128,-1,10
 1146 835 1146 835 1146 730 c 128,-1,11
 1146 625 1146 625 1125 519 c 128,-1,12
 1104 413 1104 413 1058.5 313 c 128,-1,13
 1013 213 1013 213 949 135.5 c 128,-1,14
 885 58 885 58 792 11.5 c 128,-1,15
 699 -35 699 -35 590 -35 c 128,-1,16
 481 -35 481 -35 388 11.5 c 128,-1,17
 295 58 295 58 231.5 135.5 c 128,-1,18
 168 213 168 213 122.5 313 c 128,-1,19
 77 413 77 413 56 519 c 128,-1,0
 35 625 35 625 35 730 c 128,-1,1
337 730 m 128,-1,21
 337 561 337 561 350.5 436.5 c 128,-1,22
 364 312 364 312 393.5 222 c 128,-1,23
 423 132 423 132 472 87 c 128,-1,24
 521 42 521 42 590 42 c 0,25,26
 682 42 682 42 739 124 c 128,-1,27
 796 206 796 206 820 354.5 c 128,-1,28
 844 503 844 503 844 730 c 0,29,30
 844 899 844 899 830.5 1023.5 c 128,-1,31
 817 1148 817 1148 787.5 1237.5 c 128,-1,32
 758 1327 758 1327 708.5 1372 c 128,-1,33
 659 1417 659 1417 590 1417 c 128,-1,34
 521 1417 521 1417 472 1372.5 c 128,-1,35
 423 1328 423 1328 393.5 1238 c 128,-1,36
 364 1148 364 1148 350.5 1023.5 c 128,-1,20
 337 899 337 899 337 730 c 128,-1,21
EndSplineSet
Substitution2: "'dnom' Denominators-1" zero.dnom
Substitution2: "'subs' Subscript Forms-1" zeroinferior
Substitution2: "'sups' Superscript Forms-1" zerosuperior
AlternateSubs2: "'aalt' Access All Alternates-1" zerooldstyle
Substitution2: "'onum' Oldstyle Figures-1" zerooldstyle
EndChar

StartChar: one
Encoding: 49 49 17
Width: 1180
VWidth: 2079
Flags: W
HStem: -3 21G<479 738> 1450 20G<523.895 720>
VStem: 498 222<-1.11914 1269.99>
DStem2: 216 1090 263 1036 0.649968 0.759962<0 304.579>
LayerCount: 3
Fore
SplineSet
216 1090 m 17
 541 1470 l 9
 720 1470 l 9
 720 141 l 18
 720 85 727 37 738 -3 c 9
 479 -3 l 17
 490 37 498 85 498 141 c 10
 498 1234 l 18
 498 1250 496 1270 475 1270 c 0
 457 1270 444 1253 427 1229 c 10
 263 1036 l 25
 216 1090 l 17
EndSplineSet
Validated: 19457
Layer: 2
SplineSet
216 1090 m 17,0,-1
 541 1470 l 1,1,-1
 720 1470 l 1,2,-1
 720 141 l 2,3,4
 720 62 720 62 738 -3 c 1,5,-1
 479 -3 l 1,6,7
 498 66 498 66 498 141 c 2,8,-1
 498 1234 l 2,9,10
 498 1270 498 1270 475 1270 c 0,11,12
 456 1270 456 1270 427 1229 c 1,13,-1
 263 1036 l 1,14,-1
 216 1090 l 17,0,-1
EndSplineSet
Substitution2: "'dnom' Denominators-1" one.dnom
Substitution2: "'subs' Subscript Forms-1" oneinferior
Substitution2: "'sups' Superscript Forms-1" onesuperior
AlternateSubs2: "'aalt' Access All Alternates-1" onesuperior oneoldstyle
Substitution2: "'onum' Oldstyle Figures-1" oneoldstyle
EndChar

StartChar: two
Encoding: 50 50 18
Width: 1180
Flags: W
HStem: 0 247<275 947> 1417 77<415.424 690.639>
VStem: 120 228<1118 1302.88> 827 266<992.042 1286.77>
LayerCount: 3
Fore
SplineSet
74 0 m 1
 74 58 l 1
 168 253 349 480 531 658 c 0
 708 831 827 906 827 1126 c 0
 827 1276 721 1417 565 1417 c 0
 420 1417 348 1344 348 1266 c 0
 348 1240 366 1220 375 1211 c 0
 408 1178 422 1153 422 1112 c 0
 422 1062 378 1008 293 1008 c 0
 195 1008 120 1067 120 1169 c 0
 120 1351 345 1494 619 1494 c 0
 916 1494 1093 1327 1093 1159 c 0
 1093 929 890 829 700 689 c 0
 498 541 359 397 275 247 c 1
 873 247 l 2
 933 247 949 272 968 303 c 0
 988 336 1005 379 1012 425 c 0
 1017 456 1027 470 1047 470 c 0
 1074 470 1080 436 1080 420 c 1
 1080 379 1078 349 1054 287 c 2
 947 0 l 1
 74 0 l 1
EndSplineSet
Validated: 19457
Layer: 2
SplineSet
74 0 m 1,0,-1
 74 58 l 1,1,2
 142 199 142 199 265.5 359 c 128,-1,3
 389 519 389 519 531 658 c 0,4,5
 557 683 557 683 602.5 726 c 128,-1,6
 648 769 648 769 668.5 789 c 128,-1,7
 689 809 689 809 721 844.5 c 128,-1,8
 753 880 753 880 767.5 905 c 128,-1,9
 782 930 782 930 798.5 966 c 128,-1,10
 815 1002 815 1002 821 1041 c 128,-1,11
 827 1080 827 1080 827 1126 c 0,12,13
 827 1243 827 1243 752.5 1330 c 128,-1,14
 678 1417 678 1417 565 1417 c 0,15,16
 462 1417 462 1417 405 1373 c 128,-1,17
 348 1329 348 1329 348 1266 c 0,18,19
 348 1238 348 1238 375 1211 c 0,20,21
 422 1164 422 1164 422 1112 c 0,22,23
 422 1071 422 1071 387.5 1039.5 c 128,-1,24
 353 1008 353 1008 293 1008 c 0,25,26
 217 1008 217 1008 168.5 1051 c 128,-1,27
 120 1094 120 1094 120 1169 c 0,28,29
 120 1258 120 1258 187 1333 c 128,-1,30
 254 1408 254 1408 369 1451 c 128,-1,31
 484 1494 484 1494 619 1494 c 0,32,33
 727 1494 727 1494 818 1465.5 c 128,-1,34
 909 1437 909 1437 968 1389.5 c 128,-1,35
 1027 1342 1027 1342 1060 1282 c 128,-1,36
 1093 1222 1093 1222 1093 1159 c 0,37,38
 1093 1111 1093 1111 1082 1068.5 c 128,-1,39
 1071 1026 1071 1026 1047 988.5 c 128,-1,40
 1023 951 1023 951 999 922 c 128,-1,41
 975 893 975 893 933.5 859.5 c 128,-1,42
 892 826 892 826 862 804 c 128,-1,43
 832 782 832 782 780.5 746 c 128,-1,44
 729 710 729 710 700 689 c 0,45,46
 399 468 399 468 275 247 c 1,47,-1
 873 247 l 2,48,49
 901 247 901 247 920.5 255.5 c 128,-1,50
 940 264 940 264 948 273.5 c 128,-1,51
 956 283 956 283 968 303 c 0,52,53
 1002 359 1002 359 1012 425 c 0,54,55
 1019 470 1019 470 1047 470 c 0,56,57
 1065 470 1065 470 1072.5 453.5 c 128,-1,58
 1080 437 1080 437 1080 420 c 0,59,60
 1080 354 1080 354 1054 287 c 2,61,-1
 947 0 l 1,62,-1
 74 0 l 1,0,-1
EndSplineSet
Substitution2: "'dnom' Denominators-1" two.dnom
Substitution2: "'subs' Subscript Forms-1" twoinferior
Substitution2: "'sups' Superscript Forms-1" twosuperior
AlternateSubs2: "'aalt' Access All Alternates-1" twosuperior twooldstyle
Substitution2: "'onum' Oldstyle Figures-1" twooldstyle
EndChar

StartChar: three
Encoding: 51 51 19
Width: 1180
VWidth: 2078
Flags: W
HStem: -35 77<432.3 695.161> 715 125<401.736 561.335> 739 77<450.57 682.573> 1417 77<435.266 692.916>
VStem: 80 278<130.587 327.738> 145 216<1141.86 1314.92> 788 249<1003.29 1301.41> 835 258<214.824 560.062>
LayerCount: 3
Fore
SplineSet
80 256 m 0xb9
 80 318 124 360 210 360 c 0
 328 360 346 289 358 228 c 0
 372 108 437 42 556 42 c 0
 748 42 835 189 835 406 c 0
 835 609 741 739 570 739 c 0xb9
 555 739 528 733 505 726 c 0
 484 720 462 715 450 715 c 0
 425 715 400 735 400 778 c 0
 400 821 424 840 448 840 c 0xd9
 460 840 480 835 500 829 c 0
 522 822 548 816 562 816 c 0
 705 816 788 959 788 1149 c 0
 788 1319 703 1417 570 1417 c 0
 425 1417 361 1327 361 1265 c 0
 361 1238 368 1221 385 1203 c 0
 411 1176 422 1156 422 1116 c 0
 422 1083 381 1041 308 1041 c 0
 212 1041 145 1106 145 1179 c 0
 145 1336 321 1494 590 1494 c 0
 881 1494 1037 1321 1037 1154 c 0xb6
 1037 967 868 844 665 794 c 9
 665 782 l 17
 918 750 1093 593 1093 404 c 0
 1093 135 870 -35 547 -35 c 0
 265 -35 80 97 80 256 c 0xb9
EndSplineSet
Validated: 19457
Layer: 2
SplineSet
80 256 m 0,0,1
 80 304 80 304 113.5 332 c 128,-1,2
 147 360 147 360 210 360 c 0,3,4
 244 360 244 360 269.5 351.5 c 128,-1,5
 295 343 295 343 309.5 331.5 c 128,-1,6
 324 320 324 320 334.5 300 c 128,-1,7
 345 280 345 280 349 265.5 c 128,-1,8
 353 251 353 251 358 228 c 0,9,10
 380 42 380 42 556 42 c 0,11,12
 695 42 695 42 765 139.5 c 128,-1,13
 835 237 835 237 835 406 c 0,14,15
 835 560 835 560 766 649.5 c 128,-1,16
 697 739 697 739 570 739 c 0,17,18
 548 739 548 739 505 726 c 0,19,20
 466 715 466 715 450 715 c 0,21,22
 430 715 430 715 415 731.5 c 128,-1,23
 400 748 400 748 400 778 c 128,-1,24
 400 808 400 808 414 824 c 128,-1,25
 428 840 428 840 448 840 c 0,26,27
 463 840 463 840 500 829 c 0,28,29
 541 816 541 816 562 816 c 0,30,31
 667 816 667 816 727.5 909.5 c 128,-1,32
 788 1003 788 1003 788 1149 c 0,33,34
 788 1275 788 1275 729.5 1346 c 128,-1,35
 671 1417 671 1417 570 1417 c 0,36,37
 471 1417 471 1417 416 1368.5 c 128,-1,38
 361 1320 361 1320 361 1265 c 0,39,40
 361 1228 361 1228 385 1203 c 0,41,42
 422 1165 422 1165 422 1116 c 0,43,44
 422 1088 422 1088 390.5 1064.5 c 128,-1,45
 359 1041 359 1041 308 1041 c 0,46,47
 238 1041 238 1041 191.5 1082 c 128,-1,48
 145 1123 145 1123 145 1179 c 0,49,50
 145 1303 145 1303 270.5 1398.5 c 128,-1,51
 396 1494 396 1494 590 1494 c 0,52,53
 695 1494 695 1494 782 1464.5 c 128,-1,54
 869 1435 869 1435 923.5 1386.5 c 128,-1,55
 978 1338 978 1338 1007.5 1278 c 128,-1,56
 1037 1218 1037 1218 1037 1154 c 0,57,58
 1037 1021 1037 1021 932.5 927.5 c 128,-1,59
 828 834 828 834 665 794 c 1,60,-1
 665 782 l 1,61,62
 854 758 854 758 973.5 652 c 128,-1,63
 1093 546 1093 546 1093 404 c 0,64,65
 1093 204 1093 204 942 84.5 c 128,-1,66
 791 -35 791 -35 547 -35 c 0,67,68
 340 -35 340 -35 210 49.5 c 128,-1,69
 80 134 80 134 80 256 c 0,0,1
EndSplineSet
Substitution2: "'dnom' Denominators-1" three.dnom
Substitution2: "'subs' Subscript Forms-1" threeinferior
Substitution2: "'sups' Superscript Forms-1" threesuperior
AlternateSubs2: "'aalt' Access All Alternates-1" threesuperior threeoldstyle
Substitution2: "'onum' Oldstyle Figures-1" threeoldstyle
EndChar

StartChar: four
Encoding: 52 52 20
Width: 1180
Flags: W
HStem: -3 21G<624 881> 438 131<155 642 864 1114.35> 1450 20G<704.783 864>
VStem: 642 222<-1.16602 438 569 1229>
DStem2: 38 512 155 569 0.579386 0.815054<114.246 934.342>
LayerCount: 3
Fore
SplineSet
38 438 m 1
 38 512 l 1
 719 1470 l 1
 864 1470 l 1
 864 569 l 1
 989 569 l 2
 1038 569 1081 577 1116 589 c 9
 1116 419 l 17
 1081 431 1038 438 989 438 c 2
 864 438 l 1
 864 138 l 2
 864 83 870 36 881 -3 c 9
 624 -3 l 17
 635 36 642 83 642 138 c 2
 642 438 l 1
 38 438 l 1
155 569 m 1
 642 569 l 1
 642 1229 l 1
 155 569 l 1
EndSplineSet
Validated: 19457
Layer: 2
SplineSet
38 438 m 1,0,-1
 38 512 l 1,1,-1
 719 1470 l 1,2,-1
 864 1470 l 1,3,-1
 864 569 l 1,4,-1
 989 569 l 2,5,6
 1058 569 1058 569 1116 589 c 1,7,-1
 1116 419 l 1,8,9
 1061 438 1061 438 989 438 c 2,10,-1
 864 438 l 1,11,-1
 864 138 l 2,12,13
 864 57 864 57 881 -3 c 1,14,-1
 624 -3 l 1,15,16
 642 61 642 61 642 138 c 2,17,-1
 642 438 l 1,18,-1
 38 438 l 1,0,-1
155 569 m 1,19,-1
 642 569 l 1,20,-1
 642 1229 l 1,21,-1
 155 569 l 1,19,-1
EndSplineSet
Substitution2: "'dnom' Denominators-1" four.dnom
Substitution2: "'subs' Subscript Forms-1" fourinferior
Substitution2: "'sups' Superscript Forms-1" foursuperior
AlternateSubs2: "'aalt' Access All Alternates-1" foursuperior fouroldstyle
Substitution2: "'onum' Oldstyle Figures-1" fouroldstyle
EndChar

StartChar: five
Encoding: 53 53 21
Width: 1180
VWidth: 2078
Flags: W
HStem: -37 93<335.242 657.713> 816 243<295.958 642.498> 1253 247<286.76 820.425>
VStem: 824.6 79.9199<1505.97 1625.02> 826.76 236.521<306.5 629.605>
DStem2: 162.56 756 272.72 1010 0.0550776 0.998482<259.682 503.086>
LayerCount: 3
Fore
SplineSet
56.7197265625 212 m 0xe8
 56.7197265625 258 81.5595703125 308 130.16015625 308 c 0
 189.559570312 308 206.83984375 277 237.080078125 221 c 0
 294.3203125 114 362.360351562 56 484.400390625 56 c 0
 736.040039062 56 826.759765625 261 826.759765625 439 c 0xe8
 826.759765625 658 689.599609375 816 442.280273438 816 c 0
 363.440429688 816 290 802 204.6796875 756 c 1
 162.559570312 756 l 9
 203.599609375 1500 l 25
 746.83984375 1500 l 18
 799.759765625 1500 815.959960938 1523 824.599609375 1558 c 0
 837.559570312 1606 848.360351562 1626 873.200195312 1626 c 0
 898.040039062 1626 904.51953125 1604 904.51953125 1584 c 0xf0
 904.51953125 1553 894.799804688 1510 882.919921875 1464 c 26
 831.080078125 1253 l 25
 286.759765625 1253 l 25
 272.719726562 1010 l 17
 278.120117188 1006 l 1
 351.559570312 1043 426.080078125 1059 498.440429688 1059 c 0
 920.719726562 1059 1063.28027344 782 1063.28027344 534 c 0
 1063.28027344 212 828.919921875 -37 490.879882812 -37 c 0
 241.400390625 -37 56.7197265625 90 56.7197265625 212 c 0xe8
EndSplineSet
Validated: 19457
Layer: 2
SplineSet
56.7197265625 212 m 0,0,1
 56.7197265625 249.774808971 56.7197265625 249.774808971 76.3169446971 278.887404485 c 128,-1,2
 95.9141628318 308 95.9141628318 308 130.16015625 308 c 0,3,4
 151.875140482 308 151.875140482 308 167.123778825 303.125522578 c 128,-1,5
 182.372417169 298.251045157 182.372417169 298.251045157 195.104019636 284.655727422 c 128,-1,6
 207.835622104 271.060409686 207.835622104 271.060409686 215.420073991 259.063022578 c 128,-1,7
 223.004525879 247.065635471 223.004525879 247.065635471 237.080078125 221 c 0,8,9
 282.137065889 136.774319526 282.137065889 136.774319526 339.251455581 96.3871597628 c 128,-1,10
 396.365845274 56 396.365845274 56 484.400390625 56 c 0,11,12
 557.185824996 56 557.185824996 56 616.332183203 78.9051721378 c 128,-1,13
 675.478541409 101.810344276 675.478541409 101.810344276 713.922426172 139.390827862 c 128,-1,14
 752.366310936 176.971311449 752.366310936 176.971311449 778.418276953 227.449172138 c 128,-1,15
 804.47024297 277.927032827 804.47024297 277.927032827 815.615004297 330.654827862 c 128,-1,16
 826.759765625 383.382622897 826.759765625 383.382622897 826.759765625 439 c 0,17,18
 826.759765625 549.348978204 826.759765625 549.348978204 782.851311506 633.837244551 c 128,-1,19
 738.942857387 718.325510898 738.942857387 718.325510898 651.068284848 767.162755449 c 128,-1,20
 563.19371231 816 563.19371231 816 442.280273438 816 c 0,21,22
 315.96705163 816 315.96705163 816 204.6796875 756 c 1,23,-1
 162.559570312 756 l 1,24,-1
 203.599609375 1500 l 1,25,-1
 746.83984375 1500 l 2,26,27
 772.302496856 1500 772.302496856 1500 788.587013851 1507.61959285 c 128,-1,28
 804.871530846 1515.23918569 804.871530846 1515.23918569 812.372621566 1527.04707382 c 128,-1,29
 819.873712286 1538.85496194 819.873712286 1538.85496194 824.599609375 1558 c 0,30,31
 834.769482138 1595.66630895 834.769482138 1595.66630895 845.007338503 1610.83315447 c 128,-1,32
 855.245194868 1626 855.245194868 1626 873.200195312 1626 c 0,33,34
 904.51953125 1626 904.51953125 1626 904.51953125 1584 c 0,35,36
 904.51953125 1547.63567612 904.51953125 1547.63567612 882.919921875 1464 c 2,37,-1
 831.080078125 1253 l 1,38,-1
 286.759765625 1253 l 1,39,-1
 272.719726562 1010 l 1,40,-1
 278.120117188 1006 l 1,41,42
 383.317171663 1059 383.317171663 1059 498.440429688 1059 c 0,43,44
 575.840695543 1059 575.840695543 1059 643.824300846 1046.69804933 c 128,-1,45
 711.807906149 1034.39609865 711.807906149 1034.39609865 764.972669522 1011.75898192 c 128,-1,46
 818.137432895 989.121865196 818.137432895 989.121865196 862.604307255 958.362111826 c 128,-1,47
 907.071181615 927.602358457 907.071181615 927.602358457 939.342023771 889.415231924 c 128,-1,48
 971.612865927 851.228105391 971.612865927 851.228105391 995.777654729 809.182424326 c 128,-1,49
 1019.94244353 767.136743261 1019.94244353 767.136743261 1034.53400986 720.571481924 c 128,-1,50
 1049.12557618 674.006220587 1049.12557618 674.006220587 1056.20292481 627.846486826 c 128,-1,51
 1063.28027344 581.686753065 1063.28027344 581.686753065 1063.28027344 534 c 0,52,53
 1063.28027344 454.281552325 1063.28027344 454.281552325 1044.22910328 379.976303381 c 128,-1,54
 1025.17793312 305.671054437 1025.17793312 305.671054437 990.126324784 242.773696619 c 128,-1,55
 955.074716447 179.876338802 955.074716447 179.876338802 903.718948838 127.828155232 c 128,-1,56
 852.363181229 75.7799716628 852.363181229 75.7799716628 789.646145384 39.403326249 c 128,-1,57
 726.92910954 3.02668083528 726.92910954 3.02668083528 650.528781374 -16.9866595824 c 128,-1,58
 574.128453208 -37 574.128453208 -37 490.879882812 -37 c 0,59,60
 400.300479595 -37 400.300479595 -37 318.289098691 -15.2080074156 c 128,-1,61
 236.277717786 6.58398516882 236.277717786 6.58398516882 179.749094058 41.7080074156 c 128,-1,62
 123.220470331 76.8320296624 123.220470331 76.8320296624 89.9700984466 121.666992584 c 128,-1,63
 56.7197265625 166.501955506 56.7197265625 166.501955506 56.7197265625 212 c 0,0,1
EndSplineSet
Substitution2: "'dnom' Denominators-1" five.dnom
Substitution2: "'subs' Subscript Forms-1" fiveinferior
Substitution2: "'sups' Superscript Forms-1" fivesuperior
AlternateSubs2: "'aalt' Access All Alternates-1" fiveoldstyle
Substitution2: "'onum' Oldstyle Figures-1" fiveoldstyle
EndChar

StartChar: six
Encoding: 54 54 22
Width: 1180
Flags: W
HStem: -36 85<476.531 710.329> 829 77<508.837 710.449> 1425 69<870.085 928.986>
VStem: 82 266<315.992 664.825> 841 266<253.849 668.54>
LayerCount: 3
Fore
SplineSet
82 574 m 0
 82 1071 505 1421 924 1494 c 1
 948 1425 l 1
 665 1329 443 1122 367 782 c 1
 386 774 l 1
 470 866 570 906 671 906 c 0
 943 906 1107 710 1107 470 c 0
 1107 170 891 -36 607 -36 c 0
 325 -36 82 186 82 574 c 0
348 453 m 0
 348 158 474 49 598 49 c 0
 725 49 841 195 841 456 c 0
 841 672 758 829 592 829 c 0
 473 829 348 680 348 453 c 0
EndSplineSet
Validated: 19457
Layer: 2
SplineSet
82 574 m 0,0,1
 82 719 82 719 129 853 c 128,-1,2
 176 987 176 987 257.5 1092 c 128,-1,3
 339 1197 339 1197 446.5 1281 c 128,-1,4
 554 1365 554 1365 675.5 1418.5 c 128,-1,5
 797 1472 797 1472 924 1494 c 1,6,-1
 948 1425 l 1,7,8
 726 1350 726 1350 574 1189 c 128,-1,9
 422 1028 422 1028 367 782 c 1,10,-1
 386 774 l 1,11,12
 507 906 507 906 671 906 c 0,13,14
 869 906 869 906 988 781 c 128,-1,15
 1107 656 1107 656 1107 470 c 0,16,17
 1107 247 1107 247 964.5 105.5 c 128,-1,18
 822 -36 822 -36 607 -36 c 0,19,20
 501 -36 501 -36 406 5.5 c 128,-1,21
 311 47 311 47 239 123 c 128,-1,22
 167 199 167 199 124.5 315.5 c 128,-1,23
 82 432 82 432 82 574 c 0,0,1
348 453 m 0,24,25
 348 347 348 347 369.5 266.5 c 128,-1,26
 391 186 391 186 427 140 c 128,-1,27
 463 94 463 94 506 71.5 c 128,-1,28
 549 49 549 49 598 49 c 0,29,30
 699 49 699 49 770 158.5 c 128,-1,31
 841 268 841 268 841 456 c 0,32,33
 841 624 841 624 777 726.5 c 128,-1,34
 713 829 713 829 592 829 c 0,35,36
 498 829 498 829 423 722.5 c 128,-1,37
 348 616 348 616 348 453 c 0,24,25
EndSplineSet
Substitution2: "'dnom' Denominators-1" six.dnom
Substitution2: "'subs' Subscript Forms-1" sixinferior
Substitution2: "'sups' Superscript Forms-1" sixsuperior
AlternateSubs2: "'aalt' Access All Alternates-1" sixoldstyle
Substitution2: "'onum' Oldstyle Figures-1" sixoldstyle
EndChar

StartChar: seven
Encoding: 55 55 23
Width: 1180
VWidth: 2078
Flags: W
HStem: -3 21G<346 692.75> 1253 247<262.008 899>
VStem: 128 82<1040.27 1191.64>
LayerCount: 3
Fore
SplineSet
128 1072 m 0
 128 1091 133 1117 142 1151 c 2
 237 1500 l 9
 1061 1500 l 25
 1061 1429 l 17
 866.5 968.700195312 737.5 671.700195312 648 -3 c 9
 346 -3 l 25
 346 41 l 25
 899 1253 l 9
 350 1253 l 2
 313 1253 288 1246 262 1209 c 0
 244 1183 231 1159 210 1081 c 0
 204 1064 193 1040 165 1040 c 0
 141 1040 128 1049 128 1072 c 0
EndSplineSet
Validated: 19457
Layer: 2
SplineSet
128 1072 m 0,0,1
 128 1098 128 1098 142 1151 c 2,2,-1
 237 1500 l 1,3,-1
 1061 1500 l 1,4,-1
 1061 1429 l 1,5,6
 982 1243 982 1243 949.5 1162.5 c 128,-1,7
 917 1082 917 1082 860 926 c 128,-1,8
 803 770 803 770 773.5 654.5 c 128,-1,9
 744 539 744 539 709 366.5 c 128,-1,10
 674 194 674 194 648 -3 c 1,11,-1
 346 -3 l 1,12,-1
 346 41 l 1,13,-1
 899 1253 l 1,14,-1
 350 1253 l 2,15,16
 320 1253 320 1253 300 1244 c 128,-1,17
 280 1235 280 1235 262 1209 c 0,18,19
 233 1168 233 1168 210 1081 c 0,20,21
 196 1040 196 1040 165 1040 c 0,22,23
 128 1040 128 1040 128 1072 c 0,0,1
EndSplineSet
Substitution2: "'dnom' Denominators-1" seven.dnom
Substitution2: "'subs' Subscript Forms-1" seveninferior
Substitution2: "'sups' Superscript Forms-1" sevensuperior
AlternateSubs2: "'aalt' Access All Alternates-1" sevenoldstyle
Substitution2: "'onum' Oldstyle Figures-1" sevenoldstyle
EndChar

StartChar: eight
Encoding: 56 56 24
Width: 1180
Flags: W
HStem: -35 77<457.639 778.953> 1422 72<473.987 731.022>
VStem: 74 252<173.194 472.388> 163 181<1073.37 1278.21> 849 193<1042.23 1316.79> 925 180<224.888 417.389>
LayerCount: 3
Fore
SplineSet
74 328 m 0xe4
 74 508 246 613 439 701 c 1
 439 711 l 1
 232 820 163 930 163 1117 c 0
 163 1341 388 1494 625 1494 c 0
 852 1494 1042 1373 1042 1192 c 0xd8
 1042 1034 917 931 749 828 c 1
 749 821 l 1
 984 717 1105 630 1105 404 c 0
 1105 146 868 -35 600 -35 c 0
 318 -35 74 96 74 328 c 0xe4
326 320 m 0xe4
 326 120 473 42 619 42 c 0
 787 42 925 153 925 303 c 0
 925 430 820.764648438 476.951171875 605 599 c 2
 506 655 l 1
 382 595 326 467 326 320 c 0xe4
344 1190 m 0xd8
 344 1049 528 937 680 858 c 1
 798 931 849 1024 849 1176 c 0
 849 1311 742 1422 610 1422 c 0
 481 1422 344 1324 344 1190 c 0xd8
EndSplineSet
Validated: 19457
Layer: 2
SplineSet
74 328 m 0,0,1
 74 393 74 393 102.5 449 c 128,-1,2
 131 505 131 505 186 550.5 c 128,-1,3
 241 596 241 596 299 630 c 128,-1,4
 357 664 357 664 439 701 c 1,5,-1
 439 711 l 1,6,7
 286 792 286 792 224.5 883.5 c 128,-1,8
 163 975 163 975 163 1117 c 0,9,10
 163 1225 163 1225 229.5 1313 c 128,-1,11
 296 1401 296 1401 401 1447.5 c 128,-1,12
 506 1494 506 1494 625 1494 c 0,13,14
 799 1494 799 1494 920.5 1409.5 c 128,-1,15
 1042 1325 1042 1325 1042 1192 c 0,16,17
 1042 1083 1042 1083 967.5 999.5 c 128,-1,18
 893 916 893 916 749 828 c 1,19,-1
 749 821 l 1,20,21
 826 787 826 787 877 759 c 128,-1,22
 928 731 928 731 975 694.5 c 128,-1,23
 1022 658 1022 658 1048.5 618 c 128,-1,24
 1075 578 1075 578 1090 524.5 c 128,-1,25
 1105 471 1105 471 1105 404 c 0,26,27
 1105 279 1105 279 1034.5 177 c 128,-1,28
 964 75 964 75 849 20 c 128,-1,29
 734 -35 734 -35 600 -35 c 0,30,31
 457 -35 457 -35 339 6.5 c 128,-1,32
 221 48 221 48 147.5 132 c 128,-1,33
 74 216 74 216 74 328 c 0,0,1
326 320 m 0,34,35
 326 248 326 248 351 192.5 c 128,-1,36
 376 137 376 137 418.5 105.5 c 128,-1,37
 461 74 461 74 511.5 58 c 128,-1,38
 562 42 562 42 619 42 c 0,39,40
 746 42 746 42 835.5 117 c 128,-1,41
 925 192 925 192 925 303 c 0,42,43
 925 346 925 346 912 377.5 c 128,-1,44
 899 409 899 409 854.5 444.5 c 128,-1,45
 810 480 810 480 778.5 499.5 c 128,-1,46
 747 519 747 519 656.469901512 570.04776363 c 0,47,48
 623 589 623 589 605 599 c 2,49,-1
 506 655 l 1,50,51
 416 611 416 611 371 523 c 128,-1,52
 326 435 326 435 326 320 c 0,34,35
344 1190 m 0,53,54
 344 1140 344 1140 373.5 1091 c 128,-1,55
 403 1042 403 1042 457 999 c 128,-1,56
 511 956 511 956 562 924.5 c 128,-1,57
 613 893 613 893 680 858 c 1,58,59
 769 913 769 913 809 988 c 128,-1,60
 849 1063 849 1063 849 1176 c 0,61,62
 849 1277 849 1277 779 1349.5 c 128,-1,63
 709 1422 709 1422 610 1422 c 0,64,65
 509 1422 509 1422 426.5 1354.5 c 128,-1,66
 344 1287 344 1287 344 1190 c 0,53,54
EndSplineSet
Substitution2: "'dnom' Denominators-1" eight.dnom
Substitution2: "'subs' Subscript Forms-1" eightinferior
Substitution2: "'sups' Superscript Forms-1" eightsuperior
AlternateSubs2: "'aalt' Access All Alternates-1" eightoldstyle
Substitution2: "'onum' Oldstyle Figures-1" eightoldstyle
EndChar

StartChar: nine
Encoding: 57 57 25
Width: 1180
Flags: W
HStem: -35 69<250.014 308.915> 553 77<468.551 670.163> 1410 85<468.671 702.469>
VStem: 72 266<790.46 1205.15> 831 266<794.175 1143.01>
LayerCount: 3
Fore
SplineSet
72 989 m 0
 72 1289 288 1495 572 1495 c 0
 854 1495 1097 1273 1097 885 c 0
 1097 388 674 38 255 -35 c 1
 231 34 l 1
 514 130 736 337 812 677 c 1
 793 685 l 1
 709 593 609 553 508 553 c 0
 236 553 72 749 72 989 c 0
338 1003 m 0
 338 787 421 630 587 630 c 0
 706 630 831 779 831 1006 c 0
 831 1301 705 1410 581 1410 c 0
 454 1410 338 1264 338 1003 c 0
EndSplineSet
Validated: 19457
Layer: 2
SplineSet
72 989 m 0,0,1
 72 1212 72 1212 214.5 1353.5 c 128,-1,2
 357 1495 357 1495 572 1495 c 0,3,4
 678 1495 678 1495 773 1453.5 c 128,-1,5
 868 1412 868 1412 940 1336 c 128,-1,6
 1012 1260 1012 1260 1054.5 1143.5 c 128,-1,7
 1097 1027 1097 1027 1097 885 c 0,8,9
 1097 740 1097 740 1050 606 c 128,-1,10
 1003 472 1003 472 921.5 367 c 128,-1,11
 840 262 840 262 732.5 178 c 128,-1,12
 625 94 625 94 503.5 40.5 c 128,-1,13
 382 -13 382 -13 255 -35 c 1,14,-1
 231 34 l 1,15,16
 453 109 453 109 605 270 c 128,-1,17
 757 431 757 431 812 677 c 1,18,-1
 793 685 l 1,19,20
 672 553 672 553 508 553 c 0,21,22
 310 553 310 553 191 678 c 128,-1,23
 72 803 72 803 72 989 c 0,0,1
338 1003 m 0,24,25
 338 835 338 835 402 732.5 c 128,-1,26
 466 630 466 630 587 630 c 0,27,28
 681 630 681 630 756 736.5 c 128,-1,29
 831 843 831 843 831 1006 c 0,30,31
 831 1112 831 1112 809.5 1192.5 c 128,-1,32
 788 1273 788 1273 752 1319 c 128,-1,33
 716 1365 716 1365 673 1387.5 c 128,-1,34
 630 1410 630 1410 581 1410 c 0,35,36
 480 1410 480 1410 409 1300.5 c 128,-1,37
 338 1191 338 1191 338 1003 c 0,24,25
EndSplineSet
Substitution2: "'dnom' Denominators-1" nine.dnom
Substitution2: "'subs' Subscript Forms-1" nineinferior
Substitution2: "'sups' Superscript Forms-1" ninesuperior
AlternateSubs2: "'aalt' Access All Alternates-1" nineoldstyle
Substitution2: "'onum' Oldstyle Figures-1" nineoldstyle
EndChar

StartChar: less
Encoding: 60 60 28
Width: 1180
VWidth: 1882
Flags: W
HStem: -16 21G<996.821 1045.84>
DStem2: 82 591 273 528 0.890662 0.454667<141.472 1066.77> 273 528 82 471 0.890662 -0.454667<0 924.847>
LayerCount: 3
Fore
SplineSet
82 471 m 1
 82 591 l 1
 1036 1078 l 1
 1098 947 l 1
 273 528 l 1
 1098 110 l 1
 1036 -16 l 1
 82 471 l 1
EndSplineSet
Validated: 19457
Layer: 2
SplineSet
82 471 m 1,0,-1
 82 591 l 1,1,-1
 1036 1078 l 1,2,-1
 1098 947 l 1,3,-1
 273 528 l 1,4,-1
 1098 110 l 1,5,-1
 1036 -16 l 1,6,-1
 82 471 l 1,0,-1
EndSplineSet
EndChar

StartChar: equal
Encoding: 61 61 29
Width: 1180
VWidth: 2078
Flags: W
HStem: 268 144<56 1124> 616 144<56 1124>
LayerCount: 3
Fore
SplineSet
56 268 m 1
 56 412 l 1
 1124 412 l 1
 1124 268 l 1
 56 268 l 1
56 616 m 1
 56 760 l 1
 1124 760 l 1
 1124 616 l 1
 56 616 l 1
EndSplineSet
Validated: 19457
Layer: 2
SplineSet
56 268 m 1,0,-1
 56 412 l 1,1,-1
 1124 412 l 1,2,-1
 1124 268 l 1,3,-1
 56 268 l 1,0,-1
56 616 m 1,4,-1
 56 760 l 1,5,-1
 1124 760 l 1,6,-1
 1124 616 l 1,7,-1
 56 616 l 1,4,-1
EndSplineSet
EndChar

StartChar: greater
Encoding: 62 62 30
Width: 1180
VWidth: 1882
Flags: W
HStem: -16 21G<134.159 183.179>
DStem2: 144 1078 82 947 0.890662 -0.454667<4.34034 929.642> 82 110 144 -16 0.890662 0.454667<0 924.847>
LayerCount: 3
Fore
SplineSet
1098 471 m 1
 144 -16 l 1
 82 110 l 1
 907 528 l 1
 82 947 l 1
 144 1078 l 1
 1098 591 l 1
 1098 471 l 1
EndSplineSet
Validated: 19457
Layer: 2
SplineSet
1098 471 m 1,0,-1
 144 -16 l 1,1,-1
 82 110 l 1,2,-1
 907 528 l 1,3,-1
 82 947 l 1,4,-1
 144 1078 l 1,5,-1
 1098 591 l 1,6,-1
 1098 471 l 1,0,-1
EndSplineSet
EndChar

StartChar: question
Encoding: 63 63 31
Width: 948
VWidth: 2078
Flags: W
HStem: -24 370<211.188 454.812> 1272 216<209.826 533.14>
VStem: 148 370<39.1884 282.812> 268 128<484 657.959> 700 136<955.793 1195.09>
LayerCount: 3
Fore
SplineSet
148 161 m 0xe8
 148 265 229 346 333 346 c 0
 437 346 518 265 518 161 c 0
 518 57 437 -24 333 -24 c 0
 229 -24 148 57 148 161 c 0xe8
261 1229 m 0
 207 1229 110 1249 110 1346 c 0
 110 1455 224 1488 310 1488 c 0
 610 1488 836 1282 836 989 c 0
 836 765 692 683 481 664 c 0
 403 657 396 644 396 569 c 2
 396 484 l 1
 268 484 l 1
 268 785 l 2xd8
 268 863 302 890 414 890 c 0
 633 890 700 958 700 1068 c 0
 700 1176 628 1272 494 1272 c 0
 449 1272 424 1267 382 1255 c 0
 329 1239 298 1229 261 1229 c 0
EndSplineSet
Validated: 19457
Layer: 2
SplineSet
148 161 m 128,-1,1
 148 239 148 239 201.5 292.5 c 128,-1,2
 255 346 255 346 333 346 c 128,-1,3
 411 346 411 346 464.5 292.5 c 128,-1,4
 518 239 518 239 518 161 c 128,-1,5
 518 83 518 83 464.5 29.5 c 128,-1,6
 411 -24 411 -24 333 -24 c 128,-1,7
 255 -24 255 -24 201.5 29.5 c 128,-1,0
 148 83 148 83 148 161 c 128,-1,1
261 1229 m 0,8,9
 228 1229 228 1229 197 1237 c 128,-1,10
 166 1245 166 1245 138 1273 c 128,-1,11
 110 1301 110 1301 110 1346 c 0,12,13
 110 1385 110 1385 128.5 1414 c 128,-1,14
 147 1443 147 1443 178 1458.5 c 128,-1,15
 209 1474 209 1474 242 1481 c 128,-1,16
 275 1488 275 1488 310 1488 c 0,17,18
 537 1488 537 1488 686.5 1347.5 c 128,-1,19
 836 1207 836 1207 836 989 c 0,20,21
 836 830 836 830 743.5 754.5 c 128,-1,22
 651 679 651 679 481 664 c 0,23,24
 424 659 424 659 410 642.5 c 128,-1,25
 396 626 396 626 396 569 c 2,26,-1
 396 484 l 1,27,-1
 268 484 l 1,28,-1
 268 785 l 2,29,30
 268 844 268 844 299.5 867 c 128,-1,31
 331 890 331 890 414 890 c 0,32,33
 571 890 571 890 635.5 935 c 128,-1,34
 700 980 700 980 700 1068 c 0,35,36
 700 1154 700 1154 645 1213 c 128,-1,37
 590 1272 590 1272 494 1272 c 0,38,39
 442 1272 442 1272 382 1255 c 0,40,41
 296 1229 296 1229 261 1229 c 0,8,9
EndSplineSet
EndChar

StartChar: at
Encoding: 64 64 32
Width: 1920
Flags: W
HStem: -404 76<653.269 1099.57> -16 76<620.966 830.637> 806 76<1016.31 1184.7> 1253 76<877.515 1297.75>
VStem: 78 191<67.5882 616.237> 438 225<63.0792 349.828> 1655 189<447.04 915.427>
LayerCount: 3
Fore
SplineSet
78 345 m 0
 78 967 644 1329 1099 1329 c 0
 1663 1329 1844 990 1844 686 c 0
 1844 226 1427 -16 1168 -16 c 0
 1073 -16 994 39 988 138 c 1
 986 139 l 1
 914 51 793 -16 660 -16 c 0
 572 -16 438 21 438 179 c 0
 438 472 799 882 1109 882 c 0
 1186 882 1248 813 1260 754 c 1
 1268 752 l 1
 1333 867 l 1
 1546 880 l 1
 1240 319 l 2
 1214 272 1195 213 1195 161 c 0
 1195 129 1209 76 1257 76 c 0
 1405 76 1655 263 1655 690 c 0
 1655 988 1462 1253 1078 1253 c 0
 732 1253 269 900 269 350 c 0
 269 -110 540 -328 881 -328 c 0
 1117 -328 1336 -215 1490 -91 c 1
 1554 -155 l 1
 1394 -286 1087 -404 825 -404 c 0
 451 -404 78 -161 78 345 c 0
663 146 m 0
 663 77 691 60 729 60 c 0
 832 60 959 187 1068 337 c 0
 1143 441 1208 584 1208 667 c 0
 1208 732 1188 806 1116 806 c 0
 1014 806 913 691 829 575 c 0
 752 468 663 293 663 146 c 0
EndSplineSet
Validated: 19457
Layer: 2
SplineSet
78 345 m 0,0,1
 78 525 78 525 140.5 685.5 c 128,-1,2
 203 846 203 846 306.5 961 c 128,-1,3
 410 1076 410 1076 542.5 1160.5 c 128,-1,4
 675 1245 675 1245 818 1287 c 128,-1,5
 961 1329 961 1329 1099 1329 c 0,6,7
 1262 1329 1262 1329 1392.5 1291 c 128,-1,8
 1523 1253 1523 1253 1605.5 1190.5 c 128,-1,9
 1688 1128 1688 1128 1743.5 1043 c 128,-1,10
 1799 958 1799 958 1821.5 870 c 128,-1,11
 1844 782 1844 782 1844 686 c 0,12,13
 1844 554 1844 554 1798.5 437 c 128,-1,14
 1753 320 1753 320 1680.5 239.5 c 128,-1,15
 1608 159 1608 159 1518 99.5 c 128,-1,16
 1428 40 1428 40 1338 12 c 128,-1,17
 1248 -16 1248 -16 1168 -16 c 0,18,19
 1094 -16 1094 -16 1043 25 c 128,-1,20
 992 66 992 66 988 138 c 1,21,-1
 986 139 l 1,22,23
 930 70 930 70 843 27 c 128,-1,24
 756 -16 756 -16 660 -16 c 0,25,26
 623 -16 623 -16 587.5 -7 c 128,-1,27
 552 2 552 2 516.5 22 c 128,-1,28
 481 42 481 42 459.5 82.5 c 128,-1,29
 438 123 438 123 438 179 c 0,30,31
 438 265 438 265 477.5 364 c 128,-1,32
 517 463 517 463 585.5 553.5 c 128,-1,33
 654 644 654 644 738.5 718.5 c 128,-1,34
 823 793 823 793 921 837.5 c 128,-1,35
 1019 882 1019 882 1109 882 c 0,36,37
 1164 882 1164 882 1207 842 c 128,-1,38
 1250 802 1250 802 1260 754 c 1,39,-1
 1268 752 l 1,40,-1
 1333 867 l 1,41,-1
 1546 880 l 1,42,-1
 1240 319 l 2,43,44
 1195 238 1195 238 1195 161 c 0,45,46
 1195 130 1195 130 1210 103 c 128,-1,47
 1225 76 1225 76 1257 76 c 0,48,49
 1303 76 1303 76 1355 98 c 128,-1,50
 1407 120 1407 120 1461 169.5 c 128,-1,51
 1515 219 1515 219 1558 288.5 c 128,-1,52
 1601 358 1601 358 1628 463 c 128,-1,53
 1655 568 1655 568 1655 690 c 0,54,55
 1655 804 1655 804 1618 904 c 128,-1,56
 1581 1004 1581 1004 1511 1082.5 c 128,-1,57
 1441 1161 1441 1161 1329.5 1207 c 128,-1,58
 1218 1253 1218 1253 1078 1253 c 0,59,60
 991 1253 991 1253 898 1224 c 128,-1,61
 805 1195 805 1195 714.5 1141.5 c 128,-1,62
 624 1088 624 1088 543.5 1007 c 128,-1,63
 463 926 463 926 402 829 c 128,-1,64
 341 732 341 732 305 607.5 c 128,-1,65
 269 483 269 483 269 350 c 0,66,67
 269 182 269 182 316.5 50.5 c 128,-1,68
 364 -81 364 -81 447.5 -162.5 c 128,-1,69
 531 -244 531 -244 641 -286 c 128,-1,70
 751 -328 751 -328 881 -328 c 0,71,72
 1046 -328 1046 -328 1203.5 -261.5 c 128,-1,73
 1361 -195 1361 -195 1490 -91 c 1,74,-1
 1554 -155 l 1,75,76
 1429 -257 1429 -257 1222 -330.5 c 128,-1,77
 1015 -404 1015 -404 825 -404 c 0,78,79
 711 -404 711 -404 603.5 -375 c 128,-1,80
 496 -346 496 -346 400.5 -285.5 c 128,-1,81
 305 -225 305 -225 233.5 -138 c 128,-1,82
 162 -51 162 -51 120 73.5 c 128,-1,83
 78 198 78 198 78 345 c 0,0,1
663 146 m 0,84,85
 663 98 663 98 680 79 c 128,-1,86
 697 60 697 60 729 60 c 0,87,88
 801 60 801 60 889.5 136.5 c 128,-1,89
 978 213 978 213 1068 337 c 0,90,91
 1126 418 1126 418 1167 512 c 128,-1,92
 1208 606 1208 606 1208 667 c 0,93,94
 1208 725 1208 725 1186.5 765.5 c 128,-1,95
 1165 806 1165 806 1116 806 c 0,96,97
 996 806 996 806 829 575 c 0,98,99
 762 482 762 482 712.5 364.5 c 128,-1,100
 663 247 663 247 663 146 c 0,84,85
EndSplineSet
EndChar

StartChar: A
Encoding: 65 65 33
Width: 1620
VWidth: 2078
Flags: W
HStem: -2 80<77 210.027 429.821 588 929 1095.41 1448.55 1592> 539 93<565 955> 1469 20G<957 964>
DStem2: 304 272 437 291 0.354606 0.935016<-63.9226 329.79 429.158 1020.3>
AnchorPoint: "DotBelow" 776 -20 basechar 0
AnchorPoint: "Bottom" 776 0 basechar 0
AnchorPoint: "TopCap" 860 1580 basechar 0
LayerCount: 3
Fore
SplineSet
77 78 m 1
 105 78 l 2
 198 78 259 151 304 272 c 2
 750 1448 l 1
 751 1452 l 1
 755 1452 l 1
 957 1488 l 1
 962 1489 l 1
 964 1484 l 1
 1362 297 l 2
 1406 182 1447 78 1516 78 c 2
 1592 78 l 1
 1592 -2 l 1
 1538 -2 1388 3 1293 3 c 0
 1198 3 983 -2 929 -2 c 1
 929 78 l 1
 1045 78 l 2
 1074 78 1104 112 1104 160 c 0
 1104 168 1096 208 1089 228 c 2
 984 539 l 1
 530 539 l 1
 437 291 l 2
 417 236 411 184 411 162 c 0
 411 111 461 78 588 78 c 1
 588 -2 l 1
 557 -2 408 3 330 3 c 0
 253 3 107 -2 77 -2 c 1
 77 78 l 1
565 632 m 1
 955 632 l 1
 766 1188 l 1
 565 632 l 1
EndSplineSet
Layer: 2
SplineSet
77 78 m 1,0,-1
 105 78 l 2,1,2
 232 78 232 78 304 272 c 2,3,-1
 750 1448 l 1,4,-1
 751 1452 l 1,5,-1
 755 1452 l 1,6,-1
 957 1488 l 1,7,-1
 962 1489 l 1,8,-1
 964 1484 l 1,9,-1
 1362 297 l 2,10,11
 1379 253 1379 253 1389 229 c 128,-1,12
 1399 205 1399 205 1415 171.5 c 128,-1,13
 1431 138 1431 138 1445 121 c 128,-1,14
 1459 104 1459 104 1477.5 91 c 128,-1,15
 1496 78 1496 78 1516 78 c 2,16,-1
 1592 78 l 1,17,-1
 1592 -2 l 1,18,19
 1570 -2 1570 -2 1458 0.5 c 128,-1,20
 1346 3 1346 3 1293 3 c 128,-1,21
 1240 3 1240 3 1095.5 0.5 c 128,-1,22
 951 -2 951 -2 929 -2 c 1,23,-1
 929 78 l 1,24,-1
 1045 78 l 2,25,26
 1068 78 1068 78 1086 101.5 c 128,-1,27
 1104 125 1104 125 1104 160 c 0,28,29
 1104 185 1104 185 1089 228 c 2,30,-1
 984 539 l 1,31,-1
 530 539 l 1,32,-1
 437 291 l 2,33,34
 411 219 411 219 411 162 c 0,35,36
 411 78 411 78 588 78 c 1,37,-1
 588 -2 l 1,38,39
 578 -2 578 -2 476.5 0.5 c 128,-1,40
 375 3 375 3 330 3 c 0,41,42
 286 3 286 3 186 0.5 c 128,-1,43
 86 -2 86 -2 77 -2 c 1,44,-1
 77 78 l 1,0,-1
565 632 m 1,45,-1
 955 632 l 1,46,-1
 766 1188 l 1,47,-1
 565 632 l 1,45,-1
EndSplineSet
EndChar

StartChar: B
Encoding: 66 66 34
Width: 1476
VWidth: 2078
Flags: W
HStem: -2 94<112 288.635 566.312 969.614> 712 93<562 909.751> 1383 77<112 279.933> 1386 94<564.726 888.628>
VStem: 290 272<95.4889 712 805 1383.17> 1019 302<958.959 1257.8> 1084 320<220.03 541.369>
AnchorPoint: "TopCap" 665 1580 basechar 0
AnchorPoint: "Bottom" 707 0 basechar 0
AnchorPoint: "DotBelow" 707 -20 basechar 0
LayerCount: 3
Fore
SplineSet
112 -2 m 1xda
 112 78 l 1
 221 78 l 2
 267 78 290 105 290 156 c 2
 290 1308 l 2
 290 1359 270 1386 221 1386 c 0xda
 195 1386 163 1385 112 1383 c 1
 112 1460 l 1xea
 326 1476 479 1480 654 1480 c 0
 851 1480 1028 1448 1107 1404 c 0
 1252 1324 1321 1229 1321 1103 c 0xdc
 1321 923 1148 806 901 766 c 1
 901 761 l 1
 1022 749 1117 729 1220 671 c 0
 1341 603 1404 502 1404 390 c 0
 1404 266 1341 162 1243 94 c 0
 1154 32 1008 -2 888 -2 c 2
 751 -2 l 2
 725 -2 527 3 431 3 c 0
 335 3 138 -2 112 -2 c 1xda
562 169 m 2
 562 119 585 92 631 92 c 2
 811 92 l 2
 889 92 977 117 1025 188 c 0
 1064 246 1084 318 1084 387 c 0
 1084 547 1016 616 987 643 c 0
 937 689 859 712 781 712 c 2
 562 712 l 1
 562 169 l 2
562 805 m 1
 766 805 l 2
 837 805 919 838 965 905 c 0
 1005 966 1019 1019 1019 1102 c 0
 1019 1188 983 1258 941 1302 c 0
 895 1350 814 1388 686 1388 c 0
 656 1388 608 1388 562 1383 c 1xec
 562 805 l 1
EndSplineSet
Validated: 19457
Layer: 2
SplineSet
112 -2 m 1,0,-1
 112 78 l 1,1,-1
 221 78 l 2,2,3
 290 78 290 78 290 156 c 2,4,-1
 290 1308 l 2,5,6
 290 1386 290 1386 221 1386 c 0,7,8
 188 1386 188 1386 112 1383 c 1,9,-1
 112 1460 l 1,10,11
 379 1480 379 1480 654 1480 c 0,12,13
 799 1480 799 1480 923 1459 c 128,-1,14
 1047 1438 1047 1438 1107 1404 c 0,15,16
 1216 1344 1216 1344 1268.5 1270.5 c 128,-1,17
 1321 1197 1321 1197 1321 1103 c 0,18,19
 1321 972 1321 972 1207 884.5 c 128,-1,20
 1093 797 1093 797 901 766 c 1,21,-1
 901 761 l 1,22,23
 1000 751 1000 751 1073.5 731.5 c 128,-1,24
 1147 712 1147 712 1220 671 c 0,25,26
 1310 621 1310 621 1357 548 c 128,-1,27
 1404 475 1404 475 1404 390 c 0,28,29
 1404 299 1404 299 1361 222.5 c 128,-1,30
 1318 146 1318 146 1243 94 c 0,31,32
 1178 49 1178 49 1080 23.5 c 128,-1,33
 982 -2 982 -2 888 -2 c 2,34,-1
 751 -2 l 2,35,36
 747 -2 747 -2 617.5 0.5 c 128,-1,37
 488 3 488 3 431 3 c 128,-1,38
 374 3 374 3 245 0.5 c 128,-1,39
 116 -2 116 -2 112 -2 c 1,0,-1
562 169 m 2,40,41
 562 92 562 92 631 92 c 2,42,-1
 811 92 l 2,43,44
 876 92 876 92 933.5 115 c 128,-1,45
 991 138 991 138 1025 188 c 0,46,47
 1084 276 1084 276 1084 387 c 0,48,49
 1084 553 1084 553 987 643 c 0,50,51
 912 712 912 712 781 712 c 2,52,-1
 562 712 l 1,53,-1
 562 169 l 2,40,41
562 805 m 1,54,-1
 766 805 l 2,55,56
 822 805 822 805 877 831 c 128,-1,57
 932 857 932 857 965 905 c 0,58,59
 995 950 995 950 1007 994.5 c 128,-1,60
 1019 1039 1019 1039 1019 1102 c 0,61,62
 1019 1220 1019 1220 941 1302 c 0,63,64
 859 1388 859 1388 686 1388 c 0,65,66
 608 1388 608 1388 562 1383 c 1,67,-1
 562 805 l 1,54,-1
EndSplineSet
EndChar

StartChar: C
Encoding: 67 67 35
Width: 1446
VWidth: 2000
Flags: W
HStem: -28 115<739.715 1083.23> 1373 115<714.635 1063.67>
VStem: 127 332<458.389 1010.45> 1318 70<1093.29 1123.96>
AnchorPoint: "DotBelow" 886 -20 basechar 0
AnchorPoint: "Bottom" 886 0 basechar 0
AnchorPoint: "TopCap" 836 1580 basechar 0
LayerCount: 3
Fore
SplineSet
127 720 m 0
 127 952 199 1144 339 1288 c 0
 463 1416 631 1488 815 1488 c 0
 898 1488 1002 1472 1059 1451 c 0
 1107 1433 1159 1419 1193 1419 c 0
 1231 1419 1251 1437 1266 1488 c 1
 1328 1488 l 1
 1388 1098 l 1
 1318 1075 l 17
 1219 1225 1078 1373 895 1373 c 0
 733 1373 606 1284 529 1132 c 0
 469 1015 459 878 459 736 c 0
 459 520 502 343 613 223 c 0
 701 128 827 87 919 87 c 0
 1140 87 1267 180 1388 334 c 9
 1427 297 l 17
 1297 97 1084 -28 850 -28 c 0
 664 -28 506 28 382 136 c 0
 228 270 127 484 127 720 c 0
EndSplineSet
Validated: 19457
Layer: 2
SplineSet
127 720 m 0,0,1
 127 1070 127 1070 339 1288 c 0,2,3
 432 1384 432 1384 555 1436 c 128,-1,4
 678 1488 678 1488 815 1488 c 0,5,6
 877 1488 877 1488 946.5 1477.5 c 128,-1,7
 1016 1467 1016 1467 1059 1451 c 0,8,9
 1144 1419 1144 1419 1193 1419 c 0,10,11
 1222 1419 1222 1419 1238.5 1434.5 c 128,-1,12
 1255 1450 1255 1450 1266 1488 c 1,13,-1
 1328 1488 l 1,14,-1
 1388 1098 l 1,15,-1
 1318 1075 l 1,16,17
 1121 1373 1121 1373 895 1373 c 0,18,19
 775 1373 775 1373 681.5 1310.5 c 128,-1,20
 588 1248 588 1248 529 1132 c 0,21,22
 459 996 459 996 459 736 c 0,23,24
 459 389 459 389 613 223 c 0,25,26
 675 156 675 156 759.5 121.5 c 128,-1,27
 844 87 844 87 919 87 c 0,28,29
 1076 87 1076 87 1183 148 c 128,-1,30
 1290 209 1290 209 1388 334 c 1,31,-1
 1427 297 l 1,32,33
 1329 146 1329 146 1176.5 59 c 128,-1,34
 1024 -28 1024 -28 850 -28 c 0,35,36
 570 -28 570 -28 382 136 c 0,37,38
 264 238 264 238 195.5 392 c 128,-1,39
 127 546 127 546 127 720 c 0,0,1
EndSplineSet
EndChar

StartChar: D
Encoding: 68 68 36
Width: 1708
VWidth: 2078
Flags: W
HStem: -2 94<112 288.635 566.156 1045.49> 1386 94<520.788 973.528>
VStem: 290 272<95.4889 1372.11> 1285 332<464.45 973.996>
AnchorPoint: "TopCap" 697 1580 basechar 0
AnchorPoint: "DotBelow" 713 -20 basechar 0
AnchorPoint: "Bottom" 713 0 basechar 0
LayerCount: 3
Fore
SplineSet
112 -2 m 1
 112 78 l 1
 221 78 l 2
 267 78 290 105 290 156 c 2
 290 1306 l 2
 290 1357 270 1386 221 1386 c 0
 184 1386 152 1384 113 1379 c 1
 112 1456 l 1
 259 1470 465 1480 568 1480 c 0
 816 1480 1110 1470 1327 1308 c 0
 1501 1178 1617 970 1617 730 c 0
 1617 482 1520 284 1354 156 c 0
 1228 60 1064 -2 858 -2 c 2
 730 -2 l 2
 705 -2 513 3 421 3 c 0
 329 3 137 -2 112 -2 c 1
562 170 m 2
 562 119 584 92 630 92 c 10
 845 92 l 18
 1183 92 1285 373 1285 730 c 0
 1285 910 1243 1119 1116 1248 c 0
 998 1367 840 1388 692 1388 c 0
 608 1388 562 1368 562 1265 c 2
 562 170 l 2
EndSplineSet
Validated: 19457
Layer: 2
SplineSet
112 -2 m 1,0,-1
 112 78 l 1,1,-1
 221 78 l 2,2,3
 290 78 290 78 290 156 c 2,4,-1
 290 1306 l 2,5,6
 290 1386 290 1386 221 1386 c 0,7,8
 168 1386 168 1386 113 1379 c 1,9,-1
 112 1456 l 1,10,11
 364 1480 364 1480 568 1480 c 0,12,13
 658 1480 658 1480 723 1478 c 128,-1,14
 788 1476 788 1476 878.5 1466 c 128,-1,15
 969 1456 969 1456 1039 1438.5 c 128,-1,16
 1109 1421 1109 1421 1186.5 1388 c 128,-1,17
 1264 1355 1264 1355 1327 1308 c 0,18,19
 1461 1208 1461 1208 1539 1057 c 128,-1,20
 1617 906 1617 906 1617 730 c 0,21,22
 1617 547 1617 547 1548.5 400 c 128,-1,23
 1480 253 1480 253 1354 156 c 0,24,25
 1147 -2 1147 -2 858 -2 c 2,26,-1
 730 -2 l 2,27,28
 726 -2 726 -2 600.5 0.5 c 128,-1,29
 475 3 475 3 421 3 c 128,-1,30
 367 3 367 3 241.5 0.5 c 128,-1,31
 116 -2 116 -2 112 -2 c 1,0,-1
562 170 m 2,32,33
 562 92 562 92 630 92 c 2,34,-1
 845 92 l 2,35,36
 1285 92 1285 92 1285 730 c 0,37,38
 1285 881 1285 881 1245 1019.5 c 128,-1,39
 1205 1158 1205 1158 1116 1248 c 0,40,41
 1035 1329 1035 1329 929.5 1358.5 c 128,-1,42
 824 1388 824 1388 692 1388 c 0,43,44
 624 1388 624 1388 593 1363 c 128,-1,45
 562 1338 562 1338 562 1265 c 2,46,-1
 562 170 l 2,32,33
EndSplineSet
EndChar

StartChar: E
Encoding: 69 69 37
Width: 1466
VWidth: 2078
Flags: W
HStem: -2 94<112 288.635 566.328 1113.34> 711 92<562 844.347> 1368 94<112 288.635 566.328 1048.02>
VStem: 290 272<95.4889 711 803 1364.51> 951 72<480 583.588 935.469 1034> 1279 65<1100.05 1126.5> 1340 84<357.109 418.755>
AnchorPoint: "DotBelow" 764 -32 basechar 0
AnchorPoint: "Bottom" 764 0 basechar 0
AnchorPoint: "TopCap" 736 1580 basechar 0
LayerCount: 3
Fore
SplineSet
112 -2 m 1xfa
 112 78 l 1
 221 78 l 2
 267 78 290 105 290 156 c 2
 290 1304 l 2
 290 1355 267 1382 221 1382 c 2
 112 1382 l 1
 112 1462 l 1
 136 1462 317 1457 405 1457 c 0
 493 1457 674 1462 698 1462 c 2
 1253 1462 l 1
 1344 1106 l 1
 1279 1079 l 1xfc
 1229 1156 1202 1208 1104 1288 c 0
 1035 1344 941 1368 851 1368 c 2
 632 1368 l 2
 585 1368 562 1341 562 1291 c 2
 562 803 l 1
 726 803 l 2
 825 803 919 886 951 1034 c 1
 1023 1034 l 1
 1023 480 l 1
 951 480 l 1
 937 604 833 711 726 711 c 2
 562 711 l 1
 562 169 l 2
 562 119 585 92 632 92 c 2
 899 92 l 2
 989 92 1109 112 1177 184 c 0
 1241 251 1283 319 1340 437 c 1
 1424 415 l 1
 1338 -2 l 1
 693 -2 l 2
 669 -2 489 3 402 3 c 0
 315 3 136 -2 112 -2 c 1xfa
EndSplineSet
Layer: 2
SplineSet
112 -2 m 1,0,-1
 112 78 l 1,1,-1
 221 78 l 2,2,3
 290 78 290 78 290 156 c 2,4,-1
 290 1304 l 2,5,6
 290 1382 290 1382 221 1382 c 2,7,-1
 112 1382 l 1,8,-1
 112 1462 l 1,9,10
 116 1462 116 1462 234.5 1459.5 c 128,-1,11
 353 1457 353 1457 405 1457 c 128,-1,12
 457 1457 457 1457 575.5 1459.5 c 128,-1,13
 694 1462 694 1462 698 1462 c 2,14,-1
 1253 1462 l 1,15,-1
 1344 1106 l 1,16,-1
 1279 1079 l 1,17,18
 1274 1087 1274 1087 1259 1110 c 128,-1,19
 1244 1133 1244 1133 1239 1141 c 128,-1,20
 1234 1149 1234 1149 1220.5 1167.5 c 128,-1,21
 1207 1186 1207 1186 1197.5 1197 c 128,-1,22
 1188 1208 1188 1208 1173 1224.5 c 128,-1,23
 1158 1241 1158 1241 1141.5 1256 c 128,-1,24
 1125 1271 1125 1271 1104 1288 c 0,25,26
 1005 1368 1005 1368 851 1368 c 2,27,-1
 632 1368 l 2,28,29
 562 1368 562 1368 562 1291 c 2,30,-1
 562 803 l 1,31,-1
 726 803 l 2,32,33
 803 803 803 803 865.5 864.5 c 128,-1,34
 928 926 928 926 951 1034 c 1,35,-1
 1023 1034 l 1,36,-1
 1023 480 l 1,37,-1
 951 480 l 1,38,39
 940 573 940 573 873 642 c 128,-1,40
 806 711 806 711 726 711 c 2,41,-1
 562 711 l 1,42,-1
 562 169 l 2,43,44
 562 92 562 92 632 92 c 2,45,-1
 899 92 l 2,46,47
 1090 92 1090 92 1177 184 c 0,48,49
 1260 270 1260 270 1340 437 c 1,50,-1
 1424 415 l 1,51,-1
 1338 -2 l 1,52,-1
 693 -2 l 2,53,54
 689 -2 689 -2 571 0.5 c 128,-1,55
 453 3 453 3 402 3 c 128,-1,56
 351 3 351 3 233.5 0.5 c 128,-1,57
 116 -2 116 -2 112 -2 c 1,0,-1
EndSplineSet
EndChar

StartChar: F
Encoding: 70 70 38
Width: 1339
VWidth: 2078
Flags: W
HStem: -2 79<112 283.919 567.869 739> 711 92<562 844.347> 1368 94<112 288.635 566.328 1048.02>
VStem: 290 272<80.3169 711 803 1364.51> 951 72<480 583.588 935.469 1034> 1279 65<1100.05 1126.5>
AnchorPoint: "Bottom" 426 0 basechar 0
AnchorPoint: "DotBelow" 426 -20 basechar 0
AnchorPoint: "TopCap" 757 1580 basechar 0
LayerCount: 3
Fore
SplineSet
112 -2 m 1
 112 77 l 1
 221 77 l 2
 267 77 290 104 290 155 c 2
 290 1304 l 2
 290 1355 267 1382 221 1382 c 2
 112 1382 l 1
 112 1462 l 1
 136 1462 317 1457 405 1457 c 0
 493 1457 674 1462 698 1462 c 2
 1253 1462 l 1
 1344 1106 l 1
 1279 1079 l 1
 1229 1156 1202 1208 1104 1288 c 0
 1035 1344 941 1368 851 1368 c 2
 632 1368 l 2
 585 1368 562 1341 562 1291 c 2
 562 803 l 1
 726 803 l 2
 825 803 919 886 951 1034 c 1
 1023 1034 l 1
 1023 480 l 1
 951 480 l 1
 937 604 833 711 726 711 c 2
 562 711 l 1
 562 154 l 2
 562 104 584 77 630 77 c 2
 739 77 l 1
 739 -2 l 1
 713 -2 520 3 426 3 c 0
 332 3 138 -2 112 -2 c 1
EndSplineSet
Validated: 19457
Layer: 2
SplineSet
112 -2 m 1,0,-1
 112 77 l 1,1,-1
 221 77 l 2,2,3
 290 77 290 77 290 155 c 2,4,-1
 290 1304 l 2,5,6
 290 1382 290 1382 221 1382 c 2,7,-1
 112 1382 l 1,8,-1
 112 1462 l 1,9,10
 116 1462 116 1462 234.5 1459.5 c 128,-1,11
 353 1457 353 1457 405 1457 c 128,-1,12
 457 1457 457 1457 575.5 1459.5 c 128,-1,13
 694 1462 694 1462 698 1462 c 2,14,-1
 1253 1462 l 1,15,-1
 1344 1106 l 1,16,-1
 1279 1079 l 1,17,18
 1274 1087 1274 1087 1259 1110 c 128,-1,19
 1244 1133 1244 1133 1239 1141 c 128,-1,20
 1234 1149 1234 1149 1220.5 1167.5 c 128,-1,21
 1207 1186 1207 1186 1197.5 1197 c 128,-1,22
 1188 1208 1188 1208 1173 1224.5 c 128,-1,23
 1158 1241 1158 1241 1141.5 1256 c 128,-1,24
 1125 1271 1125 1271 1104 1288 c 0,25,26
 1005 1368 1005 1368 851 1368 c 2,27,-1
 632 1368 l 2,28,29
 562 1368 562 1368 562 1291 c 2,30,-1
 562 803 l 1,31,-1
 726 803 l 2,32,33
 803 803 803 803 865.5 864.5 c 128,-1,34
 928 926 928 926 951 1034 c 1,35,-1
 1023 1034 l 1,36,-1
 1023 480 l 1,37,-1
 951 480 l 1,38,39
 940 573 940 573 873 642 c 128,-1,40
 806 711 806 711 726 711 c 2,41,-1
 562 711 l 1,42,-1
 562 154 l 2,43,44
 562 77 562 77 630 77 c 2,45,-1
 739 77 l 1,46,-1
 739 -2 l 1,47,48
 734 -2 734 -2 608 0.5 c 128,-1,49
 482 3 482 3 426 3 c 128,-1,50
 370 3 370 3 243 0.5 c 128,-1,51
 116 -2 116 -2 112 -2 c 1,0,-1
EndSplineSet
EndChar

StartChar: G
Encoding: 71 71 39
Width: 1611
VWidth: 2000
Flags: W
HStem: -28 115<729.873 1024.47> 603 78<938 1108.16 1393.87 1566> 1373 115<714.635 1063.67>
VStem: 127 332<467.456 1010.45> 1116 272<179.759 599.773> 1311 77<-18 74.8387 1093.29 1137.76>
AnchorPoint: "Bottom" 854 0 basechar 0
AnchorPoint: "DotBelow" 854 -20 basechar 0
AnchorPoint: "TopCap" 836 1580 basechar 0
LayerCount: 3
Fore
SplineSet
127 720 m 0xf4
 127 952 199 1144 339 1288 c 0
 463 1416 631 1488 815 1488 c 0
 898 1488 1002 1472 1059 1451 c 0
 1107 1433 1159 1419 1193 1419 c 0
 1231 1419 1251 1437 1266 1488 c 1
 1328 1488 l 1
 1388 1098 l 1xf4
 1318 1075 l 17
 1219 1225 1078 1373 895 1373 c 0
 733 1373 606 1284 529 1132 c 0
 469 1015 459 878 459 736 c 0
 459 520 501 343 610 223 c 0
 696 128 803 87 893 87 c 0
 1009 87 1116 179 1116 320 c 10
 1116 527 l 18
 1112 577 1093 603 1047 603 c 2
 938 603 l 1
 938 681 l 1
 1566 681 l 1
 1566 603 l 1
 1456 603 l 2
 1410 603 1388 577 1388 524 c 10xf8
 1388 -18 l 25
 1311 -18 l 17
 1307 36 1294 80 1251 80 c 0
 1212 80 1168 59 1114 34 c 0
 1052 5 957 -28 881 -28 c 0
 682 -28 534 28 401 136 c 0
 236 270 127 484 127 720 c 0xf4
EndSplineSet
Layer: 2
SplineSet
127 720 m 0,0,1
 127 1070 127 1070 339 1288 c 0,2,3
 432 1384 432 1384 555 1436 c 128,-1,4
 678 1488 678 1488 815 1488 c 0,5,6
 877 1488 877 1488 946.5 1477.5 c 128,-1,7
 1016 1467 1016 1467 1059 1451 c 0,8,9
 1144 1419 1144 1419 1193 1419 c 0,10,11
 1222 1419 1222 1419 1238.5 1434.5 c 128,-1,12
 1255 1450 1255 1450 1266 1488 c 1,13,-1
 1328 1488 l 1,14,-1
 1388 1098 l 1,15,-1
 1318 1075 l 1,16,17
 1121 1373 1121 1373 895 1373 c 0,18,19
 775 1373 775 1373 681.5 1310.5 c 128,-1,20
 588 1248 588 1248 529 1132 c 0,21,22
 459 996 459 996 459 736 c 0,23,24
 459 389 459 389 610 223 c 0,25,26
 672 155 672 155 746.5 121 c 128,-1,27
 821 87 821 87 893 87 c 0,28,29
 983 87 983 87 1049.5 152.5 c 128,-1,30
 1116 218 1116 218 1116 320 c 2,31,-1
 1116 527 l 2,32,33
 1113 566 1113 566 1097 584.5 c 128,-1,34
 1081 603 1081 603 1047 603 c 2,35,-1
 938 603 l 1,36,-1
 938 681 l 1,37,-1
 1566 681 l 1,38,-1
 1566 603 l 1,39,-1
 1456 603 l 2,40,41
 1388 603 1388 603 1388 524 c 2,42,-1
 1388 -18 l 1,43,-1
 1311 -18 l 1,44,45
 1304 80 1304 80 1251 80 c 0,46,47
 1213 80 1213 80 1114 34 c 0,48,49
 981 -28 981 -28 881 -28 c 0,50,51
 603 -28 603 -28 401 136 c 0,52,53
 275 239 275 239 201 392.5 c 128,-1,54
 127 546 127 546 127 720 c 0,0,1
EndSplineSet
EndChar

StartChar: H
Encoding: 72 72 40
Width: 1696
VWidth: 2078
Flags: W
HStem: -2 79<112 283.919 567.869 739 990 1161.92 1445.87 1618> 700 92<562 1168> 1383 79<112 283.919 567.869 739 990 1161.92 1445.87 1618>
VStem: 290 272<80.3169 700 792 1379.68> 1168 272<80.3169 700 792 1379.68>
AnchorPoint: "DotBelow" 865 -20 basechar 0
AnchorPoint: "Bottom" 865 0 basechar 0
AnchorPoint: "TopCap" 862 1580 basechar 0
LayerCount: 3
Fore
SplineSet
112 -2 m 1
 112 77 l 1
 221 77 l 2
 267 77 290 104 290 155 c 2
 290 1305 l 2
 290 1356 267 1383 221 1383 c 2
 112 1383 l 1
 112 1462 l 1
 138 1462 331 1457 425 1457 c 0
 519 1457 713 1462 739 1462 c 1
 739 1383 l 1
 630 1383 l 2
 584 1383 562 1356 562 1306 c 2
 562 792 l 1
 1168 792 l 1
 1168 1306 l 2
 1168 1356 1145 1383 1099 1383 c 2
 990 1383 l 1
 990 1462 l 1
 1016 1462 1210 1457 1304 1457 c 0
 1398 1457 1592 1462 1618 1462 c 1
 1618 1383 l 1
 1508 1383 l 2
 1462 1383 1440 1356 1440 1305 c 2
 1440 155 l 2
 1440 104 1462 77 1508 77 c 2
 1618 77 l 1
 1618 -2 l 1
 1592 -2 1398 3 1304 3 c 0
 1210 3 1016 -2 990 -2 c 1
 990 77 l 1
 1099 77 l 2
 1145 77 1168 104 1168 154 c 2
 1168 700 l 1
 562 700 l 1
 562 154 l 2
 562 104 584 77 630 77 c 2
 739 77 l 1
 739 -2 l 1
 713 -2 519 3 425 3 c 0
 331 3 138 -2 112 -2 c 1
EndSplineSet
Validated: 19457
Layer: 2
SplineSet
112 -2 m 1,0,-1
 112 77 l 1,1,-1
 221 77 l 2,2,3
 290 77 290 77 290 155 c 2,4,-1
 290 1305 l 2,5,6
 290 1383 290 1383 221 1383 c 2,7,-1
 112 1383 l 1,8,-1
 112 1462 l 1,9,10
 117 1462 117 1462 243.5 1459.5 c 128,-1,11
 370 1457 370 1457 425 1457 c 0,12,13
 481 1457 481 1457 607.5 1459.5 c 128,-1,14
 734 1462 734 1462 739 1462 c 1,15,-1
 739 1383 l 1,16,-1
 630 1383 l 2,17,18
 562 1383 562 1383 562 1306 c 2,19,-1
 562 792 l 1,20,-1
 1168 792 l 1,21,-1
 1168 1306 l 2,22,23
 1168 1383 1168 1383 1099 1383 c 2,24,-1
 990 1383 l 1,25,-1
 990 1462 l 1,26,27
 994 1462 994 1462 1121 1459.5 c 128,-1,28
 1248 1457 1248 1457 1304 1457 c 128,-1,29
 1360 1457 1360 1457 1487 1459.5 c 128,-1,30
 1614 1462 1614 1462 1618 1462 c 1,31,-1
 1618 1383 l 1,32,-1
 1508 1383 l 2,33,34
 1440 1383 1440 1383 1440 1305 c 2,35,-1
 1440 155 l 2,36,37
 1440 77 1440 77 1508 77 c 2,38,-1
 1618 77 l 1,39,-1
 1618 -2 l 1,40,41
 1614 -2 1614 -2 1487 0.5 c 128,-1,42
 1360 3 1360 3 1304 3 c 128,-1,43
 1248 3 1248 3 1121 0.5 c 128,-1,44
 994 -2 994 -2 990 -2 c 1,45,-1
 990 77 l 1,46,-1
 1099 77 l 2,47,48
 1168 77 1168 77 1168 154 c 2,49,-1
 1168 700 l 1,50,-1
 562 700 l 1,51,-1
 562 154 l 2,52,53
 562 77 562 77 630 77 c 2,54,-1
 739 77 l 1,55,-1
 739 -2 l 1,56,57
 734 -2 734 -2 607.5 0.5 c 128,-1,58
 481 3 481 3 425 3 c 0,59,60
 370 3 370 3 243.5 0.5 c 128,-1,61
 117 -2 117 -2 112 -2 c 1,0,-1
EndSplineSet
EndChar

StartChar: I
Encoding: 73 73 41
Width: 818
VWidth: 2078
Flags: W
HStem: -2 79<112 283.919 567.869 740> 1384 79<112 283.919 567.869 740>
VStem: 290 272<80.3169 1380.68>
AnchorPoint: "DotBelow" 426 -20 basechar 0
AnchorPoint: "Bottom" 426 0 basechar 0
AnchorPoint: "TopCap" 426 1580 basechar 0
LayerCount: 3
Fore
SplineSet
112 -2 m 1
 112 77 l 1
 221 77 l 2
 267 77 290 104 290 155 c 2
 290 1306 l 2
 290 1357 267 1384 221 1384 c 2
 112 1384 l 1
 112 1463 l 1
 138 1463 332 1458 426 1458 c 0
 520 1458 714 1463 740 1463 c 1
 740 1384 l 1
 630 1384 l 2
 584 1384 562 1357 562 1306 c 2
 562 155 l 2
 562 104 584 77 630 77 c 2
 740 77 l 1
 740 -2 l 1
 714 -2 520 3 426 3 c 0
 332 3 138 -2 112 -2 c 1
EndSplineSet
Validated: 19457
Layer: 2
SplineSet
112 -2 m 1,0,-1
 112 77 l 1,1,-1
 221 77 l 2,2,3
 290 77 290 77 290 155 c 2,4,-1
 290 1306 l 2,5,6
 290 1384 290 1384 221 1384 c 2,7,-1
 112 1384 l 1,8,-1
 112 1463 l 1,9,10
 116 1463 116 1463 243 1460.5 c 128,-1,11
 370 1458 370 1458 426 1458 c 128,-1,12
 482 1458 482 1458 609 1460.5 c 128,-1,13
 736 1463 736 1463 740 1463 c 1,14,-1
 740 1384 l 1,15,-1
 630 1384 l 2,16,17
 562 1384 562 1384 562 1306 c 2,18,-1
 562 155 l 2,19,20
 562 77 562 77 630 77 c 2,21,-1
 740 77 l 1,22,-1
 740 -2 l 1,23,24
 736 -2 736 -2 609 0.5 c 128,-1,25
 482 3 482 3 426 3 c 128,-1,26
 370 3 370 3 243 0.5 c 128,-1,27
 116 -2 116 -2 112 -2 c 1,0,-1
EndSplineSet
EndChar

StartChar: J
Encoding: 74 74 42
Width: 796
VWidth: 2078
Flags: W
HStem: -472 190<45.7478 248.159> 1384 79<109 280.131 564.081 736>
VStem: 286 272<-98.6638 1380.67>
AnchorPoint: "TopCap" 418 1580 basechar 0
LayerCount: 3
Fore
SplineSet
-148 -271 m 0
 -148 -192 -94 -125 -24 -125 c 0
 16 -125 50.4052734375 -150.90234375 72 -185 c 0
 110 -245 138 -282 177 -282 c 0
 225 -282 255.299717516 -242.100847451 273 -189 c 0
 292 -132 292 -66 292 -9 c 0
 292 19 292 66 289 89 c 0
 286 110 286 152 286 165 c 2
 286 1308 l 2
 286 1357 264 1384 218 1384 c 2
 109 1384 l 1
 109 1463 l 1
 135 1463 329 1458 423 1458 c 0
 517 1458 710 1463 736 1463 c 1
 736 1384 l 1
 627 1384 l 2
 581 1384 558 1357 558 1305 c 2
 558 204 l 2
 558 152 545 -110 442 -267 c 0
 364 -386 254 -472 109 -472 c 0
 -17 -472 -148 -401 -148 -271 c 0
EndSplineSet
Validated: 19457
Layer: 2
SplineSet
-148 -271 m 0,0,1
 -148 -211 -148 -211 -112 -168 c 128,-1,2
 -76 -125 -76 -125 -24 -125 c 0,3,4
 34 -125 34 -125 72 -185 c 0,5,6
 104 -236 104 -236 127 -259 c 128,-1,7
 150 -282 150 -282 177 -282 c 0,8,9
 242 -282 242 -282 273 -189 c 0,10,11
 292 -132 292 -132 292 -9 c 0,12,13
 292 66 292 66 289 89 c 0,14,15
 286 110 286 110 286 165 c 2,16,-1
 286 1308 l 2,17,18
 286 1384 286 1384 218 1384 c 2,19,-1
 109 1384 l 1,20,-1
 109 1463 l 1,21,22
 114 1463 114 1463 241 1460.5 c 128,-1,23
 368 1458 368 1458 423 1458 c 128,-1,24
 478 1458 478 1458 605 1460.5 c 128,-1,25
 732 1463 732 1463 736 1463 c 1,26,-1
 736 1384 l 1,27,-1
 627 1384 l 2,28,29
 558 1384 558 1384 558 1305 c 2,30,-1
 558 204 l 2,31,32
 558 175 558 175 554 128.5 c 128,-1,33
 550 82 550 82 539 10.5 c 128,-1,34
 528 -61 528 -61 503 -136.5 c 128,-1,35
 478 -212 478 -212 442 -267 c 0,36,37
 308 -472 308 -472 109 -472 c 0,38,39
 7 -472 7 -472 -70.5 -417.5 c 128,-1,40
 -148 -363 -148 -363 -148 -271 c 0,0,1
EndSplineSet
EndChar

StartChar: K
Encoding: 75 75 43
Width: 1610
VWidth: 2078
Flags: W
HStem: -2 79<112 283.919 570.235 747 910 1023.77 1438.66 1565> 1383 79<112 283.919 566.344 747 989 1082.7 1306.2 1483>
VStem: 290 272<80.8446 627 763 1379.61>
DStem2: 562 763 657 722 0.708373 0.705838<0 38.356 314.836 769.718> 853 917 657 722 0.582297 -0.812976<44.4001 733.103>
AnchorPoint: "TopCap" 817 1580 basechar 0
AnchorPoint: "DotBelow" 824 -20 basechar 0
AnchorPoint: "Bottom" 824 0 basechar 0
LayerCount: 3
Fore
SplineSet
112 -2 m 1
 112 77 l 1
 221 77 l 2
 267 77 290 104 290 155 c 2
 290 1305 l 2
 290 1356 267 1383 221 1383 c 2
 112 1383 l 1
 112 1462 l 1
 138 1462 334 1457 429 1457 c 0
 524 1457 721 1462 747 1462 c 1
 747 1383 l 1
 633 1383 l 2
 585 1383 562 1359 562 1316 c 2
 562 763 l 1
 842 1041 l 2
 946 1144 1084 1264 1084 1333 c 0
 1084 1375 1033 1383 989 1383 c 1
 989 1462 l 1
 1010 1462 1207 1457 1271 1457 c 0
 1335 1457 1462 1462 1483 1462 c 1
 1483 1383 l 1
 1331 1383 1271 1339 1121 1184 c 2
 853 917 l 1
 1373 191 l 2
 1427 117 1465 77 1565 77 c 1
 1565 -2 l 1
 1529 -2 1345 3 1257 3 c 0
 1169 3 946 0 910 0 c 1
 910 79 l 1
 945 79 l 2
 1000 79 1032 113 1032 142 c 0
 1032 173 1027 205 958 299 c 2
 657 722 l 1
 562 627 l 1
 562 166 l 2
 562 108 585 77 633 77 c 2
 747 77 l 1
 747 -2 l 1
 721 -2 524 3 429 3 c 0
 334 3 138 -2 112 -2 c 1
EndSplineSet
Layer: 2
SplineSet
112 -2 m 1,0,-1
 112 77 l 1,1,-1
 221 77 l 2,2,3
 290 77 290 77 290 155 c 2,4,-1
 290 1305 l 2,5,6
 290 1383 290 1383 221 1383 c 2,7,-1
 112 1383 l 1,8,-1
 112 1462 l 1,9,10
 116 1462 116 1462 244.5 1459.5 c 128,-1,11
 373 1457 373 1457 429 1457 c 128,-1,12
 485 1457 485 1457 614 1459.5 c 128,-1,13
 743 1462 743 1462 747 1462 c 1,14,-1
 747 1383 l 1,15,-1
 633 1383 l 2,16,17
 562 1383 562 1383 562 1316 c 2,18,-1
 562 763 l 1,19,-1
 842 1041 l 2,20,21
 856 1055 856 1055 905 1102 c 128,-1,22
 954 1149 954 1149 974.5 1170.5 c 128,-1,23
 995 1192 995 1192 1026.5 1227.5 c 128,-1,24
 1058 1263 1058 1263 1071 1288 c 128,-1,25
 1084 1313 1084 1313 1084 1333 c 0,26,27
 1084 1383 1084 1383 989 1383 c 1,28,-1
 989 1462 l 1,29,30
 994 1462 994 1462 1114 1459.5 c 128,-1,31
 1234 1457 1234 1457 1271 1457 c 128,-1,32
 1308 1457 1308 1457 1393 1459.5 c 128,-1,33
 1478 1462 1478 1462 1483 1462 c 1,34,-1
 1483 1383 l 1,35,36
 1373 1383 1373 1383 1306 1344.5 c 128,-1,37
 1239 1306 1239 1306 1121 1184 c 2,38,-1
 853 917 l 1,39,-1
 1373 191 l 2,40,41
 1419 128 1419 128 1457 102.5 c 128,-1,42
 1495 77 1495 77 1565 77 c 1,43,-1
 1565 -2 l 1,44,45
 1554 -2 1554 -2 1431 0.5 c 128,-1,46
 1308 3 1308 3 1257 3 c 128,-1,47
 1206 3 1206 3 1064 1.5 c 128,-1,48
 922 0 922 0 910 0 c 1,49,-1
 910 79 l 1,50,-1
 945 79 l 2,51,52
 984 79 984 79 1008 98.5 c 128,-1,53
 1032 118 1032 118 1032 142 c 0,54,55
 1032 170 1032 170 1018.5 202.5 c 128,-1,56
 1005 235 1005 235 958 299 c 2,57,-1
 657 722 l 1,58,-1
 562 627 l 1,59,-1
 562 166 l 2,60,61
 562 77 562 77 633 77 c 2,62,-1
 747 77 l 1,63,-1
 747 -2 l 1,64,65
 743 -2 743 -2 614 0.5 c 128,-1,66
 485 3 485 3 429 3 c 128,-1,67
 373 3 373 3 244.5 0.5 c 128,-1,68
 116 -2 116 -2 112 -2 c 1,0,-1
EndSplineSet
EndChar

StartChar: L
Encoding: 76 76 44
Width: 1456
VWidth: 2078
Flags: W
HStem: -2 94<112 288.635 566.156 1082.1> 1384 79<112 283.919 567.869 739>
VStem: 290 272<95.4889 1380.68> 1335 77<419.668 491.165>
AnchorPoint: "Bottom" 755 0 basechar 0
AnchorPoint: "DotBelow" 757 -32 basechar 0
AnchorPoint: "TopCap" 526 1580 basechar 0
LayerCount: 3
Fore
SplineSet
112 -2 m 1
 112 78 l 1
 221 78 l 2
 267 78 290 105 290 156 c 2
 290 1306 l 2
 290 1357 267 1384 221 1384 c 2
 112 1384 l 1
 112 1463 l 1
 138 1463 332 1458 426 1458 c 0
 520 1458 713 1463 739 1463 c 1
 739 1384 l 1
 630 1384 l 2
 584 1384 562 1357 562 1306 c 2
 562 170 l 2
 562 119 584 92 630 92 c 2
 903 92 l 2
 1039 92 1119 150 1181 220 c 0
 1243 289 1288 397 1335 505 c 1
 1412 488 l 1
 1313 -2 l 1
 684 -2 l 2
 661 -2 484 3 398 3 c 0
 312 3 135 -2 112 -2 c 1
EndSplineSet
Layer: 2
SplineSet
112 -2 m 1,0,-1
 112 78 l 1,1,-1
 221 78 l 2,2,3
 290 78 290 78 290 156 c 2,4,-1
 290 1306 l 2,5,6
 290 1384 290 1384 221 1384 c 2,7,-1
 112 1384 l 1,8,-1
 112 1463 l 1,9,10
 116 1463 116 1463 243 1460.5 c 128,-1,11
 370 1458 370 1458 426 1458 c 128,-1,12
 482 1458 482 1458 608 1460.5 c 128,-1,13
 734 1463 734 1463 739 1463 c 1,14,-1
 739 1384 l 1,15,-1
 630 1384 l 2,16,17
 562 1384 562 1384 562 1306 c 2,18,-1
 562 170 l 2,19,20
 562 92 562 92 630 92 c 2,21,-1
 903 92 l 2,22,23
 1068 92 1068 92 1181 220 c 0,24,25
 1210 252 1210 252 1240.5 306.5 c 128,-1,26
 1271 361 1271 361 1285.5 392.5 c 128,-1,27
 1300 424 1300 424 1335 505 c 1,28,-1
 1412 488 l 1,29,-1
 1313 -2 l 1,30,-1
 684 -2 l 2,31,32
 680 -2 680 -2 564.5 0.5 c 128,-1,33
 449 3 449 3 398 3 c 128,-1,34
 347 3 347 3 231.5 0.5 c 128,-1,35
 116 -2 116 -2 112 -2 c 1,0,-1
EndSplineSet
EndChar

StartChar: M
Encoding: 77 77 45
Width: 1905
VWidth: 2078
Flags: W
HStem: -2 79<113 270.268 413.859 584 1191 1371.44 1655.87 1828> 1383 77<113 284.262 1655.35 1828>
VStem: 291 106<92.9642 1122> 1378 272<80.8446 1257>
DStem2: 573 1460 408 1122 0.344508 -0.938783<260.465 1090.85> 949 436 903 32 0.351542 0.936172<0 914.136>
AnchorPoint: "TopCap" 952 1580 basechar 0
AnchorPoint: "DotBelow" 876 -20 basechar 0
AnchorPoint: "Bottom" 876 0 basechar 0
LayerCount: 3
Fore
SplineSet
113 -2 m 1
 113 77 l 1
 190 77 l 2
 253 77 291 120 291 191 c 2
 291 1305 l 2
 291 1356 268 1383 222 1383 c 2
 113 1383 l 1
 113 1460 l 1
 573 1460 l 1
 949 436 l 1
 1333 1460 l 1
 1828 1460 l 1
 1828 1383 l 1
 1713 1383 l 2
 1667 1383 1650 1356 1650 1305 c 2
 1650 155 l 2
 1650 104 1672 77 1718 77 c 2
 1828 77 l 1
 1828 -2 l 1
 1802 -2 1604 3 1509 3 c 0
 1414 3 1217 -2 1191 -2 c 1
 1191 77 l 1
 1305 77 l 2
 1353 77 1378 104 1378 155 c 2
 1378 1257 l 1
 1363 1257 l 1
 903 32 l 1
 808 32 l 1
 408 1122 l 1
 397 1122 l 1
 397 177 l 2
 397 115 435 77 502 77 c 2
 584 77 l 1
 584 -2 l 1
 569 -2 409 3 348 3 c 0
 287 3 128 -2 113 -2 c 1
EndSplineSet
Layer: 2
SplineSet
113 -2 m 1,0,-1
 113 77 l 1,1,-1
 190 77 l 2,2,3
 237 77 237 77 264 107.5 c 128,-1,4
 291 138 291 138 291 191 c 2,5,-1
 291 1305 l 2,6,7
 291 1383 291 1383 222 1383 c 2,8,-1
 113 1383 l 1,9,-1
 113 1460 l 1,10,-1
 573 1460 l 1,11,-1
 949 436 l 1,12,-1
 1333 1460 l 1,13,-1
 1828 1460 l 1,14,-1
 1828 1383 l 1,15,-1
 1713 1383 l 2,16,17
 1650 1383 1650 1383 1650 1305 c 2,18,-1
 1650 155 l 2,19,20
 1650 77 1650 77 1718 77 c 2,21,-1
 1828 77 l 1,22,-1
 1828 -2 l 1,23,24
 1824 -2 1824 -2 1694.5 0.5 c 128,-1,25
 1565 3 1565 3 1509 3 c 128,-1,26
 1453 3 1453 3 1324 0.5 c 128,-1,27
 1195 -2 1195 -2 1191 -2 c 1,28,-1
 1191 77 l 1,29,-1
 1305 77 l 2,30,31
 1378 77 1378 77 1378 155 c 2,32,-1
 1378 1257 l 1,33,-1
 1363 1257 l 1,34,-1
 903 32 l 1,35,-1
 808 32 l 1,36,-1
 408 1122 l 1,37,-1
 397 1122 l 1,38,-1
 397 177 l 2,39,40
 397 130 397 130 424.5 103.5 c 128,-1,41
 452 77 452 77 502 77 c 2,42,-1
 584 77 l 1,43,-1
 584 -2 l 2,44,45
 582 -2 582 -2 483 0.5 c 128,-1,46
 384 3 384 3 348 3 c 128,-1,47
 312 3 312 3 213.5 0.5 c 128,-1,48
 115 -2 115 -2 113 -2 c 1,0,-1
EndSplineSet
EndChar

StartChar: N
Encoding: 78 78 46
Width: 1640
VWidth: 2078
Flags: W
HStem: -24 21G<1281.2 1379> -2 79<78 237.776 450.224 610> 1384 79<78 228.191 1060 1219.78 1432.22 1592>
VStem: 291 106<124 1115> 1273 106<535 1337>
DStem2: 525 1460 397 1115 0.619979 -0.784618<191.336 1189.52>
AnchorPoint: "DotBelow" 895 -20 basechar 0
AnchorPoint: "Bottom" 896 0 basechar 0
AnchorPoint: "TopCap" 916 1580 basechar 0
LayerCount: 3
Fore
SplineSet
78 -2 m 1
 78 77 l 1
 134 77 l 2
 264 77 291 194 291 265 c 2
 291 1193 l 2
 291 1308 222 1383 117 1383 c 2
 78 1383 l 1
 78 1460 l 1
 525 1460 l 1
 1273 535 l 1
 1273 1196 l 2
 1273 1267 1246 1384 1116 1384 c 2
 1060 1384 l 1
 1060 1463 l 1
 1075 1463 1265 1458 1326 1458 c 0
 1387 1458 1577 1463 1592 1463 c 1
 1592 1384 l 1
 1536 1384 l 2
 1406 1384 1379 1267 1379 1196 c 2
 1379 -24 l 1
 1297 -24 l 1
 397 1115 l 1
 397 265 l 2
 397 194 424 77 554 77 c 2
 610 77 l 1
 610 -2 l 1
 595 -2 405 3 344 3 c 0
 283 3 93 -2 78 -2 c 1
EndSplineSet
Layer: 2
SplineSet
78 -2 m 1,0,-1
 78 77 l 1,1,-1
 134 77 l 2,2,3
 171 77 171 77 200 90 c 128,-1,4
 229 103 229 103 245.5 122.5 c 128,-1,5
 262 142 262 142 273 168.5 c 128,-1,6
 284 195 284 195 287.5 218 c 128,-1,7
 291 241 291 241 291 265 c 2,8,-1
 291 1193 l 2,9,10
 291 1279 291 1279 243.5 1331 c 128,-1,11
 196 1383 196 1383 117 1383 c 2,12,-1
 78 1383 l 1,13,-1
 78 1460 l 1,14,-1
 525 1460 l 1,15,-1
 1273 535 l 1,16,-1
 1273 1196 l 2,17,18
 1273 1220 1273 1220 1269.5 1243 c 128,-1,19
 1266 1266 1266 1266 1255 1292.5 c 128,-1,20
 1244 1319 1244 1319 1227.5 1338.5 c 128,-1,21
 1211 1358 1211 1358 1182 1371 c 128,-1,22
 1153 1384 1153 1384 1116 1384 c 2,23,-1
 1060 1384 l 1,24,-1
 1060 1463 l 2,25,26
 1062 1463 1062 1463 1176 1460.5 c 128,-1,27
 1290 1458 1290 1458 1326 1458 c 128,-1,28
 1362 1458 1362 1458 1476 1460.5 c 128,-1,29
 1590 1463 1590 1463 1592 1463 c 2,30,-1
 1592 1384 l 1,31,-1
 1536 1384 l 2,32,33
 1499 1384 1499 1384 1470 1371 c 128,-1,34
 1441 1358 1441 1358 1424.5 1338.5 c 128,-1,35
 1408 1319 1408 1319 1397 1292.5 c 128,-1,36
 1386 1266 1386 1266 1382.5 1243 c 128,-1,37
 1379 1220 1379 1220 1379 1196 c 2,38,-1
 1379 -24 l 1,39,-1
 1297 -24 l 1,40,-1
 397 1115 l 1,41,-1
 397 265 l 2,42,43
 397 241 397 241 400.5 218 c 128,-1,44
 404 195 404 195 415 168.5 c 128,-1,45
 426 142 426 142 442.5 122.5 c 128,-1,46
 459 103 459 103 488 90 c 128,-1,47
 517 77 517 77 554 77 c 2,48,-1
 610 77 l 1,49,-1
 610 -2 l 2,50,51
 608 -2 608 -2 494 0.5 c 128,-1,52
 380 3 380 3 344 3 c 128,-1,53
 308 3 308 3 194 0.5 c 128,-1,54
 80 -2 80 -2 78 -2 c 1,0,-1
EndSplineSet
EndChar

StartChar: O
Encoding: 79 79 47
Width: 1688
VWidth: 2078
Flags: W
HStem: -28 77<706.077 1016.09> 1411 77<705.551 1015.56>
VStem: 126 332<441.453 1018.55> 1264 332<445.935 1014.06>
AnchorPoint: "DotBelow" 860 -20 basechar 0
AnchorPoint: "Bottom" 860 0 basechar 0
AnchorPoint: "TopCap" 860 1580 basechar 0
LayerCount: 3
Fore
SplineSet
126 730 m 0
 126 986 205 1162 369 1314 c 0
 481 1418 663 1488 861 1488 c 0
 1059 1488 1240 1418 1352 1314 c 0
 1516 1162 1596 986 1596 730 c 0
 1596 474 1516 298 1352 146 c 0
 1240 42 1059 -28 861 -28 c 0
 663 -28 481 42 369 146 c 0
 205 298 126 474 126 730 c 0
458 730 m 0
 458 532 488 302 565 204 c 0
 658 84 771 49 861 49 c 0
 954 49 1063 84 1156 204 c 0
 1233 302 1264 532 1264 730 c 0
 1264 928 1233 1158 1156 1256 c 0
 1063 1376 951 1411 861 1411 c 0
 768 1411 658 1376 565 1256 c 0
 488 1158 458 928 458 730 c 0
EndSplineSet
Validated: 19457
Layer: 2
SplineSet
126 730 m 128,-1,1
 126 919 126 919 185 1058.5 c 128,-1,2
 244 1198 244 1198 369 1314 c 0,3,4
 455 1394 455 1394 585 1441 c 128,-1,5
 715 1488 715 1488 861 1488 c 128,-1,6
 1007 1488 1007 1488 1136.5 1441 c 128,-1,7
 1266 1394 1266 1394 1352 1314 c 0,8,9
 1477 1198 1477 1198 1536.5 1058.5 c 128,-1,10
 1596 919 1596 919 1596 730 c 128,-1,11
 1596 541 1596 541 1536.5 401.5 c 128,-1,12
 1477 262 1477 262 1352 146 c 0,13,14
 1266 66 1266 66 1136.5 19 c 128,-1,15
 1007 -28 1007 -28 861 -28 c 128,-1,16
 715 -28 715 -28 585 19 c 128,-1,17
 455 66 455 66 369 146 c 0,18,19
 244 262 244 262 185 401.5 c 128,-1,0
 126 541 126 541 126 730 c 128,-1,1
458 730 m 128,-1,21
 458 565 458 565 484.5 419 c 128,-1,22
 511 273 511 273 565 204 c 0,23,24
 685 49 685 49 861 49 c 0,25,26
 1036 49 1036 49 1156 204 c 0,27,28
 1210 273 1210 273 1237 419.5 c 128,-1,29
 1264 566 1264 566 1264 730 c 128,-1,30
 1264 894 1264 894 1237 1040.5 c 128,-1,31
 1210 1187 1210 1187 1156 1256 c 0,32,33
 1036 1411 1036 1411 861 1411 c 0,34,35
 685 1411 685 1411 565 1256 c 0,36,37
 511 1187 511 1187 484.5 1041 c 128,-1,20
 458 895 458 895 458 730 c 128,-1,21
EndSplineSet
EndChar

StartChar: P
Encoding: 80 80 48
Width: 1393
VWidth: 2078
Flags: W
HStem: -2 79<112 283.919 567.869 739> 632 93<562 893.53> 1383 77<112 280.412> 1386 94<563.524 896.305>
VStem: 290 272<80.3169 632 725 1382.83> 1039 302<889.257 1229.92>
AnchorPoint: "TopCap" 643 1580 basechar 0
AnchorPoint: "DotBelow" 426 -20 basechar 0
AnchorPoint: "Bottom" 426 0 basechar 0
LayerCount: 3
Fore
SplineSet
112 -2 m 1xdc
 112 77 l 1
 221 77 l 2
 267 77 290 104 290 155 c 2
 290 1308 l 2
 290 1365 265 1386 219 1386 c 0xdc
 196 1386 153 1385 112 1383 c 1
 112 1460 l 1xec
 355 1478 409 1480 644 1480 c 0
 829 1480 961 1465 1065 1425 c 0
 1258 1350 1341 1193 1341 1066 c 0
 1341 949 1290 824 1144 727 c 0
 1023 646 808 632 697 632 c 2
 562 632 l 1
 562 154 l 2
 562 104 584 77 630 77 c 2
 739 77 l 1
 739 -2 l 1
 713 -2 520 3 426 3 c 0
 332 3 138 -2 112 -2 c 1xdc
562 725 m 1
 697 725 l 2
 875 725 1039 800 1039 1059 c 0
 1039 1258 929 1393 676 1393 c 0
 630 1393 592 1392 562 1388 c 1
 562 725 l 1
EndSplineSet
Validated: 19457
Layer: 2
SplineSet
112 -2 m 1,0,-1
 112 77 l 1,1,-1
 221 77 l 2,2,3
 290 77 290 77 290 155 c 2,4,-1
 290 1308 l 2,5,6
 290 1350 290 1350 272.5 1368 c 128,-1,7
 255 1386 255 1386 219 1386 c 0,8,9
 174 1386 174 1386 112 1383 c 1,10,-1
 112 1460 l 1,11,12
 294 1473 294 1473 381 1476.5 c 128,-1,13
 468 1480 468 1480 644 1480 c 0,14,15
 922 1480 922 1480 1065 1425 c 0,16,17
 1201 1372 1201 1372 1271 1271.5 c 128,-1,18
 1341 1171 1341 1171 1341 1066 c 0,19,20
 1341 858 1341 858 1144 727 c 0,21,22
 1064 673 1064 673 938.5 652.5 c 128,-1,23
 813 632 813 632 697 632 c 2,24,-1
 562 632 l 1,25,-1
 562 154 l 2,26,27
 562 77 562 77 630 77 c 2,28,-1
 739 77 l 1,29,-1
 739 -2 l 1,30,31
 734 -2 734 -2 608 0.5 c 128,-1,32
 482 3 482 3 426 3 c 128,-1,33
 370 3 370 3 243 0.5 c 128,-1,34
 116 -2 116 -2 112 -2 c 1,0,-1
562 725 m 1,35,-1
 697 725 l 2,36,37
 768 725 768 725 826 741.5 c 128,-1,38
 884 758 884 758 934 794.5 c 128,-1,39
 984 831 984 831 1011.5 898.5 c 128,-1,40
 1039 966 1039 966 1039 1059 c 0,41,42
 1039 1215 1039 1215 949 1304 c 128,-1,43
 859 1393 859 1393 676 1393 c 0,44,45
 600 1393 600 1393 562 1388 c 1,46,-1
 562 725 l 1,35,-1
EndSplineSet
EndChar

StartChar: Q
Encoding: 81 81 49
Width: 1688
VWidth: 2078
Flags: W
HStem: -426 225<1025.1 1341.43> -28 77<707.372 884> 1411 77<706.551 1016.56>
VStem: 127 332<441.453 1018.55> 1265 332<469.276 1029.56> 1546 32<-49.5535 -42.832>
AnchorPoint: "TopCap" 862 1580 basechar 0
LayerCount: 3
Fore
SplineSet
127 730 m 0xf4
 127 986 206 1162 370 1314 c 0
 482 1418 664 1488 862 1488 c 0
 1060 1488 1241 1420 1353 1319 c 0
 1517 1171 1597 1000 1597 751 c 0xf8
 1597 502 1519 330 1356 183 c 0
 1296 129 1269 104 1138 44 c 0
 1056 7 911 -53 838 -106 c 1
 838 -110 l 1
 877 -128 916 -140 958 -154 c 0
 1058 -188 1108 -201 1210 -201 c 0
 1366 -201 1477 -117 1546 -34 c 1
 1578 -50 l 1
 1520 -230 1376 -426 1200 -426 c 0
 1103 -426 979 -371 879 -290 c 0
 797 -223 756 -195 717 -195 c 0
 688 -195 654 -236 608 -314 c 0
 568 -382 513 -426 476 -426 c 0
 442 -426 396 -406 396 -344 c 0
 396 -254 484 -224 556 -188 c 0
 720 -106 743 -85 888 -33 c 1
 884 -28 l 1
 642 -28 479 42 368 146 c 0
 206 298 127 474 127 730 c 0xf4
459 730 m 0
 459 532 489 302 566 204 c 0
 659 84 772 49 862 49 c 0
 955 49 1064 84 1157 204 c 0
 1234 302 1265 532 1265 730 c 0
 1265 928 1234 1158 1157 1256 c 0
 1064 1376 952 1411 862 1411 c 0
 769 1411 659 1376 566 1256 c 0
 489 1158 459 928 459 730 c 0
EndSplineSet
Validated: 19457
Layer: 2
SplineSet
127 730 m 128,-1,1
 127 919 127 919 186 1058.5 c 128,-1,2
 245 1198 245 1198 370 1314 c 0,3,4
 456 1394 456 1394 586 1441 c 128,-1,5
 716 1488 716 1488 862 1488 c 128,-1,6
 1008 1488 1008 1488 1137.5 1442 c 128,-1,7
 1267 1396 1267 1396 1353 1319 c 0,8,9
 1478 1206 1478 1206 1537.5 1070.5 c 128,-1,10
 1597 935 1597 935 1597 751 c 0,11,12
 1597 566 1597 566 1538.5 430.5 c 128,-1,13
 1480 295 1480 295 1356 183 c 0,14,15
 1319 150 1319 150 1300 135 c 128,-1,16
 1281 120 1281 120 1241 96.5 c 128,-1,17
 1201 73 1201 73 1138 44 c 0,18,19
 1126 39 1126 39 1084 20.5 c 128,-1,20
 1042 2 1042 2 1016 -10 c 128,-1,21
 990 -22 990 -22 953 -40 c 128,-1,22
 916 -58 916 -58 887.5 -74.5 c 128,-1,23
 859 -91 859 -91 838 -106 c 1,24,-1
 838 -110 l 1,25,26
 869 -124 869 -124 958 -154 c 0,27,28
 1038 -181 1038 -181 1087.5 -191 c 128,-1,29
 1137 -201 1137 -201 1210 -201 c 0,30,31
 1407 -201 1407 -201 1546 -34 c 1,32,-1
 1578 -50 l 1,33,34
 1547 -145 1547 -145 1494 -228 c 128,-1,35
 1441 -311 1441 -311 1362.5 -368.5 c 128,-1,36
 1284 -426 1284 -426 1200 -426 c 0,37,38
 1128 -426 1128 -426 1041.5 -389 c 128,-1,39
 955 -352 955 -352 879 -290 c 0,40,41
 814 -237 814 -237 779.5 -216 c 128,-1,42
 745 -195 745 -195 717 -195 c 0,43,44
 678 -195 678 -195 608 -314 c 0,45,46
 579 -364 579 -364 541.5 -395 c 128,-1,47
 504 -426 504 -426 476 -426 c 0,48,49
 445 -426 445 -426 420.5 -406 c 128,-1,50
 396 -386 396 -386 396 -344 c 0,51,52
 396 -325 396 -325 400.5 -309 c 128,-1,53
 405 -293 405 -293 416 -279.5 c 128,-1,54
 427 -266 427 -266 436 -256.5 c 128,-1,55
 445 -247 445 -247 463.5 -236 c 128,-1,56
 482 -225 482 -225 492 -219.5 c 128,-1,57
 502 -214 502 -214 525 -203 c 128,-1,58
 548 -192 548 -192 556 -188 c 0,59,60
 601 -166 601 -166 654.5 -138 c 128,-1,61
 708 -110 708 -110 731.5 -98 c 128,-1,62
 755 -86 755 -86 795.5 -69 c 128,-1,63
 836 -52 836 -52 888 -33 c 1,64,-1
 884 -28 l 1,65,66
 554 -28 554 -28 368 146 c 0,67,68
 244 262 244 262 185.5 401.5 c 128,-1,0
 127 541 127 541 127 730 c 128,-1,1
459 730 m 128,-1,70
 459 565 459 565 485.5 419 c 128,-1,71
 512 273 512 273 566 204 c 0,72,73
 686 49 686 49 862 49 c 0,74,75
 1037 49 1037 49 1157 204 c 0,76,77
 1211 273 1211 273 1238 419.5 c 128,-1,78
 1265 566 1265 566 1265 730 c 128,-1,79
 1265 894 1265 894 1238 1040.5 c 128,-1,80
 1211 1187 1211 1187 1157 1256 c 0,81,82
 1037 1411 1037 1411 862 1411 c 0,83,84
 686 1411 686 1411 566 1256 c 0,85,86
 512 1187 512 1187 485.5 1041 c 128,-1,69
 459 895 459 895 459 730 c 128,-1,70
EndSplineSet
EndChar

StartChar: R
Encoding: 82 82 50
Width: 1640
VWidth: 2078
Flags: W
HStem: -2 79<112 283.919 567.869 740 1436.1 1616> 687 93<562 734.995> 1383 77<112 282.788> 1386 94<564.84 910.474>
VStem: 290 272<80.3169 687 780 1381.91> 1071 302<938.654 1231.32>
AnchorPoint: "DotBelow" 868 -20 basechar 0
AnchorPoint: "Bottom" 867 0 basechar 0
AnchorPoint: "TopCap" 675 1580 basechar 0
LayerCount: 3
Fore
SplineSet
112 -2 m 1xdc
 112 77 l 1
 221 77 l 2
 267 77 290 104 290 155 c 2
 290 1306 l 2
 290 1357 273 1386 210 1386 c 0xdc
 180 1386 151 1385 112 1383 c 1
 112 1460 l 1xec
 354 1478 481 1480 615 1480 c 0
 878 1480 1018 1463 1161 1395 c 0
 1306 1325 1373 1200 1373 1083 c 0
 1373 972 1305 864 1152 790 c 0
 1058 744 955 719 882 709 c 1
 882 694 l 1
 1299 224 l 2
 1339 178 1366 156 1419 125 c 0
 1480 90 1538 77 1616 77 c 1
 1616 0 l 1
 1100 0 l 1
 735 648 l 2
 719 677 702 687 655 687 c 2
 562 687 l 1
 562 154 l 2
 562 104 584 77 630 77 c 2
 740 77 l 1
 740 -2 l 1
 714 -2 520 3 426 3 c 0
 332 3 138 -2 112 -2 c 1xdc
562 780 m 1
 761 780 l 2
 935 780 1071 859 1071 1065 c 0
 1071 1192 1016 1271 919 1337 c 0
 850 1383 761 1393 671 1393 c 0
 634 1393 617 1393 562 1388 c 1
 562 780 l 1
EndSplineSet
Layer: 2
SplineSet
112 -2 m 1,0,-1
 112 77 l 1,1,-1
 221 77 l 2,2,3
 290 77 290 77 290 155 c 2,4,-1
 290 1306 l 2,5,6
 290 1347 290 1347 272.5 1366.5 c 128,-1,7
 255 1386 255 1386 210 1386 c 0,8,9
 171 1386 171 1386 112 1383 c 1,10,-1
 112 1460 l 1,11,12
 381 1480 381 1480 615 1480 c 0,13,14
 819 1480 819 1480 938 1462.5 c 128,-1,15
 1057 1445 1057 1445 1161 1395 c 128,-1,16
 1265 1345 1265 1345 1319 1260.5 c 128,-1,17
 1373 1176 1373 1176 1373 1083 c 0,18,19
 1373 996 1373 996 1318 920 c 128,-1,20
 1263 844 1263 844 1152 790 c 0,21,22
 1027 729 1027 729 882 709 c 1,23,-1
 882 694 l 1,24,-1
 1299 224 l 2,25,26
 1350 165 1350 165 1419 125 c 0,27,28
 1503 77 1503 77 1616 77 c 1,29,-1
 1616 0 l 1,30,-1
 1100 0 l 1,31,-1
 735 648 l 2,32,33
 723 670 723 670 706.5 678.5 c 128,-1,34
 690 687 690 687 655 687 c 2,35,-1
 562 687 l 1,36,-1
 562 154 l 2,37,38
 562 77 562 77 630 77 c 2,39,-1
 740 77 l 1,40,-1
 740 -2 l 1,41,42
 736 -2 736 -2 609 0.5 c 128,-1,43
 482 3 482 3 426 3 c 128,-1,44
 370 3 370 3 243 0.5 c 128,-1,45
 116 -2 116 -2 112 -2 c 1,0,-1
562 780 m 1,46,-1
 761 780 l 2,47,48
 901 780 901 780 986 849 c 128,-1,49
 1071 918 1071 918 1071 1065 c 0,50,51
 1071 1157 1071 1157 1033 1221 c 128,-1,52
 995 1285 995 1285 919 1337 c 0,53,54
 835 1393 835 1393 671 1393 c 0,55,56
 617 1393 617 1393 562 1388 c 1,57,-1
 562 780 l 1,46,-1
EndSplineSet
EndChar

StartChar: S
Encoding: 83 83 51
Width: 1381
VWidth: 2000
Flags: W
HStem: -20 91<542.294 942.323> 1382 106<561.501 913.697>
VStem: 106 84<398.991 437.096> 201 260<1020.83 1265.59> 1084 231<203.542 484.018>
AnchorPoint: "DotBelow" 729 -20 basechar 0
AnchorPoint: "Bottom" 728 0 basechar 0
AnchorPoint: "TopCap" 712 1580 basechar 0
LayerCount: 3
Fore
SplineSet
106 433 m 25
 190 457 l 17
 236 391 292 311 348 262 c 0
 490 137 566 71 743 71 c 0
 912 71 1084 142 1084 360 c 0
 1084 543 888 592 688 645 c 0
 444 710 201 863 201 1114 c 0
 201 1350 467 1488 717 1488 c 0
 776 1488 865 1471 919 1452 c 0
 980 1430 1037 1410 1059 1410 c 0
 1105 1410 1119 1452 1136 1488 c 9
 1197 1488 l 25
 1232 1134 l 25
 1141 1106 l 17
 1100 1176 1040 1257 953 1314 c 24
 873 1367 817 1382 722 1382 c 0
 571 1382 461 1302 461 1140 c 0
 461 966 668 901 852 862 c 0
 1077 815 1315 693 1315 389 c 0
 1315 79 1028 -20 792 -20 c 0
 698 -20 599 -17 499 40 c 0
 434 76 407 90 374 90 c 0
 341 90 295 58 264 -15 c 9
 176 -15 l 25
 106 433 l 25
EndSplineSet
Layer: 2
SplineSet
106 433 m 25,0,-1
 190 457 l 1,1,2
 291 312 291 312 348 262 c 0,3,4
 414 204 414 204 447 177.5 c 128,-1,5
 480 151 480 151 530 121.5 c 128,-1,6
 580 92 580 92 629 81.5 c 128,-1,7
 678 71 678 71 743 71 c 0,8,9
 810 71 810 71 868 86 c 128,-1,10
 926 101 926 101 976 133 c 128,-1,11
 1026 165 1026 165 1055 223.5 c 128,-1,12
 1084 282 1084 282 1084 360 c 0,13,14
 1084 412 1084 412 1061.5 453.5 c 128,-1,15
 1039 495 1039 495 1005.5 522 c 128,-1,16
 972 549 972 549 917.5 572.5 c 128,-1,17
 863 596 863 596 814.5 610.5 c 128,-1,18
 766 625 766 625 697.340712363 642.526137011 c 0,19,20
 691 644 691 644 688 645 c 0,21,22
 592 671 592 671 508.5 711.5 c 128,-1,23
 425 752 425 752 354 809 c 128,-1,24
 283 866 283 866 242 945 c 128,-1,25
 201 1024 201 1024 201 1114 c 0,26,27
 201 1199 201 1199 246.5 1271.5 c 128,-1,28
 292 1344 292 1344 365.5 1390 c 128,-1,29
 439 1436 439 1436 530.5 1462 c 128,-1,30
 622 1488 622 1488 717 1488 c 0,31,32
 817 1488 817 1488 919 1452 c 0,33,34
 1035 1410 1035 1410 1059 1410 c 0,35,36
 1069 1410 1069 1410 1077 1412 c 128,-1,37
 1085 1414 1085 1414 1092 1420 c 128,-1,38
 1099 1426 1099 1426 1103 1429 c 128,-1,39
 1107 1432 1107 1432 1113 1442.5 c 128,-1,40
 1119 1453 1119 1453 1121 1456 c 128,-1,41
 1123 1459 1123 1459 1129 1473 c 128,-1,42
 1135 1487 1135 1487 1136 1488 c 2,43,-1
 1197 1488 l 1,44,-1
 1232 1134 l 1,45,-1
 1141 1106 l 1,46,47
 1060 1244 1060 1244 953 1314 c 0,48,49
 894 1353 894 1353 844 1367.5 c 128,-1,50
 794 1382 794 1382 722 1382 c 0,51,52
 604 1382 604 1382 532.5 1320 c 128,-1,53
 461 1258 461 1258 461 1140 c 0,54,55
 461 1090 461 1090 485 1048 c 128,-1,56
 509 1006 509 1006 545 978 c 128,-1,57
 581 950 581 950 636 926.5 c 128,-1,58
 691 903 691 903 740 889 c 128,-1,59
 789 875 789 875 852 862 c 0,60,61
 924 847 924 847 987 824 c 128,-1,62
 1050 801 1050 801 1112 762.5 c 128,-1,63
 1174 724 1174 724 1217.5 673.5 c 128,-1,64
 1261 623 1261 623 1288 550 c 128,-1,65
 1315 477 1315 477 1315 389 c 0,66,67
 1315 300 1315 300 1283 228 c 128,-1,68
 1251 156 1251 156 1199 110.5 c 128,-1,69
 1147 65 1147 65 1077.5 35 c 128,-1,70
 1008 5 1008 5 937.5 -7.5 c 128,-1,71
 867 -20 867 -20 792 -20 c 0,72,73
 733 -20 733 -20 694.5 -17.5 c 128,-1,74
 656 -15 656 -15 601 -1 c 128,-1,75
 546 13 546 13 499 40 c 0,76,77
 445 70 445 70 421 80 c 128,-1,78
 397 90 397 90 374 90 c 0,79,80
 347 90 347 90 316.5 63 c 128,-1,81
 286 36 286 36 264 -15 c 1,82,-1
 176 -15 l 1,83,-1
 106 433 l 25,0,-1
EndSplineSet
EndChar

StartChar: T
Encoding: 84 84 52
Width: 1532
VWidth: 2078
Flags: W
HStem: -3 79<459 641.131 925.081 1108> 1383 79<375.452 647 919 1190.55>
VStem: 76 68<1083.78 1127.16> 647 272<79.3169 1383> 1422 68<1083.78 1127.16>
CounterMasks: 1 38
AnchorPoint: "DotBelow" 783 -20 basechar 0
AnchorPoint: "Bottom" 783 0 basechar 0
AnchorPoint: "TopCap" 783 1580 basechar 0
LayerCount: 3
Fore
SplineSet
76 1088 m 1
 148 1462 l 1
 498 1462 l 2
 521 1462 698 1457 783 1457 c 0
 868 1457 1045 1462 1068 1462 c 2
 1418 1462 l 1
 1490 1088 l 1
 1422 1068 l 1
 1376 1155 1332 1230 1268 1290 c 0
 1220 1335 1141 1383 1029 1383 c 2
 919 1383 l 1
 919 154 l 2
 919 103 942 76 988 76 c 2
 1108 76 l 1
 1108 -3 l 1
 1070 -3 885 2 783 2 c 0
 681 2 497 -3 459 -3 c 1
 459 76 l 1
 579 76 l 2
 625 76 647 103 647 154 c 2
 647 1383 l 1
 537 1383 l 2
 425 1383 346 1335 298 1290 c 0
 234 1230 190 1155 144 1068 c 1
 76 1088 l 1
EndSplineSet
Layer: 2
SplineSet
76 1088 m 1,0,-1
 148 1462 l 1,1,-1
 498 1462 l 2,2,3
 502 1462 502 1462 617.5 1459.5 c 128,-1,4
 733 1457 733 1457 783 1457 c 128,-1,5
 833 1457 833 1457 948.5 1459.5 c 128,-1,6
 1064 1462 1064 1462 1068 1462 c 2,7,-1
 1418 1462 l 1,8,-1
 1490 1088 l 1,9,-1
 1422 1068 l 1,10,11
 1341 1222 1341 1222 1268 1290 c 0,12,13
 1169 1383 1169 1383 1029 1383 c 2,14,-1
 919 1383 l 1,15,-1
 919 154 l 2,16,17
 919 76 919 76 988 76 c 2,18,-1
 1108 76 l 1,19,-1
 1108 -3 l 1,20,21
 1097 -3 1097 -3 969.5 -0.5 c 128,-1,22
 842 2 842 2 783 2 c 128,-1,23
 724 2 724 2 597 -0.5 c 128,-1,24
 470 -3 470 -3 459 -3 c 1,25,-1
 459 76 l 1,26,-1
 579 76 l 2,27,28
 647 76 647 76 647 154 c 2,29,-1
 647 1383 l 1,30,-1
 537 1383 l 2,31,32
 397 1383 397 1383 298 1290 c 0,33,34
 225 1222 225 1222 144 1068 c 1,35,-1
 76 1088 l 1,0,-1
EndSplineSet
EndChar

StartChar: U
Encoding: 85 85 53
Width: 1635
VWidth: 2078
Flags: W
HStem: -28 98<731.19 1100.01> 1383 79<113 284.919 568.869 740 1114 1285.92 1403.87 1576>
VStem: 291 272<272.326 1379.67> 1292 106<274.025 1379.67>
AnchorPoint: "DotBelow" 895 -20 basechar 0
AnchorPoint: "Bottom" 895 0 basechar 0
AnchorPoint: "TopCap" 904 1580 basechar 0
LayerCount: 3
Fore
SplineSet
113 1383 m 1
 113 1462 l 1
 139 1462 333 1457 427 1457 c 0
 521 1457 714 1462 740 1462 c 1
 740 1383 l 1
 631 1383 l 2
 585 1383 563 1356 563 1305 c 2
 563 462 l 2
 563 342 595 243 655 176 c 0
 717 106 807 70 911 70 c 0
 1011 70 1113 104 1182 175 c 0
 1259 255 1292 369 1292 465 c 2
 1292 1305 l 2
 1292 1356 1269 1383 1223 1383 c 2
 1114 1383 l 1
 1114 1462 l 1
 1129 1462 1262 1457 1345 1457 c 0
 1428 1457 1561 1462 1576 1462 c 1
 1576 1383 l 1
 1466 1383 l 2
 1420 1383 1398 1356 1398 1304 c 2
 1398 479 l 2
 1398 370 1348 200 1247 105 c 0
 1165 28 1028 -28 875 -28 c 0
 697 -28 539 21 436 118 c 0
 338 211 291 349 291 534 c 2
 291 1304 l 2
 291 1356 268 1383 222 1383 c 2
 113 1383 l 1
EndSplineSet
Layer: 2
SplineSet
113 1383 m 1,0,-1
 113 1462 l 1,1,2
 118 1462 118 1462 245 1459.5 c 128,-1,3
 372 1457 372 1457 427 1457 c 128,-1,4
 482 1457 482 1457 609 1459.5 c 128,-1,5
 736 1462 736 1462 740 1462 c 1,6,-1
 740 1383 l 1,7,-1
 631 1383 l 2,8,9
 563 1383 563 1383 563 1305 c 2,10,-1
 563 462 l 2,11,12
 563 279 563 279 655 176 c 0,13,14
 749 70 749 70 911 70 c 0,15,16
 989 70 989 70 1060.5 96.5 c 128,-1,17
 1132 123 1132 123 1182 175 c 0,18,19
 1237 232 1237 232 1264.5 310 c 128,-1,20
 1292 388 1292 388 1292 465 c 2,21,-1
 1292 1305 l 2,22,23
 1292 1383 1292 1383 1223 1383 c 2,24,-1
 1114 1383 l 1,25,-1
 1114 1462 l 1,26,27
 1118 1462 1118 1462 1159 1461 c 128,-1,28
 1200 1460 1200 1460 1254.5 1458.5 c 128,-1,29
 1309 1457 1309 1457 1345 1457 c 128,-1,30
 1381 1457 1381 1457 1435.5 1458.5 c 128,-1,31
 1490 1460 1490 1460 1531 1461 c 128,-1,32
 1572 1462 1572 1462 1576 1462 c 1,33,-1
 1576 1383 l 1,34,-1
 1466 1383 l 2,35,36
 1398 1383 1398 1383 1398 1304 c 2,37,-1
 1398 479 l 2,38,39
 1398 389 1398 389 1358 280.5 c 128,-1,40
 1318 172 1318 172 1247 105 c 0,41,42
 1183 45 1183 45 1084.5 8.5 c 128,-1,43
 986 -28 986 -28 875 -28 c 0,44,45
 591 -28 591 -28 436 118 c 0,46,47
 291 256 291 256 291 534 c 2,48,-1
 291 1304 l 2,49,50
 291 1383 291 1383 222 1383 c 2,51,-1
 113 1383 l 1,0,-1
EndSplineSet
EndChar

StartChar: V
Encoding: 86 86 54
Width: 1677
VWidth: 2078
Flags: W
HStem: -14 21G<812.611 952.473> 1382 80<72 233.993 604.983 750 1133 1286.44 1490.49 1624>
DStem2: 976 327 329 1159 0.386791 -0.922167<-1046.22 0> 976 327 945 -14 0.35001 0.936746<0 1017.37>
AnchorPoint: "TopCap" 933 1574 basechar 0
AnchorPoint: "Bottom" 888 6 basechar 0
AnchorPoint: "DotBelow" 888 -14 basechar 0
LayerCount: 3
Fore
SplineSet
72 1462 m 1
 127 1462 311 1457 417 1457 c 0
 522 1457 696 1462 750 1462 c 1
 750 1382 l 1
 654 1382 l 2
 628 1382 597 1353 597 1303 c 0
 597 1294 601 1250 610 1229 c 2
 976 327 l 1
 1287 1165 l 2
 1306 1218 1311 1266 1311 1289 c 0
 1311 1341 1261 1382 1133 1382 c 1
 1133 1462 l 1
 1162 1462 1320 1457 1389 1457 c 0
 1462 1457 1591 1462 1624 1462 c 1
 1624 1382 l 1
 1592 1382 l 2
 1499 1382 1439 1308 1393 1185 c 2
 945 -14 l 1
 821 -14 l 1
 329 1159 l 2
 255 1336 252 1382 72 1382 c 1
 72 1462 l 1
EndSplineSet
Validated: 19457
Layer: 2
SplineSet
72 1462 m 1,0,1
 93 1462 93 1462 225.5 1459.5 c 128,-1,2
 358 1457 358 1457 417 1457 c 128,-1,3
 476 1457 476 1457 602.5 1459.5 c 128,-1,4
 729 1462 729 1462 750 1462 c 1,5,-1
 750 1382 l 1,6,-1
 654 1382 l 2,7,8
 633 1382 633 1382 615 1360 c 128,-1,9
 597 1338 597 1338 597 1303 c 0,10,11
 597 1259 597 1259 610 1229 c 2,12,-1
 976 327 l 1,13,-1
 1287 1165 l 2,14,15
 1311 1232 1311 1232 1311 1289 c 0,16,17
 1311 1331 1311 1331 1267.5 1356.5 c 128,-1,18
 1224 1382 1224 1382 1133 1382 c 1,19,-1
 1133 1462 l 1,20,21
 1142 1462 1142 1462 1246 1459.5 c 128,-1,22
 1350 1457 1350 1457 1389 1457 c 0,23,24
 1430 1457 1430 1457 1521 1459.5 c 128,-1,25
 1612 1462 1612 1462 1624 1462 c 1,26,-1
 1624 1382 l 1,27,-1
 1592 1382 l 2,28,29
 1525 1382 1525 1382 1477 1332 c 128,-1,30
 1429 1282 1429 1282 1393 1185 c 2,31,-1
 945 -14 l 1,32,-1
 821 -14 l 1,33,-1
 329 1159 l 2,34,35
 278.130789722 1280.67365161 278.130789722 1280.67365161 266.088489544 1301.51994042 c 0,36,37
 234.857955192 1355.58276306 234.857955192 1355.58276306 181.773730334 1370.91678737 c 0,38,39
 143.405214666 1382 143.405214666 1382 72 1382 c 1,40,-1
 72 1462 l 1,0,1
EndSplineSet
EndChar

StartChar: W
Encoding: 87 87 55
Width: 2343
VWidth: 2078
Flags: W
HStem: -14 21G<702 814 1495 1616> 1382 80<54 227.191 594.205 736 867 1035.44 1392.01 1548 1816 1976.91 2164.31 2316>
DStem2: 883 367 814 -10 0.365288 0.930895<0 642.223> 1408 1162 1149 1048 0.310866 -0.950454<-133.46 27.8375 143.889 847.184> 1672 357 1616 -10 0.35001 0.936746<0 995.025>
AnchorPoint: "DotBelow" 1232 -20 basechar 0
AnchorPoint: "Bottom" 1232 0 basechar 0
AnchorPoint: "TopCap" 1206 1580 basechar 0
LayerCount: 3
Fore
SplineSet
54 1462 m 1
 117.712067001 1462 286.755278472 1457 400 1457 c 0
 505.781275952 1457 680.139476166 1462 736 1462 c 1
 736 1382 l 1
 640 1382 l 2
 615 1382 591 1364 591 1314 c 0
 591 1305 595 1262 601 1240 c 2
 883 367 l 1
 1149 1048 l 1
 1112 1161 l 2
 1077 1277 1041 1382 964 1382 c 2
 867 1382 l 1
 867 1462 l 1
 930.712067001 1462 1099.75527847 1457 1213 1457 c 0
 1318.78095977 1457 1492.13279295 1462 1548 1462 c 1
 1548 1382 l 1
 1442 1382 l 2
 1415 1382 1384 1359 1384 1296 c 0
 1384 1266 1396 1203 1408 1162 c 2
 1672 357 l 1
 1970 1169 l 2
 1991 1227 1994 1277 1994 1300 c 0
 1994 1351.30175781 1944.22363281 1382 1816 1382 c 1
 1816 1462 l 1
 1844.56434448 1462 1996.32533573 1457 2064 1457 c 0
 2134.7103727 1457 2284.37945705 1462 2316 1462 c 1
 2316 1382 l 1
 2214.20996094 1382 2128.59535153 1363.72513119 2064 1189 c 2
 1616 -10 l 1
 1615 -14 l 1
 1610 -14 l 1
 1500 -14 l 1
 1496 -14 l 1
 1495 -10 l 1
 1186 938 l 1
 814 -10 l 1
 813 -14 l 1
 809 -14 l 1
 707 -14 l 1
 703 -14 l 1
 702 -10 l 1
 318 1174 l 2
 281 1295 228 1371 159 1371 c 2
 54 1382 l 1
 54 1462 l 1
EndSplineSet
Validated: 19457
Layer: 2
SplineSet
54 1462 m 1,0,1
 80 1462 80 1462 208.5 1459.5 c 128,-1,2
 337 1457 337 1457 400 1457 c 0,3,4
 459 1457 459 1457 586.5 1459.5 c 128,-1,5
 714 1462 714 1462 736 1462 c 1,6,-1
 736 1382 l 1,7,-1
 640 1382 l 2,8,9
 619 1382 619 1382 605 1365.5 c 128,-1,10
 591 1349 591 1349 591 1314 c 0,11,12
 591 1277 591 1277 601 1240 c 2,13,-1
 883 367 l 1,14,-1
 1149 1048 l 1,15,-1
 1112 1161 l 2,16,17
 1099 1203 1099 1203 1090 1229.5 c 128,-1,18
 1081 1256 1081 1256 1067 1288 c 128,-1,19
 1053 1320 1053 1320 1039 1338.5 c 128,-1,20
 1025 1357 1025 1357 1005.5 1369.5 c 128,-1,21
 986 1382 986 1382 964 1382 c 2,22,-1
 867 1382 l 1,23,-1
 867 1462 l 1,24,25
 893 1462 893 1462 1021.5 1459.5 c 128,-1,26
 1150 1457 1150 1457 1213 1457 c 0,27,28
 1272 1457 1272 1457 1399 1459.5 c 128,-1,29
 1526 1462 1526 1462 1548 1462 c 1,30,-1
 1548 1382 l 1,31,-1
 1442 1382 l 2,32,33
 1419 1382 1419 1382 1401.5 1361 c 128,-1,34
 1384 1340 1384 1340 1384 1296 c 0,35,36
 1384 1244 1384 1244 1408 1162 c 2,37,-1
 1672 357 l 1,38,-1
 1970 1169 l 2,39,40
 1994 1235 1994 1235 1994 1300 c 0,41,42
 1994 1382 1994 1382 1816 1382 c 1,43,-1
 1816 1462 l 1,44,45
 1825 1462 1825 1462 1925 1459.5 c 128,-1,46
 2025 1457 2025 1457 2064 1457 c 0,47,48
 2104 1457 2104 1457 2204.5 1459.5 c 128,-1,49
 2305 1462 2305 1462 2316 1462 c 1,50,-1
 2316 1382 l 1,51,52
 2281 1382 2281 1382 2256.5 1379 c 128,-1,53
 2232 1376 2232 1376 2202.5 1364.5 c 128,-1,54
 2173 1353 2173 1353 2151 1332.5 c 128,-1,55
 2129 1312 2129 1312 2106 1276 c 128,-1,56
 2083 1240 2083 1240 2064 1189 c 2,57,-1
 1616 -10 l 1,58,-1
 1615 -14 l 1,59,-1
 1610 -14 l 1,60,-1
 1500 -14 l 1,61,-1
 1496 -14 l 1,62,-1
 1495 -10 l 1,63,-1
 1186 938 l 1,64,-1
 814 -10 l 1,65,-1
 813 -14 l 1,66,-1
 809 -14 l 1,67,-1
 707 -14 l 1,68,-1
 703 -14 l 1,69,-1
 702 -10 l 1,70,-1
 318 1174 l 2,71,72
 258 1371 258 1371 159 1371 c 1,73,-1
 54 1382 l 1,74,-1
 54 1462 l 1,0,1
EndSplineSet
EndChar

StartChar: X
Encoding: 88 88 56
Width: 1592
VWidth: 2078
Flags: W
HStem: -2 80<71 227.125 524.029 665 891 1034.31 1420.1 1565> 1382 80<103 256.345 656.209 777 969 1111.02 1330.81 1505>
DStem2: 345 216 550 309 0.594715 0.803936<66.6716 553.492 893.02 1347.11> 876 934 698 694 0.545804 -0.837913<-440.724 0 220.993 754.541>
AnchorPoint: "TopCap" 856 1580 basechar 0
AnchorPoint: "DotBelow" 770 -20 basechar 0
AnchorPoint: "Bottom" 770 0 basechar 0
LayerCount: 3
Fore
SplineSet
1516 78 m 2
 1565 78 l 1
 1565 -2 l 1
 1509 -2 1349 3 1228 3 c 0
 1106 3 948 -2 891 -2 c 1
 891 78 l 1
 973 78 l 2
 1013 78 1039 111 1039 139 c 0
 1039 153 1029 187 1014 210 c 2
 762 596 l 1
 550 309 l 2
 511 256 506 196 506 179 c 0
 506 141 530 78 588 78 c 2
 665 78 l 1
 665 -2 l 1
 613 -2 461 3 363 3 c 0
 266 3 122 -2 71 -2 c 1
 71 78 l 1
 182 78 285 136 345 216 c 2
 698 694 l 1
 332 1257 l 1
 295 1310 239 1382 160 1382 c 2
 103 1382 l 1
 103 1462 l 1
 159 1462 317 1457 438 1457 c 0
 560 1457 721 1462 777 1462 c 1
 777 1382 l 1
 705 1382 l 2
 678 1382 651 1355 651 1314 c 0
 651 1302 659 1267 668 1254 c 2
 876 934 l 1
 1067 1192 l 2
 1109 1248 1118 1296 1118 1321 c 0
 1118 1368 1048 1375 969 1382 c 1
 969 1462 l 1
 999 1462 1148 1457 1241 1457 c 0
 1333 1457 1476 1462 1505 1462 c 1
 1505 1382 l 1
 1389 1382 1325 1358 1267 1279 c 2
 940 836 l 1
 1347 211 l 2
 1383 155 1429 78 1516 78 c 2
EndSplineSet
Layer: 2
SplineSet
1516 78 m 2,0,-1
 1565 78 l 1,1,-1
 1565 -2 l 1,2,3
 1545 -2 1545 -2 1421 0.5 c 128,-1,4
 1297 3 1297 3 1228 3 c 128,-1,5
 1159 3 1159 3 1035 0.5 c 128,-1,6
 911 -2 911 -2 891 -2 c 1,7,-1
 891 78 l 1,8,-1
 973 78 l 2,9,10
 1001 78 1001 78 1020 97 c 128,-1,11
 1039 116 1039 116 1039 139 c 0,12,13
 1039 172 1039 172 1014 210 c 2,14,-1
 762 596 l 1,15,-1
 550 309 l 2,16,17
 506 249 506 249 506 179 c 0,18,19
 506 144 506 144 527.5 111 c 128,-1,20
 549 78 549 78 588 78 c 2,21,-1
 665 78 l 1,22,-1
 665 -2 l 1,23,24
 645 -2 645 -2 531.5 0.5 c 128,-1,25
 418 3 418 3 363 3 c 0,26,27
 309 3 309 3 200 0.5 c 128,-1,28
 91 -2 91 -2 71 -2 c 1,29,-1
 71 78 l 1,30,31
 152 78 152 78 225.5 116 c 128,-1,32
 299 154 299 154 345 216 c 2,33,-1
 698 694 l 1,34,-1
 332 1257 l 2,35,36
 308 1291 308 1291 288 1314.5 c 128,-1,37
 268 1338 268 1338 232.5 1360 c 128,-1,38
 197 1382 197 1382 160 1382 c 2,39,-1
 103 1382 l 1,40,-1
 103 1462 l 1,41,42
 123 1462 123 1462 246 1459.5 c 128,-1,43
 369 1457 369 1457 438 1457 c 128,-1,44
 507 1457 507 1457 632 1459.5 c 128,-1,45
 757 1462 757 1462 777 1462 c 1,46,-1
 777 1382 l 1,47,-1
 705 1382 l 2,48,49
 684 1382 684 1382 667.5 1363 c 128,-1,50
 651 1344 651 1344 651 1314 c 0,51,52
 651 1304 651 1304 656.5 1283.5 c 128,-1,53
 662 1263 662 1263 668 1254 c 2,54,-1
 876 934 l 1,55,-1
 1067 1192 l 2,56,57
 1118 1260 1118 1260 1118 1321 c 0,58,59
 1118 1338 1118 1338 1107 1349 c 128,-1,60
 1096 1360 1096 1360 1071.5 1366.5 c 128,-1,61
 1047 1373 1047 1373 1027 1376 c 128,-1,62
 1007 1379 1007 1379 969 1382 c 1,63,-1
 969 1462 l 1,64,65
 976 1462 976 1462 1081.5 1459.5 c 128,-1,66
 1187 1457 1187 1457 1241 1457 c 128,-1,67
 1295 1457 1295 1457 1396.5 1459.5 c 128,-1,68
 1498 1462 1498 1462 1505 1462 c 1,69,-1
 1505 1382 l 1,70,71
 1416 1382 1416 1382 1363 1359.5 c 128,-1,72
 1310 1337 1310 1337 1267 1279 c 2,73,-1
 940 836 l 1,74,-1
 1347 211 l 2,75,76
 1368 178 1368 178 1378 164.5 c 128,-1,77
 1388 151 1388 151 1411 125.5 c 128,-1,78
 1434 100 1434 100 1459.5 89 c 128,-1,79
 1485 78 1485 78 1516 78 c 2,0,-1
EndSplineSet
EndChar

StartChar: Y
Encoding: 89 89 57
Width: 1612
VWidth: 2078
Flags: W
HStem: -1 79<455 645.655 935.958 1119> 1383 79<81 229.915 577.167 722.5 1060 1185.16 1435.98 1566>
VStem: 655 272<82.6745 543>
DStem2: 876 645 655 543 0.464711 -0.885463<-729.423 -12.3839> 876 645 927 568 0.513486 0.858098<0 713.355>
AnchorPoint: "DotBelow" 787 -20 basechar 0
AnchorPoint: "Bottom" 787 0 basechar 0
AnchorPoint: "TopCap" 868 1580 basechar 0
LayerCount: 3
Fore
SplineSet
81 1383 m 1
 81 1462 l 1
 123 1462 334 1457 411 1457 c 0
 488 1457 680.5 1462 722.5 1462 c 1
 722.5 1383 l 1
 678.5 1383 l 2
 663.5 1383 563 1373.70019531 563 1305 c 0
 563 1295 566.825195312 1253.39453125 577 1234 c 2
 876 645 l 17
 1179 1157 l 2
 1208.01588201 1206.03013726 1211 1253 1211 1277 c 0
 1211 1332 1176 1383 1060 1383 c 1
 1060 1462 l 1
 1082 1462 1226 1457 1292 1457 c 0
 1358 1457 1544 1462 1566 1462 c 1
 1566 1383 l 1
 1547 1383 l 2
 1457 1383 1357 1297 1301 1193 c 2
 927 568 l 9
 927 171 l 2
 927 111 950 78 997 78 c 2
 1119 78 l 1
 1119 -1 l 1
 1080 -1 891 4 787 4 c 0
 683 4 494 -1 455 -1 c 1
 455 78 l 1
 582 78 l 2
 631 78 655 110 655 168 c 2
 655 543 l 17
 285 1248 l 2
 243 1342 210 1383 148 1383 c 2
 81 1383 l 1
EndSplineSet
Layer: 2
SplineSet
81 1383 m 1,0,-1
 81 1462 l 1,1,2
 98 1462 98 1462 233 1459.5 c 128,-1,3
 368 1457 368 1457 411 1457 c 128,-1,4
 454 1457 454 1457 580 1459.5 c 128,-1,5
 706 1462 706 1462 722.5 1462 c 1,6,-1
 722.5 1383 l 1,7,-1
 678.5 1383 l 2,8,9
 669 1383 669 1383 653.5 1380 c 128,-1,10
 638 1377 638 1377 616 1370 c 128,-1,11
 594 1363 594 1363 578.5 1346 c 128,-1,12
 563 1329 563 1329 563 1305 c 0,13,14
 563 1261 563 1261 577 1234 c 2,15,-1
 876 645 l 1,16,-1
 1179 1157 l 2,17,18
 1211 1211 1211 1211 1211 1277 c 0,19,20
 1211 1324 1211 1324 1176 1353.5 c 128,-1,21
 1141 1383 1141 1383 1060 1383 c 1,22,-1
 1060 1462 l 1,23,24
 1066 1462 1066 1462 1159.5 1459.5 c 128,-1,25
 1253 1457 1253 1457 1292 1457 c 0,26,27
 1330 1457 1330 1457 1445.5 1459.5 c 128,-1,28
 1561 1462 1561 1462 1566 1462 c 1,29,-1
 1566 1383 l 1,30,-1
 1547 1383 l 2,31,32
 1481 1383 1481 1383 1412.5 1328.5 c 128,-1,33
 1344 1274 1344 1274 1301 1193 c 1,34,-1
 927 568 l 1,35,-1
 927 171 l 2,36,37
 927 78 927 78 997 78 c 2,38,-1
 1119 78 l 1,39,-1
 1119 -1 l 1,40,41
 1108 -1 1108 -1 977.5 1.5 c 128,-1,42
 847 4 847 4 787 4 c 128,-1,43
 727 4 727 4 596.5 1.5 c 128,-1,44
 466 -1 466 -1 455 -1 c 1,45,-1
 455 78 l 1,46,-1
 582 78 l 2,47,48
 655 78 655 78 655 168 c 2,49,-1
 655 543 l 1,50,-1
 285 1248 l 1,51,52
 252 1322 252 1322 222.5 1352.5 c 128,-1,53
 193 1383 193 1383 148 1383 c 2,54,-1
 81 1383 l 1,0,-1
EndSplineSet
EndChar

StartChar: Z
Encoding: 90 90 58
Width: 1456
VWidth: 2078
Flags: W
HStem: 0 80<425 1009.25> 1380 80<490.713 974>
VStem: 120 88<1055.6 1102.5> 1250 90<363.813 471.911>
DStem2: 77 57 425 80 0.561608 0.827403<214.47 1598.42>
AnchorPoint: "DotBelow" 680 -20 basechar 0
AnchorPoint: "Bottom" 680 0 basechar 0
AnchorPoint: "TopCap" 764 1580 basechar 0
LayerCount: 3
Fore
SplineSet
77 0 m 1
 77 57 l 1
 974 1380 l 1
 638 1380 l 2
 550 1380 466 1334 411 1289 c 0
 325 1218 252 1107 208 1033 c 1
 120 1060 l 1
 243 1460 l 1
 1323 1460 l 1
 1323 1403 l 1
 425 80 l 1
 856 80 l 2
 1092 80 1194 310 1250 482 c 1
 1340 470 l 1
 1277 0 l 1
 77 0 l 1
EndSplineSet
Layer: 2
SplineSet
77 0 m 1,0,-1
 77 57 l 1,1,-1
 974 1380 l 1,2,-1
 638 1380 l 2,3,4
 522 1380 522 1380 411 1289 c 0,5,6
 311 1207 311 1207 208 1033 c 1,7,-1
 120 1060 l 1,8,-1
 243 1460 l 1,9,-1
 1323 1460 l 1,10,-1
 1323 1403 l 1,11,-1
 425 80 l 1,12,-1
 856 80 l 2,13,14
 924 80 924 80 982.5 106 c 128,-1,15
 1041 132 1041 132 1080.5 171 c 128,-1,16
 1120 210 1120 210 1155 267.5 c 128,-1,17
 1190 325 1190 325 1210 373.5 c 128,-1,18
 1230 422 1230 422 1250 482 c 1,19,-1
 1340 470 l 1,20,-1
 1277 0 l 1,21,-1
 77 0 l 1,0,-1
EndSplineSet
EndChar

StartChar: bracketleft
Encoding: 91 91 59
Width: 780
VWidth: 2078
Flags: W
HStem: -536 68<408.068 684> 1392 68<407.36 684>
VStem: 184 216<-464.853 1389.28>
LayerCount: 3
Fore
SplineSet
184 1460 m 1
 684 1460 l 1
 684 1392 l 1
 473 1392 l 2
 416 1392 400 1372 400 1303 c 2
 400 -375 l 2
 400 -444 416 -468 473 -468 c 2
 684 -468 l 1
 684 -536 l 1
 184 -536 l 1
 184 1460 l 1
EndSplineSet
Validated: 19457
Layer: 2
SplineSet
184 1460 m 1,0,-1
 684 1460 l 1,1,-1
 684 1392 l 1,2,-1
 473 1392 l 2,3,4
 430 1392 430 1392 415 1373.5 c 128,-1,5
 400 1355 400 1355 400 1303 c 2,6,-1
 400 -375 l 2,7,8
 400 -427 400 -427 415.5 -447.5 c 128,-1,9
 431 -468 431 -468 473 -468 c 2,10,-1
 684 -468 l 1,11,-1
 684 -536 l 1,12,-1
 184 -536 l 1,13,-1
 184 1460 l 1,0,-1
EndSplineSet
EndChar

StartChar: backslash
Encoding: 92 92 60
Width: 676
VWidth: 2078
Flags: W
HStem: -468 21G<514.363 670> 1440 20G<72 227.637>
VStem: 72 598
DStem2: 223 1460 72 1460 0.225856 -0.974161<0 1945.04>
LayerCount: 3
Fore
SplineSet
670 -468 m 1
 519 -468 l 1
 72 1460 l 1
 223 1460 l 1
 670 -468 l 1
EndSplineSet
Validated: 19457
Layer: 2
SplineSet
670 -468 m 1,0,-1
 519 -468 l 1,1,-1
 72 1460 l 1,2,-1
 223 1460 l 1,3,-1
 670 -468 l 1,0,-1
EndSplineSet
EndChar

StartChar: bracketright
Encoding: 93 93 61
Width: 780
VWidth: 2078
Flags: W
HStem: -536 68<96 371.932> 1392 68<96 372.64>
VStem: 380 216<-464.853 1389.28>
LayerCount: 3
Fore
SplineSet
596 1460 m 1
 596 -536 l 1
 96 -536 l 1
 96 -468 l 1
 307 -468 l 2
 364 -468 380 -444 380 -375 c 2
 380 1303 l 2
 380 1372 364 1392 307 1392 c 2
 96 1392 l 1
 96 1460 l 1
 596 1460 l 1
EndSplineSet
Validated: 19457
Layer: 2
SplineSet
596 1460 m 1,0,-1
 596 -536 l 1,1,-1
 96 -536 l 1,2,-1
 96 -468 l 1,3,-1
 307 -468 l 2,4,5
 349 -468 349 -468 364.5 -447.5 c 128,-1,6
 380 -427 380 -427 380 -375 c 2,7,-1
 380 1303 l 2,8,9
 380 1355 380 1355 365 1373.5 c 128,-1,10
 350 1392 350 1392 307 1392 c 2,11,-1
 96 1392 l 1,12,-1
 96 1460 l 1,13,-1
 596 1460 l 1,0,-1
EndSplineSet
EndChar

StartChar: asciicircum
Encoding: 94 94 62
Width: 1160
VWidth: 1882
Flags: W
HStem: 847 617
LayerCount: 3
Fore
SplineSet
36 906 m 1
 526 1464 l 1
 635 1464 l 1
 1124 906 l 1
 1060 847 l 1
 580 1254 l 1
 100 847 l 1
 36 906 l 1
EndSplineSet
Validated: 19457
Layer: 2
SplineSet
36 906 m 1,0,-1
 526 1464 l 1,1,-1
 635 1464 l 1,2,-1
 1124 906 l 1,3,-1
 1060 847 l 1,4,-1
 580 1254 l 1,5,-1
 100 847 l 1,6,-1
 36 906 l 1,0,-1
EndSplineSet
EndChar

StartChar: underscore
Encoding: 95 95 63
Width: 1022
VWidth: 2078
Flags: W
HStem: -376 144<0 1022>
LayerCount: 3
Fore
SplineSet
0 -232 m 1
 1022 -232 l 1
 1022 -376 l 1
 0 -376 l 1
 0 -232 l 1
EndSplineSet
Validated: 19457
Layer: 2
SplineSet
0 -232 m 1,0,-1
 1022 -232 l 1,1,-1
 1022 -376 l 1,2,-1
 0 -376 l 1,3,-1
 0 -232 l 1,0,-1
EndSplineSet
EndChar

StartChar: grave
Encoding: 96 96 64
AltUni2: 0002cb.ffffffff.0
Width: 880
VWidth: 2078
Flags: W
HStem: 999 489
VStem: 166 226<1315.69 1448.38>
LayerCount: 3
Fore
SplineSet
166 1387 m 0
 166 1445 213 1488 274 1488 c 0
 333 1488 376 1419 392 1364 c 2
 492 1027 l 1
 436 999 l 1
 230 1255 l 2
 196 1297 166 1345 166 1387 c 0
EndSplineSet
Validated: 19457
Layer: 2
SplineSet
166 1387 m 0,0,1
 166 1430 166 1430 197 1459 c 128,-1,2
 228 1488 228 1488 274 1488 c 0,3,4
 315 1488 315 1488 346.5 1450 c 128,-1,5
 378 1412 378 1412 392 1364 c 2,6,-1
 492 1027 l 1,7,-1
 436 999 l 1,8,-1
 230 1255 l 2,9,10
 166 1334 166 1334 166 1387 c 0,0,1
EndSplineSet
EndChar

StartChar: a
Encoding: 97 97 65
Width: 1010
VWidth: 2079
Flags: W
HStem: -16 172<730.5 881.251> -16 86<331.805 504.169> 475 62<472.088 616> 846 70<395.399 564.135>
VStem: 56 250<92.899 332.702> 108 220<652.673 790.883> 616 208<158.865 475 537 796.043>
AnchorPoint: "DotBelow" 507 -20 basechar 0
AnchorPoint: "Bottom" 507 0 basechar 0
AnchorPoint: "Dotaccent" 464 1020 basechar 0
AnchorPoint: "Grave" 464.001 980 basechar 0
AnchorPoint: "Acute" 464.001 980 basechar 0
AnchorPoint: "Top" 464.001 1000 basechar 0
LayerCount: 3
Fore
SplineSet
56 188 m 0x7a
 56 370 216 450 363 495 c 0
 444 520 531 536 616 537 c 1
 616 677 l 2
 616 766 560 846 489 846 c 0
 409 846 350 783 328 712 c 0
 319 683 288 634 222 634 c 0
 150 634 108 680 108 732 c 0
 108 845 300 916 481 916 c 0
 554 916 628 902 691 870 c 0
 771 829 824 756 824 667 c 2
 824 264 l 2
 824 213 839 156 878 156 c 0
 913 156 937 184 955 218 c 1
 990 199 l 1
 952 87 873 -16 764 -16 c 0xb6
 697 -16 645 63 625 118 c 1
 620 116 l 1
 553 47 459 -16 339 -16 c 0
 271 -16 180 -4 131 33 c 0
 87 66 56 121 56 188 c 0x7a
306 197 m 0x7a
 306 119 354 70 420 70 c 0
 501 70 555 123 616 184 c 1
 616 475 l 1
 552 472 468 454 398 408 c 0
 347 375 306 307 306 197 c 0x7a
EndSplineSet
Layer: 2
SplineSet
56 188 m 0,0,1
 56 241 56 241 74.5 285.5 c 128,-1,2
 93 330 93 330 121.5 361.5 c 128,-1,3
 150 393 150 393 192 420 c 128,-1,4
 234 447 234 447 274 463.5 c 128,-1,5
 314 480 314 480 363 495 c 0,6,7
 494 536 494 536 616 537 c 1,8,-1
 616 677 l 2,9,10
 616 745 616 745 579 795.5 c 128,-1,11
 542 846 542 846 489 846 c 0,12,13
 432 846 432 846 389 807.5 c 128,-1,14
 346 769 346 769 328 712 c 0,15,16
 319 683 319 683 292.5 658.5 c 128,-1,17
 266 634 266 634 222 634 c 0,18,19
 170 634 170 634 139 662.5 c 128,-1,20
 108 691 108 691 108 732 c 0,21,22
 108 786 108 786 164 829 c 128,-1,23
 220 872 220 872 304.5 894 c 128,-1,24
 389 916 389 916 481 916 c 0,25,26
 600 916 600 916 691 870 c 0,27,28
 752 839 752 839 788 785.5 c 128,-1,29
 824 732 824 732 824 667 c 2,30,-1
 824 264 l 2,31,32
 824 220 824 220 837.5 188 c 128,-1,33
 851 156 851 156 878 156 c 0,34,35
 922 156 922 156 955 218 c 1,36,-1
 990 199 l 1,37,38
 959 107 959 107 900 45.5 c 128,-1,39
 841 -16 841 -16 764 -16 c 0,40,41
 718 -16 718 -16 680.5 26 c 128,-1,42
 643 68 643 68 625 118 c 1,43,-1
 620 116 l 1,44,45
 492 -16 492 -16 339 -16 c 0,46,47
 196 -16 196 -16 131 33 c 0,48,49
 56 89 56 89 56 188 c 0,0,1
306 197 m 0,50,51
 306 139 306 139 338 104.5 c 128,-1,52
 370 70 370 70 420 70 c 0,53,54
 458 70 458 70 495 88 c 128,-1,55
 532 106 532 106 554.5 125.5 c 128,-1,56
 577 145 577 145 616 184 c 1,57,-1
 616 475 l 1,58,59
 491 469 491 469 398 408 c 0,60,61
 306 348 306 348 306 197 c 0,50,51
EndSplineSet
EndChar

StartChar: b
Encoding: 98 98 66
Width: 1082
VWidth: 2079
Flags: W
HStem: -16 78<415.699 658.673> 812 104<472.919 663.55> 1335 53<13 58.5566> 1458 20G<235.444 351>
VStem: 143 208<113.041 747.646 791 1323.48> 768 250<246.728 687.256>
AnchorPoint: "Acute" 296 1560 basechar 0
AnchorPoint: "DotBelow" 533 -20 basechar 0
AnchorPoint: "Bottom" 533 0 basechar 0
AnchorPoint: "Top" 464 1580 basechar 0
AnchorPoint: "Dotaccent" 612 1014 basechar 0
LayerCount: 3
Fore
SplineSet
13 1388 m 1
 299 1478 l 25
 351 1478 l 1
 351 791 l 1
 436 860 536 916 624 916 c 0
 728 916 830 881 882 827 c 0
 975 731 1018 621 1018 490 c 0
 1018 356 981 227 913 136 c 0
 832 28 720 -16 586 -16 c 0
 547 -16 457 1 402 28 c 0
 349 54 318 66 306 66 c 0
 280.344964727 66 247.840126977 27.7601904651 224 -8 c 1
 143 -8 l 1
 143 1258 l 18
 143 1298 132 1319 95 1324 c 2
 13 1335 l 1
 13 1388 l 1
351 143 m 1
 414 93 490 62 542 62 c 0
 606 62 668 92 703 149 c 0
 751 225 768 337 768 418 c 0
 768 509 767 611 714 705 c 0
 667 788 609 812 543 812 c 0
 485 812 422 783 351 707 c 1
 351 143 l 1
EndSplineSet
Layer: 2
SplineSet
13 1388 m 1,0,-1
 299 1478 l 1,1,-1
 351 1478 l 1,2,-1
 351 791 l 1,3,4
 505 916 505 916 624 916 c 0,5,6
 702 916 702 916 772.5 891.5 c 128,-1,7
 843 867 843 867 882 827 c 0,8,9
 1018 687 1018 687 1018 490 c 0,10,11
 1018 277 1018 277 913 136 c 0,12,13
 799 -16 799 -16 586 -16 c 0,14,15
 553 -16 553 -16 496.5 -3.5 c 128,-1,16
 440 9 440 9 402 28 c 0,17,18
 325 66 325 66 306 66 c 0,19,20
 273 66 273 66 224 -8 c 1,21,-1
 143 -8 l 1,22,-1
 143 1258 l 2,23,24
 143 1289 143 1289 132.5 1304.5 c 128,-1,25
 122 1320 122 1320 95 1324 c 2,26,-1
 13 1335 l 1,27,-1
 13 1388 l 1,0,-1
351 143 m 1,28,29
 398 106 398 106 450 84 c 128,-1,30
 502 62 502 62 542 62 c 0,31,32
 591 62 591 62 634 84.5 c 128,-1,33
 677 107 677 107 703 149 c 0,34,35
 768 252 768 252 768 418 c 0,36,37
 768 478 768 478 766 514.5 c 128,-1,38
 764 551 764 551 751.5 606 c 128,-1,39
 739 661 739 661 714 705 c 0,40,41
 653 812 653 812 543 812 c 0,42,43
 449 812 449 812 351 707 c 1,44,-1
 351 143 l 1,28,29
EndSplineSet
EndChar

StartChar: c
Encoding: 99 99 67
Width: 964
VWidth: 2079
Flags: W
HStem: -16 104<449.885 708.295> 830 86<418.275 608.742>
VStem: 64 250<240.279 653.324> 638 236<613.705 798.358>
AnchorPoint: "DotBelow" 527 -20 basechar 0
AnchorPoint: "Bottom" 527 0 basechar 0
AnchorPoint: "Top" 508 1000 basechar 0
AnchorPoint: "Acute" 508 980 basechar 0
AnchorPoint: "Grave" 508 980 basechar 0
AnchorPoint: "Dotaccent" 508 1020 basechar 0
LayerCount: 3
Fore
SplineSet
64 436 m 0
 64 571 106 692 196 779 c 0
 298 879 420 916 524 916 c 0
 611 916 683 898 746 865 c 0
 831 821 874 751 874 694 c 0
 874 623 826 579 761 579 c 0
 679 579 647 659 638 709 c 0
 628 768 599 830 526 830 c 0
 386 830 314 672 314 457 c 0
 314 233 417 88 604 88 c 0
 704 88 779 177 823 243 c 1
 885 198 l 1
 822 114 714 -16 556 -16 c 0
 430 -16 313 18 215 97 c 0
 118 174 64 285 64 436 c 0
EndSplineSet
Layer: 2
SplineSet
64 436 m 0,0,1
 64 651 64 651 196 779 c 0,2,3
 336 916 336 916 524 916 c 0,4,5
 649 916 649 916 746 865 c 0,6,7
 807 833 807 833 840.5 786 c 128,-1,8
 874 739 874 739 874 694 c 0,9,10
 874 642 874 642 842.5 610.5 c 128,-1,11
 811 579 811 579 761 579 c 0,12,13
 723 579 723 579 695 602.5 c 128,-1,14
 667 626 667 626 655 652.5 c 128,-1,15
 643 679 643 679 638 709 c 0,16,17
 617 830 617 830 526 830 c 0,18,19
 424 830 424 830 369 727 c 128,-1,20
 314 624 314 624 314 457 c 0,21,22
 314 286 314 286 390 187 c 128,-1,23
 466 88 466 88 604 88 c 0,24,25
 720 88 720 88 823 243 c 1,26,-1
 885 198 l 1,27,28
 862 167 862 167 841.5 143 c 128,-1,29
 821 119 821 119 787.5 87 c 128,-1,30
 754 55 754 55 721.5 34.5 c 128,-1,31
 689 14 689 14 645 -1 c 128,-1,32
 601 -16 601 -16 556 -16 c 0,33,34
 355 -16 355 -16 215 97 c 0,35,36
 64 217 64 217 64 436 c 0,0,1
EndSplineSet
EndChar

StartChar: d
Encoding: 100 100 68
Width: 1093
VWidth: 2079
Flags: W
HStem: -8 96<418.45 626.377> 8 70<947.643 1049> 838 78<423.622 638.685> 1335 53<601 646.557> 1458 20G<823.444 939>
VStem: 64 250<212.744 658.125> 731 208<85.2422 108 152.354 788.422 833 1323.48>
AnchorPoint: "Grave" 764 1560 basechar 0
AnchorPoint: "DotBelow" 550 -14 basechar 0
AnchorPoint: "Bottom" 550 6 basechar 0
AnchorPoint: "Dotaccent" 428 1020 basechar 0
AnchorPoint: "Acute" 764 1560 basechar 0
AnchorPoint: "Top" 764 1580 basechar 0
LayerCount: 3
Fore
SplineSet
731 1258 m 2xbe
 731 1298 720 1319 683 1324 c 2
 601 1335 l 1
 601 1388 l 1
 887 1478 l 25
 939 1478 l 1
 939 154 l 2
 939 99 966 78 1044 78 c 2
 1049 78 l 1
 1049 72 l 1
 1049 14 l 1
 1049 8 l 1
 1043 8 l 1x7e
 738 -8 l 1
 731 -8 l 1
 731 -2 l 1
 731 108 l 1
 654 43 546 -16 458 -16 c 0
 354 -16 252 19 200 73 c 0
 107 169 64 279 64 410 c 0
 64 544 99 673 164 764 c 0
 242 872 348 916 476 916 c 0
 541 916 646 884 729 831 c 1
 731 833 l 1
 731 1258 l 2xbe
314 482 m 0
 314 391 315 289 368 195 c 0
 415 112 473 88 539 88 c 0xbe
 598 88 660 117 731 193 c 1
 731 756 l 1
 670 807 594 838 541 838 c 0
 477 838 414 808 379 751 c 0
 331 675 314 563 314 482 c 0
EndSplineSet
Layer: 2
SplineSet
731 1258 m 2,0,1
 731 1289 731 1289 720.5 1304.5 c 128,-1,2
 710 1320 710 1320 683 1324 c 2,3,-1
 601 1335 l 1,4,-1
 601 1388 l 1,5,-1
 887 1478 l 1,6,-1
 939 1478 l 1,7,-1
 939 154 l 2,8,9
 939 112 939 112 962.5 95 c 128,-1,10
 986 78 986 78 1044 78 c 2,11,-1
 1049 78 l 1,12,-1
 1049 72 l 1,13,-1
 1049 14 l 1,14,-1
 1049 8 l 1,15,-1
 1043 8 l 1,16,-1
 738 -8 l 1,17,-1
 731 -8 l 1,18,-1
 731 -2 l 1,19,-1
 731 108 l 1,20,21
 668 55 668 55 594 19.5 c 128,-1,22
 520 -16 520 -16 458 -16 c 0,23,24
 380 -16 380 -16 309.5 8.5 c 128,-1,25
 239 33 239 33 200 73 c 0,26,27
 64 213 64 213 64 410 c 0,28,29
 64 624 64 624 164 764 c 0,30,31
 274 916 274 916 476 916 c 0,32,33
 527 916 527 916 598 893 c 128,-1,34
 669 870 669 870 729 831 c 1,35,-1
 731 833 l 1,36,-1
 731 1258 l 2,0,1
314 482 m 0,37,38
 314 422 314 422 316 385.5 c 128,-1,39
 318 349 318 349 330.5 294 c 128,-1,40
 343 239 343 239 368 195 c 0,41,42
 429 88 429 88 539 88 c 0,43,44
 633 88 633 88 731 193 c 1,45,-1
 731 756 l 1,46,47
 686 794 686 794 634 816 c 128,-1,48
 582 838 582 838 541 838 c 0,49,50
 492 838 492 838 448.5 815.5 c 128,-1,51
 405 793 405 793 379 751 c 0,52,53
 314 648 314 648 314 482 c 0,37,38
EndSplineSet
EndChar

StartChar: e
Encoding: 101 101 69
Width: 915
VWidth: 2079
Flags: W
HStem: -16 104<428.468 653.912> 519 71<326 668> 830 86<403.552 591.07>
VStem: 64 250<224.932 589.119>
AnchorPoint: "Bottom" 527 0 basechar 0
AnchorPoint: "DotBelow" 527 -20 basechar 0
AnchorPoint: "Top" 504 1000 basechar 0
AnchorPoint: "Acute" 504 980 basechar 0
AnchorPoint: "Grave" 504 980 basechar 0
AnchorPoint: "Dotaccent" 504 1020 basechar 0
LayerCount: 3
Fore
SplineSet
64 436 m 0
 64 579 108 694 186 777 c 0
 292 889 398 916 474 916 c 0
 575 916 680 893 752 813 c 0
 837 720 851 614 866 519 c 1
 317 519 l 1
 315 497 314 477 314 455 c 0
 314 232 402 88 561 88 c 0
 647 88 748 158 798 225 c 1
 840 185 l 1
 779 104 639 -16 495 -16 c 0
 385 -16 282 18 196 97 c 0
 111 174 64 285 64 436 c 0
326 590 m 1
 668 590 l 1
 660 710 594 830 504 830 c 0
 394 830 354 734 326 590 c 1
EndSplineSet
Validated: 19457
Layer: 2
SplineSet
64 436 m 0,0,1
 64 647 64 647 186 777 c 0,2,3
 318 916 318 916 474 916 c 0,4,5
 659 916 659 916 752 813 c 0,6,7
 782 780 782 780 802.5 744.5 c 128,-1,8
 823 709 823 709 836 663.5 c 128,-1,9
 849 618 849 618 853.5 595 c 128,-1,10
 858 572 858 572 866 519 c 1,11,-1
 317 519 l 1,12,13
 314 486 314 486 314 455 c 0,14,15
 314 285 314 285 378.5 186.5 c 128,-1,16
 443 88 443 88 561 88 c 0,17,18
 622 88 622 88 690 129.5 c 128,-1,19
 758 171 758 171 798 225 c 1,20,-1
 840 185 l 1,21,22
 784 111 784 111 688.5 47.5 c 128,-1,23
 593 -16 593 -16 495 -16 c 0,24,25
 319 -16 319 -16 196 97 c 0,26,27
 64 217 64 217 64 436 c 0,0,1
326 590 m 1,28,-1
 668 590 l 1,29,30
 662 685 662 685 615.5 757.5 c 128,-1,31
 569 830 569 830 504 830 c 0,32,33
 427 830 427 830 388 770 c 128,-1,34
 349 710 349 710 326 590 c 1,28,-1
EndSplineSet
EndChar

StartChar: f
Encoding: 102 102 70
Width: 696
VWidth: 2079
Flags: W
HStem: -2 68<64 193.245 402.755 531> 824 76<61.3638 194 402 559.1> 1358 118<458.017 689>
VStem: 194 208<66 824 900 1192.72>
AnchorPoint: "Dotaccent" 568 1520 basechar 0
AnchorPoint: "Grave" 568 1480 basechar 0
AnchorPoint: "Acute" 568 1480 basechar 0
AnchorPoint: "Top" 568 1500 basechar 0
AnchorPoint: "DotBelow" 297 -20 basechar 0
AnchorPoint: "Bottom" 297 0 basechar 0
LayerCount: 3
Fore
SplineSet
402 113 m 2
 402 83 412 66 438 66 c 2
 531 66 l 1
 531 -2 l 1
 510 -2 361 2 298 2 c 0
 235 2 85 -2 64 -2 c 1
 64 66 l 1
 158 66 l 2
 184 66 194 83 194 113 c 2
 194 824 l 1
 56 824 l 1
 56 846 56 878 66 900 c 1
 194 900 l 1
 194 960 l 2
 194 1240 363 1476 631 1476 c 0
 747 1476 838 1383 838 1309 c 0
 838 1245 797 1213 747 1213 c 0
 716 1213 678 1230 649 1274 c 0
 632 1299 588 1358 536 1358 c 0
 457 1358 402 1262 402 1095 c 2
 402 900 l 1
 565 900 l 1
 565 878 565 846 554 824 c 1
 402 824 l 1
 402 113 l 2
EndSplineSet
Validated: 19457
Layer: 2
SplineSet
402 113 m 2,0,1
 402 66 402 66 438 66 c 2,2,-1
 531 66 l 1,3,-1
 531 -2 l 1,4,5
 526 -2 526 -2 430.5 0 c 128,-1,6
 335 2 335 2 298 2 c 128,-1,7
 261 2 261 2 165 0 c 128,-1,8
 69 -2 69 -2 64 -2 c 1,9,-1
 64 66 l 1,10,-1
 158 66 l 2,11,12
 194 66 194 66 194 113 c 2,13,-1
 194 824 l 1,14,-1
 56 824 l 1,15,16
 56 878 56 878 66 900 c 1,17,-1
 194 900 l 1,18,-1
 194 960 l 2,19,20
 194 1101 194 1101 246.5 1217.5 c 128,-1,21
 299 1334 299 1334 400 1405 c 128,-1,22
 501 1476 501 1476 631 1476 c 0,23,24
 714 1476 714 1476 776 1422 c 128,-1,25
 838 1368 838 1368 838 1309 c 0,26,27
 838 1263 838 1263 812 1238 c 128,-1,28
 786 1213 786 1213 747 1213 c 0,29,30
 689 1213 689 1213 649 1274 c 0,31,32
 592 1358 592 1358 536 1358 c 0,33,34
 476 1358 476 1358 439 1288 c 128,-1,35
 402 1218 402 1218 402 1095 c 2,36,-1
 402 900 l 1,37,-1
 565 900 l 1,38,39
 565 846 565 846 554 824 c 1,40,-1
 402 824 l 1,41,-1
 402 113 l 2,0,1
EndSplineSet
EndChar

StartChar: g
Encoding: 103 103 71
Width: 1186
VWidth: 2079
Flags: W
HStem: -522 70<371.089 773.82> 242 70<422.56 628.186> 820 96<896.796 1070> 846 70<440.806 636.456>
VStem: 84 193<-381.432 -197.632> 125 202<109.153 200.336> 130 222<430.316 739.359> 719 222<406.832 729.125> 893 196<-334.063 -194.272>
AnchorPoint: "Top" 545 1000 basechar 0
AnchorPoint: "Acute" 545 980 basechar 0
AnchorPoint: "Grave" 545 980 basechar 0
AnchorPoint: "Dotaccent" 545 1020 basechar 0
LayerCount: 3
Fore
SplineSet
84 -298 m 0xe880
 84 -182 222 -123 396 -74 c 1
 192 -42 125 46 125 120 c 0xe4
 125 210 244 243 368 285 c 1
 229 341 130 439 130 571 c 0
 130 786 308 916 520 916 c 0xd2
 637 916 759 874 819 816 c 1
 887 869 950 916 1034 916 c 0
 1106 916 1160 857 1160 798 c 0
 1160 755 1125 718 1083 718 c 0
 1042 718 1029 739 1008 766 c 0
 988 792 975 820 940 820 c 0
 900 820 893 800 862 778 c 1
 914 713 941 648 941 570 c 0
 941 355 758 242 550 242 c 0
 492 242 467 244 415 262 c 1
 365 242 327 218 327 177 c 0xe5
 327 95 436 78 590 62 c 0
 847 35 1089 -5 1089 -214 c 0
 1089 -399 817 -522 561 -522 c 0
 337 -522 84 -466 84 -298 c 0xe880
277 -277 m 0xc880
 277 -366 349 -452 553 -452 c 0
 687 -452 893 -418 893 -292 c 0
 893 -162 748 -120 475 -92 c 1
 371 -126 277 -189 277 -277 c 0xc880
352 571 m 0xd3
 352 409 403 312 523 312 c 0
 643 312 719 409 719 571 c 0
 719 733 660 846 540 846 c 0
 420 846 352 733 352 571 c 0xd3
EndSplineSet
Layer: 2
SplineSet
84 -298 m 0,0,1
 84 -256 84 -256 107 -221.5 c 128,-1,2
 130 -187 130 -187 175.5 -160.5 c 128,-1,3
 221 -134 221 -134 272.5 -114 c 128,-1,4
 324 -94 324 -94 396 -74 c 1,5,6
 255 -52 255 -52 190 2 c 128,-1,7
 125 56 125 56 125 120 c 0,8,9
 125 159 125 159 160.5 190.5 c 128,-1,10
 196 222 196 222 230 236 c 128,-1,11
 264 250 264 250 341.939959971 276.245286333 c 0,12,13
 359 282 359 282 368 285 c 1,14,15
 259 329 259 329 194.5 402.5 c 128,-1,16
 130 476 130 476 130 571 c 0,17,18
 130 675 130 675 183.5 755 c 128,-1,19
 237 835 237 835 325 875.5 c 128,-1,20
 413 916 413 916 520 916 c 0,21,22
 607 916 607 916 690.5 888 c 128,-1,23
 774 860 774 860 819 816 c 1,24,25
 862 849 862 849 888 867 c 128,-1,26
 914 885 914 885 954.5 900.5 c 128,-1,27
 995 916 995 916 1034 916 c 0,28,29
 1086 916 1086 916 1123 880 c 128,-1,30
 1160 844 1160 844 1160 798 c 0,31,32
 1160 766 1160 766 1137 742 c 128,-1,33
 1114 718 1114 718 1083 718 c 0,34,35
 1064 718 1064 718 1049 726 c 128,-1,36
 1034 734 1034 734 1028.5 740 c 128,-1,37
 1023 746 1023 746 1008 766 c 0,38,39
 1005 770 1005 770 997 781 c 128,-1,40
 989 792 989 792 985 796.5 c 128,-1,41
 981 801 981 801 973.5 808 c 128,-1,42
 966 815 966 815 958 817.5 c 128,-1,43
 950 820 950 820 940 820 c 0,44,45
 922 820 922 820 911 815.5 c 128,-1,46
 900 811 900 811 885 797.5 c 128,-1,47
 870 784 870 784 862 778 c 1,48,49
 941 679 941 679 941 570 c 0,50,51
 941 416 941 416 828 329 c 128,-1,52
 715 242 715 242 550 242 c 0,53,54
 473 242 473 242 415 262 c 1,55,56
 327 227 327 227 327 177 c 0,57,58
 327 153 327 153 340.5 135 c 128,-1,59
 354 117 354 117 374.5 105.5 c 128,-1,60
 395 94 395 94 432 85.5 c 128,-1,61
 469 77 469 77 502.5 72.5 c 128,-1,62
 536 68 536 68 590 62 c 0,63,64
 654 55 654 55 699.5 49 c 128,-1,65
 745 43 745 43 800.5 32 c 128,-1,66
 856 21 856 21 895 8 c 128,-1,67
 934 -5 934 -5 973 -26 c 128,-1,68
 1012 -47 1012 -47 1035.5 -72.5 c 128,-1,69
 1059 -98 1059 -98 1074 -134 c 128,-1,70
 1089 -170 1089 -170 1089 -214 c 0,71,72
 1089 -303 1089 -303 1010 -375 c 128,-1,73
 931 -447 931 -447 811 -484.5 c 128,-1,74
 691 -522 691 -522 561 -522 c 0,75,76
 472 -522 472 -522 391 -510 c 128,-1,77
 310 -498 310 -498 239 -473.5 c 128,-1,78
 168 -449 168 -449 126 -403.5 c 128,-1,79
 84 -358 84 -358 84 -298 c 0,0,1
277 -277 m 0,80,81
 277 -352 277 -352 344 -402 c 128,-1,82
 411 -452 411 -452 553 -452 c 0,83,84
 609 -452 609 -452 663.5 -444.5 c 128,-1,85
 718 -437 718 -437 772 -420 c 128,-1,86
 826 -403 826 -403 859.5 -370 c 128,-1,87
 893 -337 893 -337 893 -292 c 0,88,89
 893 -244 893 -244 867 -210 c 128,-1,90
 841 -176 841 -176 785 -153.5 c 128,-1,91
 729 -131 729 -131 656.5 -117 c 128,-1,92
 584 -103 584 -103 475 -92 c 1,93,94
 389 -120 389 -120 333 -167.5 c 128,-1,95
 277 -215 277 -215 277 -277 c 0,80,81
352 571 m 0,96,97
 352 312 352 312 523 312 c 0,98,99
 613 312 613 312 666 381 c 128,-1,100
 719 450 719 450 719 571 c 0,101,102
 719 697 719 697 673 771.5 c 128,-1,103
 627 846 627 846 540 846 c 0,104,105
 452 846 452 846 402 770.5 c 128,-1,106
 352 695 352 695 352 571 c 0,96,97
EndSplineSet
EndChar

StartChar: h
Encoding: 104 104 72
Width: 1114
VWidth: 2079
Flags: W
HStem: -1 68<51 180.245 389.755 518 615 744.245 953.755 1082> 812 104<538.156 699.216> 1335 53<51 96.5566> 1458 20G<273.444 389>
VStem: 181 208<67 724.547 758 1323.48> 745 208<66 763.687>
AnchorPoint: "DotBelow" 564 -38 basechar 0
AnchorPoint: "Bottom" 564 0 basechar 0
AnchorPoint: "Dotaccent" 640 1020 basechar 0
AnchorPoint: "Acute" 296 1560 basechar 0
AnchorPoint: "Top" 556 1580 basechar 0
LayerCount: 3
Fore
SplineSet
745 113 m 2
 745 604 l 2
 745 668 734 739 695 774 c 0
 665 802 643 812 582 812 c 0
 527 812 458 756 389 682 c 1
 389 114 l 2
 389 84 399 67 425 67 c 2
 518 67 l 1
 518 -1 l 1
 497 -1 348 3 285 3 c 0
 222 3 72 -1 51 -1 c 1
 51 67 l 1
 145 67 l 2
 171 67 181 84 181 114 c 2
 181 1258 l 2
 181 1298 170 1319 133 1324 c 2
 51 1335 l 1
 51 1388 l 1
 337 1478 l 25
 389 1478 l 1
 389 758 l 1
 452 821 574 916 680 916 c 0
 858 916 953 782 953 630 c 2
 953 113 l 2
 953 83 963 66 989 66 c 2
 1082 66 l 1
 1082 -2 l 1
 1061 -2 912 2 849 2 c 0
 786 2 636 -2 615 -2 c 1
 615 66 l 1
 709 66 l 2
 735 66 745 83 745 113 c 2
EndSplineSet
Layer: 2
SplineSet
745 113 m 2,0,-1
 745 604 l 2,1,2
 745 729 745 729 695 774 c 0,3,4
 672 796 672 796 649 804 c 128,-1,5
 626 812 626 812 582 812 c 0,6,7
 510 812 510 812 389 682 c 1,8,-1
 389 114 l 2,9,10
 389 67 389 67 425 67 c 2,11,-1
 518 67 l 1,12,-1
 518 -1 l 1,13,14
 513 -1 513 -1 417.5 1 c 128,-1,15
 322 3 322 3 285 3 c 128,-1,16
 248 3 248 3 152 1 c 128,-1,17
 56 -1 56 -1 51 -1 c 1,18,-1
 51 67 l 1,19,-1
 145 67 l 2,20,21
 181 67 181 67 181 114 c 2,22,-1
 181 1258 l 2,23,24
 181 1289 181 1289 170.5 1304.5 c 128,-1,25
 160 1320 160 1320 133 1324 c 2,26,-1
 51 1335 l 1,27,-1
 51 1388 l 1,28,-1
 337 1478 l 1,29,-1
 389 1478 l 1,30,-1
 389 758 l 1,31,32
 449 818 449 818 529 867 c 128,-1,33
 609 916 609 916 680 916 c 0,34,35
 808 916 808 916 880.5 833 c 128,-1,36
 953 750 953 750 953 630 c 2,37,-1
 953 113 l 2,38,39
 953 66 953 66 989 66 c 2,40,-1
 1082 66 l 1,41,-1
 1082 -2 l 1,42,43
 1077 -2 1077 -2 981.5 0 c 128,-1,44
 886 2 886 2 849 2 c 128,-1,45
 812 2 812 2 716 0 c 128,-1,46
 620 -2 620 -2 615 -2 c 1,47,-1
 615 66 l 1,48,-1
 709 66 l 2,49,50
 745 66 745 66 745 113 c 2,0,-1
EndSplineSet
EndChar

StartChar: k
Encoding: 107 107 75
Width: 1143
VWidth: 2079
Flags: W
HStem: -2 68<51 180.52 390.2 529 659 717.993 1020.97 1113> 833 68<651 757.824 900.767 1072> 1335 53<51 96.238> 1458 20G<271.889 389>
VStem: 181 208<66 366 462 1323.48>
DStem2: 389 462 458 420 0.758117 0.652119<0 24.9211 221.14 497.677> 605 550 458 420 0.675637 -0.737234<0 407.473>
AnchorPoint: "Top" 556 1580 basechar 0
AnchorPoint: "Acute" 296 1560 basechar 0
AnchorPoint: "Bottom" 592 0 basechar 0
AnchorPoint: "DotBelow" 585 -20 basechar 0
AnchorPoint: "Dotaccent" 652 1020 basechar 0
LayerCount: 3
Fore
SplineSet
51 66 m 1
 145 66 l 2
 171 66 181 80 181 110 c 2
 181 1258 l 2
 181 1298 170 1319 133 1324 c 2
 51 1335 l 1
 51 1388 l 1
 335 1478 l 1
 389 1478 l 1
 389 462 l 1
 718 745 l 2
 741 765 758 780 758 797 c 0
 758 815 731 833 699 833 c 2
 651 833 l 1
 651 901 l 1
 666 901 811 896 872 896 c 0
 947 896 1041 901 1072 901 c 1
 1072 834 l 1
 1007 834 916 823 852 767 c 2
 605 550 l 1
 956 167 l 2
 978 143 1000 116 1022 99 c 0
 1051 77 1082 66 1113 66 c 1
 1113 -2 l 1
 1088 -2 973 2 897 2 c 0
 829 2 675 -2 658 -2 c 1
 659 66 l 1
 692 66 l 2
 708 66 718 81 718 100 c 0
 718 118 706 139 689 159 c 2
 458 420 l 1
 389 366 l 1
 389 117 l 2
 389 82 400 66 428 66 c 2
 529 66 l 1
 529 -2 l 1
 507 -2 354 2 290 2 c 0
 226 2 73 -2 51 -2 c 1
 51 66 l 1
EndSplineSet
Layer: 2
SplineSet
51 66 m 1,0,-1
 145 66 l 2,1,2
 181 66 181 66 181 110 c 2,3,-1
 181 1258 l 2,4,5
 181 1289 181 1289 170.5 1304.5 c 128,-1,6
 160 1320 160 1320 133 1324 c 2,7,-1
 51 1335 l 1,8,-1
 51 1388 l 1,9,-1
 335 1478 l 1,10,-1
 389 1478 l 1,11,-1
 389 462 l 1,12,-1
 718 745 l 2,13,14
 758 780 758 780 758 797 c 0,15,16
 758 811 758 811 740.5 822 c 128,-1,17
 723 833 723 833 699 833 c 2,18,-1
 651 833 l 1,19,-1
 651 901 l 2,20,21
 653 901 653 901 744.5 898.5 c 128,-1,22
 836 896 836 896 872 896 c 0,23,24
 915 896 915 896 988.5 898.5 c 128,-1,25
 1062 901 1062 901 1072 901 c 1,26,-1
 1072 834 l 1,27,28
 929 834 929 834 852 767 c 2,29,-1
 605 550 l 1,30,-1
 956 167 l 2,31,32
 1009 109 1009 109 1022 99 c 0,33,34
 1066 66 1066 66 1113 66 c 1,35,-1
 1113 -2 l 1,36,37
 1107 -2 1107 -2 1024 0 c 128,-1,38
 941 2 941 2 897 2 c 0,39,40
 857 2 857 2 758.5 0 c 128,-1,41
 660 -2 660 -2 658 -2 c 2,42,-1
 659 66 l 1,43,-1
 692 66 l 2,44,45
 704 66 704 66 711 75.5 c 128,-1,46
 718 85 718 85 718 100 c 0,47,48
 718 125 718 125 689 159 c 2,49,-1
 458 420 l 1,50,-1
 389 366 l 1,51,-1
 389 117 l 2,52,53
 389 66 389 66 428 66 c 2,54,-1
 529 66 l 1,55,-1
 529 -2 l 1,56,57
 523 -2 523 -2 425 0 c 128,-1,58
 327 2 327 2 290 2 c 128,-1,59
 253 2 253 2 155 0 c 128,-1,60
 57 -2 57 -2 51 -2 c 1,61,-1
 51 66 l 1,0,-1
EndSplineSet
EndChar

StartChar: l
Encoding: 108 108 76
Width: 556
VWidth: 2079
Flags: W
HStem: -2 68<51 180.245 389.755 518> 1335 53<51 96.5566> 1458 20G<273.444 389>
VStem: 181 208<66 1323.49>
AnchorPoint: "Grave" 296 1560 basechar 0
AnchorPoint: "DotBelow" 285 -20 basechar 0
AnchorPoint: "Bottom" 288 0 basechar 0
AnchorPoint: "Top" 296 1580 basechar 0
AnchorPoint: "Acute" 296 1560 basechar 0
AnchorPoint: "Dotaccent" 296 1600 basechar 0
LayerCount: 3
Fore
SplineSet
389 113 m 2
 389 83 399 66 425 66 c 2
 518 66 l 1
 518 -2 l 1
 497 -2 348 2 285 2 c 0
 222 2 72 -2 51 -2 c 1
 51 66 l 1
 145 66 l 2
 171 66 181 83 181 113 c 2
 181 1259 l 2
 181 1299 170 1319 133 1324 c 2
 51 1335 l 1
 51 1388 l 1
 337 1478 l 25
 389 1478 l 1
 389 113 l 2
EndSplineSet
Layer: 2
SplineSet
389 113 m 2,0,1
 389 66 389 66 425 66 c 2,2,-1
 518 66 l 1,3,-1
 518 -2 l 1,4,5
 513 -2 513 -2 417.5 0 c 128,-1,6
 322 2 322 2 285 2 c 128,-1,7
 248 2 248 2 152 0 c 128,-1,8
 56 -2 56 -2 51 -2 c 1,9,-1
 51 66 l 1,10,-1
 145 66 l 2,11,12
 181 66 181 66 181 113 c 2,13,-1
 181 1259 l 2,14,15
 181 1290 181 1290 170.5 1305 c 128,-1,16
 160 1320 160 1320 133 1324 c 2,17,-1
 51 1335 l 1,18,-1
 51 1388 l 1,19,-1
 337 1478 l 1,20,-1
 389 1478 l 1,21,-1
 389 113 l 2,0,1
EndSplineSet
EndChar

StartChar: m
Encoding: 109 109 77
Width: 1666
VWidth: 2079
Flags: W
HStem: -2 68<56 185.245 394.755 523 607 736.245 945.755 1074 1168 1297.24 1506.76 1635> 767 53<56 101.557> 812 104<538.635 697.391 1099.5 1257.59>
VStem: 186 208<66 725.44> 737 208<66 670.438> 1298 208<66 769.848>
AnchorPoint: "Bottom" 841 0 basechar 0
AnchorPoint: "Top" 841 1000 basechar 0
AnchorPoint: "Acute" 841 980 basechar 0
AnchorPoint: "Grave" 841 980 basechar 0
AnchorPoint: "Dotaccent" 841 1020 basechar 0
AnchorPoint: "DotBelow" 841 -20 basechar 0
LayerCount: 3
Fore
SplineSet
186 113 m 2xbc
 186 691 l 2
 186 731 175 752 138 757 c 2
 56 767 l 1
 56 820 l 1xdc
 342 910 l 0
 394 910 l 1
 394 761 l 1
 467 831 576 916 682 916 c 0
 765 916 819 900 861 854 c 0
 894 818 914 778 924 740 c 1
 928 739 l 1
 998 809 1126 916 1245 916 c 0
 1329 916 1384 900 1427 854 c 0
 1492 787 1506 703 1506 638 c 2
 1506 113 l 2
 1506 83 1516 66 1542 66 c 2
 1635 66 l 1
 1635 -2 l 1
 1614.08984375 -2 1465.05566406 2 1402 2 c 0
 1339.10742188 2 1188.73339844 -2 1168 -2 c 1
 1168 66 l 1
 1262 66 l 2
 1288 66 1298 83 1298 113 c 2
 1298 604 l 2
 1298 668 1294 732 1255 771 c 0
 1226 800 1202 812 1148 812 c 0
 1091 812 1015 752 943 671 c 1
 945 659 945 648 945 637 c 2
 945 113 l 2
 945 83 955 66 981 66 c 2
 1074 66 l 1
 1074 -2 l 1
 1053.08984375 -2 904.055664062 2 841 2 c 0
 778.107421875 2 627.733398438 -2 607 -2 c 1
 607 66 l 1
 701 66 l 2
 727 66 737 83 737 113 c 2
 737 604 l 2
 737 668 733 732 694 771 c 0
 665 800 640 812 587 812 c 0
 532 812 463 757 394 683 c 1
 394 113 l 2
 394 83 404 66 430 66 c 2
 523 66 l 1
 523 -2 l 1
 502.08984375 -2 353.055664062 2 290 2 c 0
 227.107421875 2 76.7333984375 -2 56 -2 c 1
 56 66 l 1
 150 66 l 2
 176 66 186 83 186 113 c 2xbc
EndSplineSet
Validated: 19457
Layer: 2
SplineSet
186 113 m 2,0,-1
 186 691 l 2,1,2
 186 722 186 722 175.5 737.5 c 128,-1,3
 165 753 165 753 138 757 c 2,4,-1
 56 767 l 1,5,-1
 56 820 l 1,6,-1
 342 910 l 1,7,-1
 394 910 l 1,8,-1
 394 761 l 1,9,10
 556 916 556 916 682 916 c 0,11,12
 804 916 804 916 861 854 c 0,13,14
 907 804 907 804 924 740 c 1,15,-1
 928 739 l 1,16,17
 1105 916 1105 916 1245 916 c 0,18,19
 1369 916 1369 916 1427 854 c 0,20,21
 1506 773 1506 773 1506 638 c 2,22,-1
 1506 113 l 2,23,24
 1506 66 1506 66 1542 66 c 2,25,-1
 1635 66 l 1,26,-1
 1635 -2 l 1,27,28
 1630 -2 1630 -2 1534.5 0 c 128,-1,29
 1439 2 1439 2 1402 2 c 128,-1,30
 1365 2 1365 2 1269 0 c 128,-1,31
 1173 -2 1173 -2 1168 -2 c 1,32,-1
 1168 66 l 1,33,-1
 1262 66 l 2,34,35
 1298 66 1298 66 1298 113 c 2,36,-1
 1298 604 l 2,37,38
 1298 728 1298 728 1255 771 c 0,39,40
 1232 794 1232 794 1209.5 803 c 128,-1,41
 1187 812 1187 812 1148 812 c 0,42,43
 1068 812 1068 812 943 671 c 1,44,45
 945 659 945 659 945 637 c 2,46,-1
 945 113 l 2,47,48
 945 66 945 66 981 66 c 2,49,-1
 1074 66 l 1,50,-1
 1074 -2 l 1,51,52
 1069 -2 1069 -2 973.5 0 c 128,-1,53
 878 2 878 2 841 2 c 128,-1,54
 804 2 804 2 708 0 c 128,-1,55
 612 -2 612 -2 607 -2 c 1,56,-1
 607 66 l 1,57,-1
 701 66 l 2,58,59
 737 66 737 66 737 113 c 2,60,-1
 737 604 l 2,61,62
 737 728 737 728 694 771 c 0,63,64
 671 794 671 794 648.5 803 c 128,-1,65
 626 812 626 812 587 812 c 0,66,67
 514 812 514 812 394 683 c 1,68,-1
 394 113 l 2,69,70
 394 66 394 66 430 66 c 2,71,-1
 523 66 l 1,72,-1
 523 -2 l 1,73,74
 518 -2 518 -2 422.5 0 c 128,-1,75
 327 2 327 2 290 2 c 128,-1,76
 253 2 253 2 157 0 c 128,-1,77
 61 -2 61 -2 56 -2 c 1,78,-1
 56 66 l 1,79,-1
 150 66 l 2,80,81
 186 66 186 66 186 113 c 2,0,-1
EndSplineSet
EndChar

StartChar: n
Encoding: 110 110 78
Width: 1119
VWidth: 2079
Flags: W
HStem: -2 68<56 185.245 394.755 523 620 749.245 958.755 1087> 767 53<56 101.557> 812 104<541.423 706.922>
VStem: 186 208<66 724.547> 750 208<66 766.991>
AnchorPoint: "DotBelow" 592 -20 basechar 0
AnchorPoint: "Bottom" 592 0 basechar 0
AnchorPoint: "Dotaccent" 592 1020 basechar 0
AnchorPoint: "Grave" 592 980 basechar 0
AnchorPoint: "Acute" 592 980 basechar 0
AnchorPoint: "Top" 592 1000 basechar 0
LayerCount: 3
Fore
SplineSet
56 -2 m 1xb8
 56 66 l 1
 150 66 l 2
 176 66 186 83 186 113 c 2
 186 691 l 2
 186 731 175 752 138 757 c 2
 56 767 l 1
 56 820 l 1xd8
 342 910 l 25
 394 910 l 1
 394 758 l 1
 457 821 578 916 684 916 c 0
 768 916 822 895 871 852 c 0
 938 788 958 707 958 630 c 2
 958 113 l 2
 958 83 968 66 994 66 c 2
 1087 66 l 1
 1087 -2 l 1
 1066 -2 917 2 854 2 c 0
 791 2 641 -2 620 -2 c 1
 620 66 l 1
 714 66 l 2
 740 66 750 83 750 113 c 2
 750 604 l 2
 750 668 739 739 700 774 c 0
 670 802 648 812 587 812 c 0
 532 812 463 756 394 682 c 1
 394 113 l 2
 394 83 404 66 430 66 c 2
 523 66 l 1
 523 -2 l 1
 502 -2 353 2 290 2 c 0
 227 2 77 -2 56 -2 c 1xb8
EndSplineSet
Layer: 2
SplineSet
56 -2 m 1,0,-1
 56 66 l 1,1,-1
 150 66 l 2,2,3
 186 66 186 66 186 113 c 2,4,-1
 186 691 l 2,5,6
 186 722 186 722 175.5 737.5 c 128,-1,7
 165 753 165 753 138 757 c 2,8,-1
 56 767 l 1,9,-1
 56 820 l 1,10,-1
 342 910 l 1,11,-1
 394 910 l 1,12,-1
 394 758 l 1,13,14
 455 819 455 819 534 867.5 c 128,-1,15
 613 916 613 916 684 916 c 0,16,17
 798 916 798 916 871 852 c 1,18,19
 958 769 958 769 958 630 c 2,20,-1
 958 113 l 2,21,22
 958 66 958 66 994 66 c 2,23,-1
 1087 66 l 1,24,-1
 1087 -2 l 1,25,26
 1082 -2 1082 -2 986.5 0 c 128,-1,27
 891 2 891 2 854 2 c 128,-1,28
 817 2 817 2 721 0 c 128,-1,29
 625 -2 625 -2 620 -2 c 1,30,-1
 620 66 l 1,31,-1
 714 66 l 2,32,33
 750 66 750 66 750 113 c 2,34,-1
 750 604 l 2,35,36
 750 729 750 729 700 774 c 0,37,38
 677 796 677 796 654 804 c 128,-1,39
 631 812 631 812 587 812 c 0,40,41
 515 812 515 812 394 682 c 1,42,-1
 394 113 l 2,43,44
 394 66 394 66 430 66 c 2,45,-1
 523 66 l 1,46,-1
 523 -2 l 1,47,48
 518 -2 518 -2 422.5 0 c 128,-1,49
 327 2 327 2 290 2 c 128,-1,50
 253 2 253 2 157 0 c 128,-1,51
 61 -2 61 -2 56 -2 c 1,0,-1
EndSplineSet
EndChar

StartChar: o
Encoding: 111 111 79
Width: 1086
VWidth: 2079
Flags: W
HStem: -16 70<445.118 640.981> 846 70<445.118 640.981>
VStem: 64 250<251.963 648.252> 773 250<251.963 648.252>
AnchorPoint: "DotBelow" 543 -20 basechar 0
AnchorPoint: "Bottom" 543 0 basechar 0
AnchorPoint: "Dotaccent" 543 1020 basechar 0
AnchorPoint: "Grave" 544 980 basechar 0
AnchorPoint: "Acute" 544 980 basechar 0
AnchorPoint: "Top" 544 1000 basechar 0
LayerCount: 3
Fore
SplineSet
64 450 m 0
 64 717 272 916 543 916 c 0
 814 916 1023 717 1023 450 c 0
 1023 184 814 -16 543 -16 c 0
 272 -16 64 184 64 450 c 0
314 450 m 0
 314 242 397 54 543 54 c 0
 689 54 773 242 773 450 c 0
 773 658 689 846 543 846 c 0
 397 846 314 658 314 450 c 0
EndSplineSet
Layer: 2
SplineSet
64 450 m 0,0,1
 64 650 64 650 201.5 783 c 128,-1,2
 339 916 339 916 543 916 c 128,-1,3
 747 916 747 916 885 783 c 128,-1,4
 1023 650 1023 650 1023 450 c 0,5,6
 1023 251 1023 251 885 117.5 c 128,-1,7
 747 -16 747 -16 543 -16 c 128,-1,8
 339 -16 339 -16 201.5 117.5 c 128,-1,9
 64 251 64 251 64 450 c 0,0,1
314 450 m 128,-1,11
 314 286 314 286 376 170 c 128,-1,12
 438 54 438 54 543 54 c 128,-1,13
 648 54 648 54 710.5 170 c 128,-1,14
 773 286 773 286 773 450 c 128,-1,15
 773 614 773 614 710.5 730 c 128,-1,16
 648 846 648 846 543 846 c 128,-1,17
 438 846 438 846 376 730 c 128,-1,10
 314 614 314 614 314 450 c 128,-1,11
EndSplineSet
EndChar

StartChar: p
Encoding: 112 112 80
Width: 1096
VWidth: 2079
Flags: W
HStem: -506 68<28 157.245 366.755 495> -16 78<458.92 673.378> 767 53<28 73.5566> 812 104<485.654 678.071>
VStem: 158 208<-438 70 111.578 747.646> 783 250<241.875 687.256>
AnchorPoint: "DotBelow" 688 -20 basechar 0
AnchorPoint: "Top" 553 1000 basechar 0
AnchorPoint: "Acute" 553 980 basechar 0
AnchorPoint: "Grave" 553 980 basechar 0
AnchorPoint: "Dotaccent" 553 1020 basechar 0
LayerCount: 3
Fore
SplineSet
366 -391 m 2xdc
 366 -421 376 -438 402 -438 c 2
 495 -438 l 1
 495 -506 l 1
 474 -506 325 -502 262 -502 c 0
 199 -502 49 -506 28 -506 c 1
 28 -438 l 1
 122 -438 l 2
 148 -438 158 -421 158 -391 c 2
 158 690 l 2
 158 730 147 752 110 757 c 2
 28 767 l 1
 28 820 l 1xec
 314 910 l 25
 366 910 l 1
 366 791 l 1
 450 860 549 916 638 916 c 0
 742 916 845 881 897 827 c 0
 990 731 1033 621 1033 490 c 0
 1033 356 998 227 933 136 c 0
 855 28 749 -16 621 -16 c 0
 556 -16 455 14 366 70 c 1
 366 -391 l 2xdc
366 144 m 1
 427 93 503 62 556 62 c 0
 620 62 683 92 718 149 c 0
 766 225 783 337 783 418 c 0
 783 509 782 611 729 705 c 0
 682 788 624 812 558 812 c 0xdc
 499 812 437 783 366 707 c 1
 366 144 l 1
EndSplineSet
Validated: 19457
Layer: 2
SplineSet
366 -391 m 2,0,1
 366 -438 366 -438 402 -438 c 2,2,-1
 495 -438 l 1,3,-1
 495 -506 l 1,4,5
 490 -506 490 -506 394.5 -504 c 128,-1,6
 299 -502 299 -502 262 -502 c 128,-1,7
 225 -502 225 -502 129 -504 c 128,-1,8
 33 -506 33 -506 28 -506 c 1,9,-1
 28 -438 l 1,10,-1
 122 -438 l 2,11,12
 158 -438 158 -438 158 -391 c 2,13,-1
 158 690 l 2,14,15
 158 721 158 721 147.5 737 c 128,-1,16
 137 753 137 753 110 757 c 2,17,-1
 28 767 l 1,18,-1
 28 820 l 1,19,-1
 314 910 l 1,20,-1
 366 910 l 1,21,-1
 366 791 l 1,22,23
 518 916 518 916 638 916 c 0,24,25
 716 916 716 916 787 891.5 c 128,-1,26
 858 867 858 867 897 827 c 0,27,28
 1033 687 1033 687 1033 490 c 0,29,30
 1033 276 1033 276 933 136 c 0,31,32
 823 -16 823 -16 621 -16 c 0,33,34
 570 -16 570 -16 500 7 c 128,-1,35
 430 30 430 30 366 70 c 1,36,-1
 366 -391 l 2,0,1
366 144 m 1,37,38
 411 106 411 106 463 84 c 128,-1,39
 515 62 515 62 556 62 c 0,40,41
 605 62 605 62 648.5 84.5 c 128,-1,42
 692 107 692 107 718 149 c 0,43,44
 783 252 783 252 783 418 c 0,45,46
 783 478 783 478 781 514.5 c 128,-1,47
 779 551 779 551 766.5 606 c 128,-1,48
 754 661 754 661 729 705 c 0,49,50
 668 812 668 812 558 812 c 0,51,52
 464 812 464 812 366 707 c 1,53,-1
 366 144 l 1,37,38
EndSplineSet
EndChar

StartChar: q
Encoding: 113 113 81
Width: 1073
VWidth: 2079
Flags: W
HStem: -506 68<601 730.245 939.755 1068> -16 104<418.929 611.949> 838 78<424.207 658.599>
VStem: 64 250<212.744 653.272> 731 208<-438 103 152.354 788.422>
AnchorPoint: "Top" 532 1000 basechar 0
AnchorPoint: "Acute" 532 980 basechar 0
AnchorPoint: "Grave" 532 980 basechar 0
AnchorPoint: "Dotaccent" 532 1020 basechar 0
AnchorPoint: "DotBelow" 396 -20 basechar 0
LayerCount: 3
Fore
SplineSet
939 -391 m 2
 939 -421 949 -438 975 -438 c 2
 1068 -438 l 1
 1068 -506 l 1
 1047.08984375 -506 898.055664062 -502 835 -502 c 0
 772.107421875 -502 621.733398438 -506 601 -506 c 1
 601 -438 l 1
 695 -438 l 2
 721 -438 731 -421 731 -391 c 2
 731 103 l 1
 728 105 l 1
 652 42 547 -16 459 -16 c 0
 355 -16 252 19 200 73 c 0
 107 169 64 279 64 410 c 0
 64 544 100 673 167 764 c 0
 248 872 358 916 491 916 c 0
 558 916 633 888 662 876 c 0
 688 864 713 854 732 854 c 0
 773 854 803 866 825 901 c 2
 826 904 l 1
 831 904 l 1
 931 904 l 1
 939 904 l 1
 939 898 l 1
 939 -391 l 2
314 482 m 0
 314 391 315 289 368 195 c 0
 415 112 473 88 539 88 c 0
 598 88 660 117 731 193 c 1
 731 756 l 1
 670 807 594 838 541 838 c 0
 477 838 414 808 379 751 c 0
 331 675 314 563 314 482 c 0
EndSplineSet
Layer: 2
SplineSet
939 -391 m 2,0,1
 939 -438 939 -438 975 -438 c 2,2,-1
 1068 -438 l 1,3,-1
 1068 -506 l 1,4,5
 1063 -506 1063 -506 967.5 -504 c 128,-1,6
 872 -502 872 -502 835 -502 c 128,-1,7
 798 -502 798 -502 702 -504 c 128,-1,8
 606 -506 606 -506 601 -506 c 1,9,-1
 601 -438 l 1,10,-1
 695 -438 l 2,11,12
 731 -438 731 -438 731 -391 c 2,13,-1
 731 103 l 1,14,-1
 728 105 l 1,15,16
 665 53 665 53 593 18.5 c 128,-1,17
 521 -16 521 -16 459 -16 c 0,18,19
 381 -16 381 -16 310 8.5 c 128,-1,20
 239 33 239 33 200 73 c 0,21,22
 64 213 64 213 64 410 c 0,23,24
 64 624 64 624 167 764 c 0,25,26
 281 916 281 916 491 916 c 0,27,28
 565 916 565 916 662 876 c 0,29,30
 710 854 710 854 732 854 c 0,31,32
 795 854 795 854 825 901 c 1,33,-1
 826 904 l 1,34,-1
 831 904 l 1,35,-1
 931 904 l 1,36,-1
 939 904 l 1,37,-1
 939 898 l 1,38,-1
 939 -391 l 2,0,1
314 482 m 0,39,40
 314 422 314 422 316 385.5 c 128,-1,41
 318 349 318 349 330.5 294 c 128,-1,42
 343 239 343 239 368 195 c 0,43,44
 429 88 429 88 539 88 c 0,45,46
 633 88 633 88 731 193 c 1,47,-1
 731 756 l 1,48,49
 686 794 686 794 634 816 c 128,-1,50
 582 838 582 838 541 838 c 0,51,52
 492 838 492 838 448.5 815.5 c 128,-1,53
 405 793 405 793 379 751 c 0,54,55
 314 648 314 648 314 482 c 0,39,40
EndSplineSet
EndChar

StartChar: r
Encoding: 114 114 82
Width: 825
VWidth: 2079
Flags: W
HStem: -2 68<56 185.245 394.755 523> 686 230<537.195 714.467> 767 53<56 101.557>
VStem: 186 208<66 663.269 704 756.481>
AnchorPoint: "DotBelow" 290 -20 basechar 0
AnchorPoint: "Bottom" 290 0 basechar 0
AnchorPoint: "Top" 456 1000 basechar 0
AnchorPoint: "Acute" 456 980 basechar 0
AnchorPoint: "Grave" 458 980 basechar 0
AnchorPoint: "Dotaccent" 458 1020 basechar 0
LayerCount: 3
Fore
SplineSet
394 113 m 2xd0
 394 83 404 66 430 66 c 2
 523 66 l 1
 523 -2 l 1
 502 -2 353 2 290 2 c 0
 227 2 77 -2 56 -2 c 1
 56 66 l 1
 150 66 l 2
 176 66 186 83 186 113 c 2
 186 690 l 2
 186 730 175 752 138 757 c 2
 56 767 l 1
 56 820 l 1xb0
 342 910 l 0
 394 910 l 1
 394 704 l 1
 396 702 l 1
 443 794 547 916 654 916 c 0
 763 916 796 839 796 777 c 0
 796 700 727 650 666 650 c 0
 648 650 622 655 594 671 c 0
 577 680 555 686 539 686 c 0
 489 686 432 673 394 626 c 1
 394 113 l 2xd0
EndSplineSet
Layer: 2
SplineSet
394 113 m 2,0,1
 394 66 394 66 430 66 c 2,2,-1
 523 66 l 1,3,-1
 523 -2 l 1,4,5
 518 -2 518 -2 422.5 0 c 128,-1,6
 327 2 327 2 290 2 c 128,-1,7
 253 2 253 2 157 0 c 128,-1,8
 61 -2 61 -2 56 -2 c 1,9,-1
 56 66 l 1,10,-1
 150 66 l 2,11,12
 186 66 186 66 186 113 c 2,13,-1
 186 690 l 2,14,15
 186 721 186 721 175.5 737 c 128,-1,16
 165 753 165 753 138 757 c 2,17,-1
 56 767 l 1,18,-1
 56 820 l 1,19,-1
 342 910 l 1,20,-1
 394 910 l 1,21,-1
 394 704 l 1,22,-1
 396 702 l 1,23,24
 437 783 437 783 509 849.5 c 128,-1,25
 581 916 581 916 654 916 c 0,26,27
 728 916 728 916 762 874.5 c 128,-1,28
 796 833 796 833 796 777 c 0,29,30
 796 722 796 722 755.5 686 c 128,-1,31
 715 650 715 650 666 650 c 0,32,33
 631 650 631 650 594 671 c 0,34,35
 566 686 566 686 539 686 c 0,36,37
 443 686 443 686 394 626 c 1,38,-1
 394 113 l 2,0,1
EndSplineSet
EndChar

StartChar: s
Encoding: 115 115 83
Width: 832
VWidth: 2079
Flags: W
HStem: -16 70<275.908 519.368> 846 70<261.04 495.823>
VStem: 57 41<254.602 273.595> 95 121<635.745 807.737> 582 197<122.501 291.952> 666 69<639.091 684.509>
AnchorPoint: "DotBelow" 376 -20 basechar 0
AnchorPoint: "Bottom" 436 0 basechar 0
AnchorPoint: "Top" 424 1000 basechar 0
AnchorPoint: "Acute" 424 980 basechar 0
AnchorPoint: "Grave" 366 980 basechar 0
AnchorPoint: "Dotaccent" 366 1020 basechar 0
LayerCount: 3
Fore
SplineSet
478 900 m 0xd8
 522 885 567 871 581 871 c 0
 612 871 620 895 625 916 c 1
 683 916 l 1
 735 642 l 1
 666 628 l 1xd4
 617 726 519 846 353 846 c 0
 295 846 216 800 216 729 c 0
 216 631 314 592 410 563 c 0
 607 504 779 431 779 268 c 0
 779 93 621 -16 442 -16 c 0
 397 -16 316 -3 272 13 c 0
 227 30 219 35 191 35 c 0
 168 35 150 11 145 -16 c 1
 95 -16 l 1xd8
 57 268 l 1
 98 284 l 1xe0
 123 243 170 181 203 148 c 0
 251 101 310 54 386 54 c 0
 507 54 582 110 582 201 c 0
 582 290 514 318 385 359 c 0
 230 408 95 472 95 665 c 0
 95 831 239 916 360 916 c 0
 399 916 447 911 478 900 c 0xd8
EndSplineSet
Validated: 19457
Layer: 2
SplineSet
478 900 m 0,0,1
 563 871 563 871 581 871 c 0,2,3
 614 871 614 871 625 916 c 1,4,-1
 683 916 l 1,5,-1
 735 642 l 1,6,-1
 666 628 l 1,7,8
 646 669 646 669 619 704 c 128,-1,9
 592 739 592 739 554 773 c 128,-1,10
 516 807 516 807 464 826.5 c 128,-1,11
 412 846 412 846 353 846 c 0,12,13
 305 846 305 846 260.5 812.5 c 128,-1,14
 216 779 216 779 216 729 c 0,15,16
 216 694 216 694 231.5 666.5 c 128,-1,17
 247 639 247 639 278 619.5 c 128,-1,18
 309 600 309 600 338 588 c 128,-1,19
 367 576 367 576 410 563 c 0,20,21
 476 543 476 543 524.5 525 c 128,-1,22
 573 507 573 507 624 480.5 c 128,-1,23
 675 454 675 454 706.5 425 c 128,-1,24
 738 396 738 396 758.5 355.5 c 128,-1,25
 779 315 779 315 779 268 c 0,26,27
 779 141 779 141 680 62.5 c 128,-1,28
 581 -16 581 -16 442 -16 c 0,29,30
 407 -16 407 -16 355.5 -7.5 c 128,-1,31
 304 1 304 1 272 13 c 0,32,33
 265 16 265 16 255 19.5 c 128,-1,34
 245 23 245 23 241 24.5 c 128,-1,35
 237 26 237 26 230.5 28.5 c 128,-1,36
 224 31 224 31 220.5 32 c 128,-1,37
 217 33 217 33 211.5 34 c 128,-1,38
 206 35 206 35 201.5 35 c 128,-1,39
 197 35 197 35 191 35 c 0,40,41
 174 35 174 35 161.5 20 c 128,-1,42
 149 5 149 5 145 -16 c 1,43,-1
 95 -16 l 1,44,-1
 57 268 l 1,45,-1
 98 284 l 1,46,47
 146 205 146 205 203 148 c 0,48,49
 299 54 299 54 386 54 c 0,50,51
 477 54 477 54 529.5 93.5 c 128,-1,52
 582 133 582 133 582 201 c 0,53,54
 582 263 582 263 538.5 293.5 c 128,-1,55
 495 324 495 324 385 359 c 0,56,57
 318 380 318 380 273 401 c 128,-1,58
 228 422 228 422 183.5 457 c 128,-1,59
 139 492 139 492 117 544 c 128,-1,60
 95 596 95 596 95 665 c 0,61,62
 95 744 95 744 137 803 c 128,-1,63
 179 862 179 862 238 889 c 128,-1,64
 297 916 297 916 360 916 c 0,65,66
 433 916 433 916 478 900 c 0,0,1
EndSplineSet
AlternateSubs2: "'aalt' Access All Alternates-1" longs
Substitution2: "'ss05' Historical Forms-1" longs
EndChar

StartChar: t
Encoding: 116 116 84
Width: 690
VWidth: 2079
Flags: W
HStem: -16 104<324.33 541.293> 824 76<34 163.969 372 598.039>
VStem: 164 208<105.706 824> 288 84<1035.05 1266>
AnchorPoint: "Top" 336 1370 basechar 0
AnchorPoint: "Dotaccent" 336 1390 basechar 0
AnchorPoint: "Acute" 336 1350 basechar 0
AnchorPoint: "Grave" 336 1350 basechar 0
AnchorPoint: "DotBelow" 410 -20 basechar 0
AnchorPoint: "Bottom" 384 0 basechar 0
LayerCount: 3
Fore
SplineSet
34 900 m 1xe0
 248 900 288 1102 288 1266 c 1
 372 1266 l 1
 372 900 l 1xd0
 602 900 l 1
 602 857 602 842 592 824 c 1
 372 824 l 1
 372 249 l 2
 372 136 407 88 473 88 c 0
 545 88 585 150 610 212 c 1
 656 194 l 1
 634 127 586 71 557 42 c 0
 516 3 466 -16 400 -16 c 0
 254 -16 164 92 164 227 c 2
 164 824 l 1
 34 824 l 1
 34 900 l 1xe0
EndSplineSet
Validated: 19457
Layer: 2
SplineSet
34 900 m 1,0,1
 288 900 288 900 288 1266 c 1,2,-1
 372 1266 l 1,3,-1
 372 900 l 1,4,-1
 602 900 l 1,5,6
 602 842 602 842 592 824 c 1,7,-1
 372 824 l 1,8,-1
 372 249 l 2,9,10
 372 88 372 88 473 88 c 0,11,12
 560 88 560 88 610 212 c 1,13,-1
 656 194 l 1,14,15
 630 115 630 115 557 42 c 0,16,17
 496 -16 496 -16 400 -16 c 0,18,19
 293 -16 293 -16 228.5 53.5 c 128,-1,20
 164 123 164 123 164 227 c 2,21,-1
 164 824 l 1,22,-1
 34 824 l 1,23,-1
 34 900 l 1,0,1
EndSplineSet
EndChar

StartChar: u
Encoding: 117 117 85
Width: 1036
VWidth: 2079
Flags: W
HStem: -18 104<389.914 547.768> 8 70<898.383 998> 823 68<32 132.601 570 670.601> 888 20G<32 350 570 888>
VStem: 142 208<128.152 815.493> 680 208<85.7397 125 160.062 815.26>
AnchorPoint: "DotBelow" 543 -20 basechar 0
AnchorPoint: "Bottom" 543 0 basechar 0
AnchorPoint: "Top" 512 1000 basechar 0
AnchorPoint: "Acute" 512 980 basechar 0
AnchorPoint: "Grave" 512 980 basechar 0
AnchorPoint: "Dotaccent" 512 1020 basechar 0
LayerCount: 3
Fore
SplineSet
32 891 m 1xac
 350 908 l 1x1c
 350 294 l 2
 350 230 354 166 393 127 c 0
 422 98 447 86 500 86 c 0
 551 86 615 134 680 201 c 1
 680 747 l 2
 680 803 650 823 570 823 c 1
 570 891 l 1xac
 888 908 l 1
 888 154 l 2
 888 98 918 78 998 78 c 1
 998 8 l 1x5c
 891 3 787 -3 680 -8 c 1
 680 125 l 1
 608 58 502 -18 402 -18 c 0
 318 -18 264 -2 221 44 c 0
 156 111 142 195 142 260 c 2
 142 747 l 2
 142 804 112 823 32 823 c 1
 32 891 l 1xac
EndSplineSet
Layer: 2
SplineSet
32 891 m 1,0,-1
 350 908 l 1,1,-1
 350 294 l 2,2,3
 350 170 350 170 393 127 c 0,4,5
 416 104 416 104 438.5 95 c 128,-1,6
 461 86 461 86 500 86 c 0,7,8
 568 86 568 86 680 201 c 1,9,-1
 680 747 l 2,10,11
 680 789 680 789 655 806 c 128,-1,12
 630 823 630 823 570 823 c 1,13,-1
 570 891 l 1,14,-1
 888 908 l 1,15,-1
 888 154 l 2,16,17
 888 112 888 112 913 95 c 128,-1,18
 938 78 938 78 998 78 c 1,19,-1
 998 8 l 1,20,21
 944 6 944 6 839 0 c 128,-1,22
 734 -6 734 -6 680 -8 c 1,23,-1
 680 125 l 1,24,25
 526 -18 526 -18 402 -18 c 0,26,27
 279 -18 279 -18 221 44 c 0,28,29
 142 125 142 125 142 260 c 2,30,-1
 142 747 l 2,31,32
 142 789 142 789 117.5 806 c 128,-1,33
 93 823 93 823 32 823 c 1,34,-1
 32 891 l 1,0,-1
EndSplineSet
EndChar

StartChar: v
Encoding: 118 118 86
Width: 1079
Flags: W
HStem: -8 21G<464.396 566.801> 834 68<8 109.545 383.372 459 698 800.208 937.539 1055>
DStem2: 598 256 171 694 0.395182 -0.918603<-579.94 0> 598 256 558 -8 0.402782 0.915296<0 550.748>
AnchorPoint: "Bottom" 512 0 basechar 0
AnchorPoint: "DotBelow" 512 -20 basechar 0
AnchorPoint: "Top" 564 1000 basechar 0
AnchorPoint: "Acute" 564 980 basechar 0
AnchorPoint: "Grave" 564 980 basechar 0
AnchorPoint: "Dotaccent" 564 1020 basechar 0
LayerCount: 3
Fore
SplineSet
8 902 m 1
 36 902 185 898 250 898 c 0
 315 898 431 902 459 902 c 1
 459 834 l 1
 419 834 l 2
 404 834 383 814 383 796 c 0
 383 771 387.819799284 757.92286738 397 736 c 2
 598 256 l 1
 768 636 l 2
 783.708117848 671.112263425 810 733 810 766 c 0
 810 794 789 834 744 834 c 2
 698 834 l 1
 698 902 l 1
 716 902 856 898 901 898 c 0
 946 898 1037 902 1055 902 c 1
 1055 834 l 1
 1016 834 l 2
 944 834 896 758 870 701 c 2
 558 -8 l 1
 473 -8 l 1
 171 694 l 2
 152 739 134 781 111 803 c 0
 80 832 46 834 8 834 c 1
 8 902 l 1
EndSplineSet
Layer: 2
SplineSet
8 902 m 1,0,1
 17 902 17 902 115 900 c 128,-1,2
 213 898 213 898 250 898 c 128,-1,3
 287 898 287 898 368.5 900 c 128,-1,4
 450 902 450 902 459 902 c 1,5,-1
 459 834 l 1,6,-1
 419 834 l 2,7,8
 407 834 407 834 395 821.5 c 128,-1,9
 383 809 383 809 383 796 c 0,10,11
 383 769 383 769 397 736 c 2,12,-1
 598 256 l 1,13,-1
 768 636 l 2,14,15
 810 730 810 730 810 766 c 0,16,17
 810 790 810 790 792.5 812 c 128,-1,18
 775 834 775 834 744 834 c 2,19,-1
 698 834 l 1,20,-1
 698 902 l 1,21,22
 704 902 704 902 789.5 900 c 128,-1,23
 875 898 875 898 901 898 c 128,-1,24
 927 898 927 898 988 900 c 128,-1,25
 1049 902 1049 902 1055 902 c 1,26,-1
 1055 834 l 1,27,-1
 1016 834 l 2,28,29
 931 834 931 834 870 701 c 2,30,-1
 558 -8 l 1,31,-1
 473 -8 l 1,32,-1
 171 694 l 2,33,34
 134 781 134 781 111 803 c 0,35,36
 78 834 78 834 8 834 c 1,37,-1
 8 902 l 1,0,1
EndSplineSet
EndChar

StartChar: w
Encoding: 119 119 87
Width: 1488
Flags: W
HStem: -8 21G<416.363 537.16 914.543 1034.03> 834 68<8 102.595 360.022 437 551 642.268 895.011 1003 1121 1219.94 1366.88 1460>
DStem2: 557 245 159 694 0.356723 -0.93421<-587.672 0> 557 245 528 0 0.416404 0.90918<0 315.122> 912 722 695 694 0.306448 -0.951887<-78.2592 48.3863 163.82 465.508> 1055 279 1026 -8 0.372486 0.928038<0 516.435>
AnchorPoint: "DotBelow" 728 -20 basechar 0
AnchorPoint: "Bottom" 728 0 basechar 0
AnchorPoint: "Top" 776 1000 basechar 0
AnchorPoint: "Acute" 776 980 basechar 0
AnchorPoint: "Grave" 776 980 basechar 0
AnchorPoint: "Dotaccent" 776 1020 basechar 0
LayerCount: 3
Fore
SplineSet
8 902 m 1
 36 902 143 898 209 898 c 0
 274 898 410 902 437 902 c 1
 437 834 l 1
 403 834 l 2
 390 834 360 819 360 800 c 0
 360 775 361 759 370 735 c 2
 557 245 l 1
 722 610 l 1
 695 694 l 2
 681 740 672 769 653 790 c 0
 621 826 582 834 551 834 c 1
 551 902 l 1
 579 902 690 898 756 898 c 0
 822 898 975 902 1003 902 c 1
 1003 834 l 1
 940 834 l 2
 910 834 895 819 895 800 c 0
 895 773 900 758 912 722 c 2
 1055 279 l 1
 1218 676 l 2
 1227 702 1228 726 1228 768 c 0
 1228 801 1204 834 1167 834 c 2
 1121 834 l 1
 1121 902 l 1
 1139 902 1258 898 1304 898 c 0
 1350 898 1442 902 1460 902 c 1
 1460 834 l 1
 1429 834 l 2
 1386 834 1343 782 1319 722 c 1
 1026 -8 l 1
 921 -8 l 1
 757 500 l 1
 528 0 l 1
 424 0 l 1
 159 694 l 2
 141 741 128 780 104 803 c 0
 74 832 46 834 8 834 c 1
 8 902 l 1
EndSplineSet
Layer: 2
SplineSet
8 902 m 1,0,1
 17 902 17 902 94 900 c 128,-1,2
 171 898 171 898 209 898 c 0,3,4
 246 898 246 898 337 900 c 128,-1,5
 428 902 428 902 437 902 c 1,6,-1
 437 834 l 1,7,-1
 403 834 l 2,8,9
 391 834 391 834 375.5 823.5 c 128,-1,10
 360 813 360 813 360 800 c 0,11,12
 360 762 360 762 370 735 c 2,13,-1
 557 245 l 1,14,-1
 722 610 l 1,15,-1
 695 694 l 2,16,17
 672 769 672 769 653 790 c 0,18,19
 614 834 614 834 551 834 c 1,20,-1
 551 902 l 1,21,22
 560 902 560 902 639 900 c 128,-1,23
 718 898 718 898 756 898 c 128,-1,24
 794 898 794 898 894 900 c 128,-1,25
 994 902 994 902 1003 902 c 1,26,-1
 1003 834 l 1,27,-1
 940 834 l 2,28,29
 918 834 918 834 906.5 824.5 c 128,-1,30
 895 815 895 815 895 800 c 0,31,32
 895 773 895 773 912 722 c 2,33,-1
 1055 279 l 1,34,-1
 1218 676 l 2,35,36
 1228 705 1228 705 1228 768 c 0,37,38
 1228 794 1228 794 1211 814 c 128,-1,39
 1194 834 1194 834 1167 834 c 2,40,-1
 1121 834 l 1,41,-1
 1121 902 l 1,42,43
 1126 902 1126 902 1202 900 c 128,-1,44
 1278 898 1278 898 1304 898 c 128,-1,45
 1330 898 1330 898 1392 900 c 128,-1,46
 1454 902 1454 902 1460 902 c 1,47,-1
 1460 834 l 1,48,-1
 1429 834 l 2,49,50
 1398 834 1398 834 1368 802 c 128,-1,51
 1338 770 1338 770 1319 722 c 2,52,-1
 1026 -8 l 1,53,-1
 921 -8 l 1,54,-1
 757 500 l 1,55,-1
 528 0 l 1,56,-1
 424 0 l 1,57,-1
 159 694 l 2,58,59
 157 698 157 698 152.5 711 c 128,-1,60
 148 724 148 724 146 728 c 128,-1,61
 144 732 144 732 140 742.5 c 128,-1,62
 136 753 136 753 133.5 757.5 c 128,-1,63
 131 762 131 762 127 770.5 c 128,-1,64
 123 779 123 779 120 783.5 c 128,-1,65
 117 788 117 788 112.5 793.5 c 128,-1,66
 108 799 108 799 104 803 c 0,67,68
 83 823 83 823 62.5 828.5 c 128,-1,69
 42 834 42 834 8 834 c 1,70,-1
 8 902 l 1,0,1
EndSplineSet
EndChar

StartChar: x
Encoding: 120 120 88
Width: 1157
Flags: W
HStem: -2 68<75 185.028 370.443 479 665 731.765 1030.26 1113> 835 67<92 168.922 480.29 560 714 800.236 1003.35 1097>
DStem2: 302 204 394 185 0.689798 0.724002<-14.9954 278.878 492.276 760.596> 642 560 502 413 0.626759 -0.779213<-279.644 0 106.447 410.957>
AnchorPoint: "Top" 612 1000 basechar 0
AnchorPoint: "Acute" 612 980 basechar 0
AnchorPoint: "Grave" 612 980 basechar 0
AnchorPoint: "Dotaccent" 612 1020 basechar 0
AnchorPoint: "DotBelow" 588 -20 basechar 0
AnchorPoint: "Bottom" 588 0 basechar 0
LayerCount: 3
Fore
SplineSet
75 65 m 1
 115 75 160 82 191 103 c 0
 239 136 262 157 302 204 c 2
 502 413 l 1
 299 665 l 2
 261 716 224 761 193 785 c 0
 161 810 129 826 92 835 c 1
 92 902 l 1
 127 902 275 898 340 898 c 0
 405 898 526 902 560 902 c 1
 560 834 l 1
 510 834 478 823 478 788 c 0
 478 766 489 751 502 734 c 2
 642 560 l 1
 781 706 l 2
 802 726 815 741 815 767 c 0
 815 810 757 834 714 834 c 1
 714 902 l 1
 732 902 872 898 918 898 c 0
 964 898 1079 902 1097 902 c 0
 1097 835 l 1
 1056 825 1013 812 977 786 c 0
 938 757 913 732 878 693 c 2
 692 497 l 1
 946 182 l 1
 994 120 1040 82 1113 65 c 1
 1113 -2 l 1
 1077 -2 956 2 889 2 c 0
 822 2 701 -2 665 -2 c 1
 665 66 l 1
 699 66 l 2
 719 66 732 84 732 104 c 0
 732 125 719 145 705 162 c 2
 552 351 l 1
 394 185 l 2
 376 164 365 149 365 122 c 0
 365 94 390 66 418 66 c 2
 479 66 l 1
 479 -2 l 1
 447 -2 339 2 293 2 c 0
 248 2 106 -2 75 -2 c 0
 75 65 l 1
EndSplineSet
Layer: 2
SplineSet
75 65 m 1,0,1
 81 66 81 66 104.5 71.5 c 128,-1,2
 128 77 128 77 138 80 c 128,-1,3
 148 83 148 83 164 89.5 c 128,-1,4
 180 96 180 96 191 103 c 0,5,6
 251 144 251 144 302 204 c 1,7,-1
 502 413 l 1,8,-1
 299 665 l 1,9,10
 232 755 232 755 193 785 c 0,11,12
 146 822 146 822 92 835 c 1,13,-1
 92 902 l 1,14,15
 106 902 106 902 205 900 c 128,-1,16
 304 898 304 898 340 898 c 128,-1,17
 376 898 376 898 461.5 900 c 128,-1,18
 547 902 547 902 560 902 c 1,19,-1
 560 834 l 1,20,21
 478 834 478 834 478 788 c 0,22,23
 478 765 478 765 502 734 c 2,24,-1
 642 560 l 1,25,-1
 781 706 l 2,26,27
 815 738 815 738 815 767 c 0,28,29
 815 797 815 797 782.5 815.5 c 128,-1,30
 750 834 750 834 714 834 c 1,31,-1
 714 902 l 1,32,33
 720 902 720 902 806 900 c 128,-1,34
 892 898 892 898 918 898 c 128,-1,35
 944 898 944 898 1018 900 c 128,-1,36
 1092 902 1092 902 1097 902 c 1,37,-1
 1097 835 l 1,38,39
 1018 816 1018 816 977 786 c 0,40,41
 930 751 930 751 878 693 c 2,42,-1
 692 497 l 1,43,-1
 946 182 l 2,44,45
 984 133 984 133 1022.5 105 c 128,-1,46
 1061 77 1061 77 1113 65 c 1,47,-1
 1113 -2 l 1,48,49
 1099 -2 1099 -2 1012.5 0 c 128,-1,50
 926 2 926 2 889 2 c 128,-1,51
 852 2 852 2 765.5 0 c 128,-1,52
 679 -2 679 -2 665 -2 c 1,53,-1
 665 66 l 1,54,-1
 699 66 l 2,55,56
 714 66 714 66 723 77 c 128,-1,57
 732 88 732 88 732 104 c 0,58,59
 732 129 732 129 705 162 c 2,60,-1
 552 351 l 1,61,-1
 394 185 l 2,62,63
 365 151 365 151 365 122 c 0,64,65
 365 101 365 101 381 83.5 c 128,-1,66
 397 66 397 66 418 66 c 2,67,-1
 479 66 l 1,68,-1
 479 -2 l 1,69,70
 465 -2 465 -2 391.5 0 c 128,-1,71
 318 2 318 2 293 2 c 0,72,73
 269 2 269 2 179 0 c 128,-1,74
 89 -2 89 -2 75 -2 c 1,75,-1
 75 65 l 1,0,1
EndSplineSet
EndChar

StartChar: y
Encoding: 121 121 89
Width: 1084
Flags: W
HStem: -513 192<101 263.803> 834 68<14 119.408 374.017 462 718 798.854 945.798 1069>
DStem2: 590 280 180 700 0.405371 -0.914152<-563.723 0> 474 37 468 -177 0.431985 0.901881<-403.447 0 269.267 801.164>
AnchorPoint: "DotBelow" 796 -20 basechar 0
AnchorPoint: "Top" 568 1000 basechar 0
AnchorPoint: "Acute" 568 980 basechar 0
AnchorPoint: "Grave" 568 980 basechar 0
AnchorPoint: "Dotaccent" 568 1020 basechar 0
LayerCount: 3
Fore
SplineSet
-24 -355 m 0
 -24 -276 36 -235 82 -235 c 0
 119 -235 142 -263 163 -288 c 0
 186 -315 207 -321 228 -321 c 0
 274 -321 333 -242 372 -165 c 2
 474 37 l 1
 180 700 l 2
 162 743 147 783 121 804 c 0
 87 832 56 834 14 834 c 1
 14 902 l 1
 43 902 164 898 234 898 c 0
 304 898 432 902 462 902 c 1
 462 834 l 1
 419 834 l 18
 397 834 374 819 374 802 c 0
 374 778 377 761 386 740 c 2
 590 280 l 1
 771 657 l 2
 788 692 806 732 806 768 c 0
 806 798 786 834 759 834 c 9
 718 834 l 1
 718 902 l 1
 737 902 835 898 881 898 c 0
 951 898 1024 902 1069 902 c 1
 1069 834 l 1
 1014 834 l 18
 948 834 917 760 901 727 c 2
 468 -177 l 2
 408 -302 301 -513 140 -513 c 0
 62 -513 -24 -456 -24 -355 c 0
EndSplineSet
Layer: 2
SplineSet
-24 -355 m 0,0,1
 -24 -300 -24 -300 9.5 -267.5 c 128,-1,2
 43 -235 43 -235 82 -235 c 0,3,4
 99 -235 99 -235 115.5 -244.5 c 128,-1,5
 132 -254 132 -254 140 -262.5 c 128,-1,6
 148 -271 148 -271 163 -288 c 0,7,8
 191 -321 191 -321 228 -321 c 0,9,10
 260 -321 260 -321 299.5 -275 c 128,-1,11
 339 -229 339 -229 372 -165 c 2,12,-1
 474 37 l 1,13,-1
 180 700 l 2,14,15
 179 703 179 703 174.5 714 c 128,-1,16
 170 725 170 725 168.5 728 c 128,-1,17
 167 731 167 731 162.5 741 c 128,-1,18
 158 751 158 751 156 754.5 c 128,-1,19
 154 758 154 758 150.5 766 c 128,-1,20
 147 774 147 774 144 778 c 128,-1,21
 141 782 141 782 137 787.5 c 128,-1,22
 133 793 133 793 129 797 c 128,-1,23
 125 801 125 801 121 804 c 0,24,25
 98 823 98 823 74.5 828.5 c 128,-1,26
 51 834 51 834 14 834 c 1,27,-1
 14 902 l 1,28,29
 23 902 23 902 108.5 900 c 128,-1,30
 194 898 194 898 234 898 c 128,-1,31
 274 898 274 898 363 900 c 128,-1,32
 452 902 452 902 462 902 c 1,33,-1
 462 834 l 1,34,-1
 419 834 l 2,35,36
 402 834 402 834 388 824.5 c 128,-1,37
 374 815 374 815 374 802 c 0,38,39
 374 768 374 768 386 740 c 2,40,-1
 590 280 l 1,41,-1
 771 657 l 2,42,43
 806 729 806 729 806 768 c 0,44,45
 806 792 806 792 792 813 c 128,-1,46
 778 834 778 834 759 834 c 2,47,-1
 718 834 l 1,48,-1
 718 902 l 1,49,50
 724 902 724 902 789.5 900 c 128,-1,51
 855 898 855 898 881 898 c 0,52,53
 919 898 919 898 984.5 900 c 128,-1,54
 1050 902 1050 902 1069 902 c 1,55,-1
 1069 834 l 1,56,-1
 1014 834 l 2,57,58
 953.209417145 834 953.209417145 834 909.036521266 743.732397022 c 0,59,60
 907.258102265 740.098186108 907.258102265 740.098186108 904.081447317 733.431677924 c 2,61,-1
 901 727 l 1,62,-1
 468 -177 l 2,63,64
 452 -211 452 -211 439.5 -235.5 c 128,-1,65
 427 -260 427 -260 405.5 -297.5 c 128,-1,66
 384 -335 384 -335 364.5 -362 c 128,-1,67
 345 -389 345 -389 318 -419.5 c 128,-1,68
 291 -450 291 -450 264.5 -469 c 128,-1,69
 238 -488 238 -488 205.5 -500.5 c 128,-1,70
 173 -513 173 -513 140 -513 c 0,71,72
 77 -513 77 -513 26.5 -470 c 128,-1,73
 -24 -427 -24 -427 -24 -355 c 0,0,1
EndSplineSet
EndChar

StartChar: z
Encoding: 122 122 90
Width: 918
Flags: W
HStem: 0 68<310 653.676> 832 68<309.059 585>
VStem: 67 67<614.721 656.118> 782 68<230.36 305.952>
AnchorPoint: "DotBelow" 416 -20 basechar 0
AnchorPoint: "Bottom" 416 0 basechar 0
AnchorPoint: "Top" 502 1000 basechar 0
AnchorPoint: "Acute" 502 980 basechar 0
AnchorPoint: "Grave" 502 980 basechar 0
AnchorPoint: "Dotaccent" 502 1020 basechar 0
LayerCount: 3
Fore
SplineSet
44 48 m 1
 45 49 l 1
 585 832 l 1
 436 832 l 2
 374 832 277 791 243 754 c 0
 195 702 156 643 134 599 c 1
 67 619 l 1
 150 900 l 1
 850 900 l 1
 850 852 l 1
 849 851 l 1
 310 68 l 1
 546 68 l 2
 604 68 669 100 703 148 c 0
 735 194 763 258 782 317 c 1
 850 303 l 1
 796 0 l 1
 44 0 l 1
 44 48 l 1
EndSplineSet
Layer: 2
SplineSet
44 48 m 1,0,-1
 45 49 l 1,1,-1
 585 832 l 1,2,-1
 436 832 l 2,3,4
 390 832 390 832 329.5 807 c 128,-1,5
 269 782 269 782 243 754 c 0,6,7
 174 680 174 680 134 599 c 1,8,-1
 67 619 l 1,9,-1
 150 900 l 1,10,-1
 850 900 l 1,11,-1
 850 852 l 1,12,-1
 849 851 l 1,13,-1
 310 68 l 1,14,-1
 546 68 l 2,15,16
 590 68 590 68 634 90 c 128,-1,17
 678 112 678 112 703 148 c 0,18,19
 749 214 749 214 782 317 c 1,20,-1
 850 303 l 1,21,-1
 796 0 l 1,22,-1
 44 0 l 1,23,-1
 44 48 l 1,0,-1
EndSplineSet
EndChar

StartChar: braceleft
Encoding: 123 123 91
Width: 800
VWidth: 1000
Flags: W
HStem: -561 66<594.496 713.041> 435 57<166 286.79> 1423 66<591.835 710>
VStem: 279 197<-385.597 -134.671 1061.17 1314.36> 387 197<31.6463 304.599 621.562 894.687>
LayerCount: 3
Fore
SplineSet
166 492 m 1xe8
 302 492 387 548 387 708 c 0xe8
 387 779 360 851 329 930 c 0
 304 1014 279 1100 279 1181 c 0
 279 1351 467 1479 710 1489 c 1
 724 1423 l 1
 579 1396 476 1369 476 1258 c 0xf0
 476 1179 503 1104 535 1025 c 0
 559 949 584 865 584 790 c 0
 584 592 448 495 288 463 c 1
 449 430 584 333 584 136 c 0xe8
 584 61 559 -23 535 -99 c 0
 502 -178 476 -253 476 -332 c 0
 476 -443 579 -468 724 -495 c 1
 710 -561 l 1
 479 -549 279 -424 279 -254 c 0xf0
 279 -173 304 -87 329 -3 c 0
 360 75 387 148 387 219 c 0
 387 379 302 435 166 435 c 1
 166 492 l 1xe8
EndSplineSet
Validated: 19457
Layer: 2
SplineSet
166 492 m 1,0,1
 274 492 274 492 330.5 542.5 c 128,-1,2
 387 593 387 593 387 708 c 0,3,4
 387 782 387 782 329 930 c 1,5,6
 279 1098 279 1098 279 1181 c 0,7,8
 279 1307 279 1307 402.5 1394 c 128,-1,9
 526 1481 526 1481 710 1489 c 1,10,-1
 724 1423 l 1,11,12
 660 1411 660 1411 622.5 1401 c 128,-1,13
 585 1391 585 1391 547.5 1372.5 c 128,-1,14
 510 1354 510 1354 493 1326 c 128,-1,15
 476 1298 476 1298 476 1258 c 0,16,17
 476 1171 476 1171 535 1025 c 1,18,19
 584 870 584 870 584 790 c 0,20,21
 584 651 584 651 502 570 c 128,-1,22
 420 489 420 489 288 463 c 1,23,24
 420 436 420 436 502 355.5 c 128,-1,25
 584 275 584 275 584 136 c 0,26,27
 584 56 584 56 535 -99 c 1,28,29
 476 -240 476 -240 476 -332 c 0,30,31
 476 -364 476 -364 489 -389 c 128,-1,32
 502 -414 502 -414 520.5 -429.5 c 128,-1,33
 539 -445 539 -445 575 -458 c 128,-1,34
 611 -471 611 -471 641.5 -478 c 128,-1,35
 672 -485 672 -485 724 -495 c 1,36,-1
 710 -561 l 1,37,38
 594 -555 594 -555 496 -515 c 128,-1,39
 398 -475 398 -475 338.5 -406 c 128,-1,40
 279 -337 279 -337 279 -254 c 128,-1,41
 279 -171 279 -171 329 -3 c 1,42,43
 387 143 387 143 387 219 c 0,44,45
 387 334 387 334 330.5 384.5 c 128,-1,46
 274 435 274 435 166 435 c 1,47,-1
 166 492 l 1,0,1
EndSplineSet
EndChar

StartChar: bar
Encoding: 124 124 92
Width: 534
VWidth: 2078
Flags: W
HStem: -468 21G<195 339> 1440 20G<195 339>
VStem: 195 144<-468 1460>
LayerCount: 3
Fore
SplineSet
195 1460 m 1
 339 1460 l 1
 339 -468 l 1
 195 -468 l 1
 195 1460 l 1
EndSplineSet
Validated: 19457
Layer: 2
SplineSet
195 1460 m 1,0,-1
 339 1460 l 1,1,-1
 339 -468 l 1,2,-1
 195 -468 l 1,3,-1
 195 1460 l 1,0,-1
EndSplineSet
EndChar

StartChar: braceright
Encoding: 125 125 93
Width: 800
VWidth: 1000
Flags: W
HStem: -561 66<86.959 205.504> 435 57<513.21 634> 1423 66<90 208.165>
VStem: 216 197<31.6463 304.599 621.562 894.687> 324 197<-385.597 -134.671 1061.17 1314.36>
LayerCount: 3
Fore
SplineSet
634 492 m 1xf0
 634 435 l 1
 498 435 413 379 413 219 c 0xf0
 413 148 440 75 471 -3 c 0
 496 -87 521 -173 521 -254 c 0
 521 -424 321 -549 90 -561 c 1
 76 -495 l 1
 221 -468 324 -443 324 -332 c 0xe8
 324 -253 298 -178 265 -99 c 0
 241 -23 216 61 216 136 c 0
 216 333 351 430 512 463 c 1
 352 495 216 592 216 790 c 0xf0
 216 865 241 949 265 1025 c 0
 297 1104 324 1179 324 1258 c 0
 324 1369 221 1396 76 1423 c 1
 90 1489 l 1
 333 1479 521 1351 521 1181 c 0xe8
 521 1100 496 1014 471 930 c 0
 440 851 413 779 413 708 c 0
 413 548 498 492 634 492 c 1xf0
EndSplineSet
Validated: 19457
Layer: 2
SplineSet
634 492 m 1,0,-1
 634 435 l 1,1,2
 526 435 526 435 469.5 384.5 c 128,-1,3
 413 334 413 334 413 219 c 0,4,5
 413 143 413 143 471 -3 c 1,6,7
 521 -171 521 -171 521 -254 c 128,-1,8
 521 -337 521 -337 461.5 -406 c 128,-1,9
 402 -475 402 -475 304 -515 c 128,-1,10
 206 -555 206 -555 90 -561 c 1,11,-1
 76 -495 l 1,12,13
 128 -485 128 -485 158.5 -478 c 128,-1,14
 189 -471 189 -471 225 -458 c 128,-1,15
 261 -445 261 -445 279.5 -429.5 c 128,-1,16
 298 -414 298 -414 311 -389 c 128,-1,17
 324 -364 324 -364 324 -332 c 0,18,19
 324 -240 324 -240 265 -99 c 1,20,21
 216 56 216 56 216 136 c 0,22,23
 216 275 216 275 298 355.5 c 128,-1,24
 380 436 380 436 512 463 c 1,25,26
 380 489 380 489 298 570 c 128,-1,27
 216 651 216 651 216 790 c 0,28,29
 216 870 216 870 265 1025 c 1,30,31
 324 1171 324 1171 324 1258 c 0,32,33
 324 1298 324 1298 307 1326 c 128,-1,34
 290 1354 290 1354 252.5 1372.5 c 128,-1,35
 215 1391 215 1391 177.5 1401 c 128,-1,36
 140 1411 140 1411 76 1423 c 1,37,-1
 90 1489 l 1,38,39
 274 1481 274 1481 397.5 1394 c 128,-1,40
 521 1307 521 1307 521 1181 c 0,41,42
 521 1098 521 1098 471 930 c 1,43,44
 413 782 413 782 413 708 c 0,45,46
 413 593 413 593 469.5 542.5 c 128,-1,47
 526 492 526 492 634 492 c 1,0,-1
EndSplineSet
EndChar

StartChar: asciitilde
Encoding: 126 126 94
Width: 1160
VWidth: 2078
Flags: W
HStem: 399 161<677.126 869.442> 529 161<262.626 467.516>
LayerCount: 3
Fore
SplineSet
410 690 m 0x40
 500 690 569 666 628 633 c 0
 689 599 739 560 804 560 c 0
 908 560 957 623 1012 697 c 1
 1060 671 l 1
 997 541 874 399 732 399 c 0x80
 645 399 571 424 514 457 c 0
 456 491 405 529 340 529 c 0
 236 529 193 475 138 402 c 1
 86 438 l 1
 168 569 249 690 410 690 c 0x40
EndSplineSet
Validated: 19457
Layer: 2
SplineSet
410 690 m 0,0,1
 526 690 526 690 628 633 c 0,2,3
 637 628 637 628 670 608.5 c 128,-1,4
 703 589 703 589 716.5 582.5 c 128,-1,5
 730 576 730 576 755.5 568 c 128,-1,6
 781 560 781 560 804 560 c 0,7,8
 841 560 841 560 871.5 570 c 128,-1,9
 902 580 902 580 928 602 c 128,-1,10
 954 624 954 624 970 643 c 128,-1,11
 986 662 986 662 1012 697 c 1,12,-1
 1060 671 l 1,13,14
 1006 560 1006 560 918.5 479.5 c 128,-1,15
 831 399 831 399 732 399 c 0,16,17
 614 399 614 399 514 457 c 0,18,19
 508 460 508 460 481.5 476.5 c 128,-1,20
 455 493 455 493 445 498 c 128,-1,21
 435 503 435 503 414 512.5 c 128,-1,22
 393 522 393 522 376 525.5 c 128,-1,23
 359 529 359 529 340 529 c 0,24,25
 302 529 302 529 273 520.5 c 128,-1,26
 244 512 244 512 219.5 491.5 c 128,-1,27
 195 471 195 471 179.5 453.5 c 128,-1,28
 164 436 164 436 138 402 c 1,29,-1
 86 438 l 1,30,31
 117 487 117 487 136.5 515.5 c 128,-1,32
 156 544 156 544 188.5 582 c 128,-1,33
 221 620 221 620 250.5 640 c 128,-1,34
 280 660 280 660 321.5 675 c 128,-1,35
 363 690 363 690 410 690 c 0,0,1
EndSplineSet
EndChar

StartChar: exclamdown
Encoding: 161 161 96
Width: 584
VWidth: 2078
Flags: W
HStem: -559 21G<221.5 362.5> 583 370<170.188 413.812>
VStem: 121 342<-510.622 -153.748 633.421 902.579> 246 93<287.726 445>
LayerCount: 3
Fore
SplineSet
477 768 m 0xc0
 477 664 396 583 292 583 c 0
 188 583 107 664 107 768 c 0
 107 872 188 953 292 953 c 0
 396 953 477 872 477 768 c 0xc0
463 -394 m 0xe0
 463 -452 433 -559 292 -559 c 0
 151 -559 121 -452 121 -394 c 0xe0
 121 -342 142 -237 163 -161 c 0
 188 -72 198 -16 212 72 c 1
 246 445 l 1
 339 445 l 1xd0
 372 72 l 1
 386 -16 397 -73 422 -162 c 0
 443 -238 463 -342 463 -394 c 0xe0
EndSplineSet
Validated: 19457
Layer: 2
SplineSet
477 768 m 128,-1,1
 477 690 477 690 423.5 636.5 c 128,-1,2
 370 583 370 583 292 583 c 128,-1,3
 214 583 214 583 160.5 636.5 c 128,-1,4
 107 690 107 690 107 768 c 128,-1,5
 107 846 107 846 160.5 899.5 c 128,-1,6
 214 953 214 953 292 953 c 128,-1,7
 370 953 370 953 423.5 899.5 c 128,-1,0
 477 846 477 846 477 768 c 128,-1,1
463 -394 m 0,8,9
 463 -419 463 -419 455.5 -444.5 c 128,-1,10
 448 -470 448 -470 431 -497.5 c 128,-1,11
 414 -525 414 -525 378 -542 c 128,-1,12
 342 -559 342 -559 292 -559 c 128,-1,13
 242 -559 242 -559 206 -542 c 128,-1,14
 170 -525 170 -525 153 -497.5 c 128,-1,15
 136 -470 136 -470 128.5 -444.5 c 128,-1,16
 121 -419 121 -419 121 -394 c 0,17,18
 121 -313 121 -313 163 -161 c 0,19,20
 191 -63 191 -63 212 72 c 1,21,-1
 246 445 l 1,22,-1
 339 445 l 1,23,-1
 372 72 l 1,24,25
 393 -57 393 -57 422 -162 c 0,26,27
 463 -310 463 -310 463 -394 c 0,8,9
EndSplineSet
EndChar

StartChar: cent
Encoding: 162 162 97
Width: 1152
VWidth: 2079
Flags: W
HStem: -558 21G<192 300.667> -16 104<540.091 800.295> 830 86<510.275 653> 1442 20G<859.345 968>
VStem: 156 250<238.153 653.324> 725 241<617.74 731.188>
DStem2: 192 -558 294 -558 0.31651 0.948589<32.284 630.599 829.782 1393.33 1556.57 2129.48>
LayerCount: 3
Fore
SplineSet
156 436 m 0
 156 571 198 692 288 779 c 0
 390 879 512 916 616 916 c 0
 639 916 662 915 683 912 c 1
 866 1462 l 1
 968 1462 l 1
 777 891 l 1
 878 857 966 773 966 694 c 0
 966 623 918 579 853 579 c 0
 756 579 741 673 725 733 c 1
 527 141 l 1
 572 106 629 88 696 88 c 0
 796 88 871 177 915 243 c 1
 977 198 l 1
 914 114 806 -16 648 -16 c 0
 591 -16 535 -9 482 6 c 1
 294 -558 l 1
 192 -558 l 1
 392 42 l 1
 362 57 334 75 307 97 c 0
 210 174 156 285 156 436 c 0
455 229 m 1
 653 824 l 1
 643 828 631 830 618 830 c 0
 478 830 406 672 406 457 c 0
 406 367 423 289 455 229 c 1
EndSplineSet
Validated: 19457
Layer: 2
SplineSet
156 436 m 0,0,1
 156 651 156 651 288 779 c 0,2,3
 428 916 428 916 616 916 c 0,4,5
 655 916 655 916 683 912 c 1,6,-1
 866 1462 l 1,7,-1
 968 1462 l 1,8,-1
 777 891 l 1,9,10
 855 865 855 865 910.5 808.5 c 128,-1,11
 966 752 966 752 966 694 c 0,12,13
 966 642 966 642 934.5 610.5 c 128,-1,14
 903 579 903 579 853 579 c 0,15,16
 835 579 835 579 820 584 c 128,-1,17
 805 589 805 589 794.5 594 c 128,-1,18
 784 599 784 599 774 613 c 128,-1,19
 764 627 764 627 759 633 c 128,-1,20
 754 639 754 639 747 659 c 128,-1,21
 740 679 740 679 738.5 683 c 128,-1,22
 737 687 737 687 731 710 c 2,23,-1
 725 733 l 1,24,-1
 527 141 l 1,25,26
 595 88 595 88 696 88 c 0,27,28
 812 88 812 88 915 243 c 1,29,-1
 977 198 l 1,30,31
 954 167 954 167 933.5 143 c 128,-1,32
 913 119 913 119 879.5 87 c 128,-1,33
 846 55 846 55 813.5 34.5 c 128,-1,34
 781 14 781 14 737 -1 c 128,-1,35
 693 -16 693 -16 648 -16 c 0,36,37
 560 -16 560 -16 482 6 c 1,38,-1
 294 -558 l 1,39,-1
 192 -558 l 1,40,-1
 392 42 l 1,41,42
 347 65 347 65 307 97 c 0,43,44
 156 217 156 217 156 436 c 0,0,1
455 229 m 1,45,-1
 653 824 l 1,46,47
 638 830 638 830 618 830 c 0,48,49
 516 830 516 830 461 727 c 128,-1,50
 406 624 406 624 406 457 c 0,51,52
 406 321 406 321 455 229 c 1,45,-1
EndSplineSet
EndChar

